<?xml version="1.0" encoding="UTF-8"?>
<svg id="Layer_2" data-name="Layer 2" xmlns="http://www.w3.org/2000/svg" viewBox="0 0 671.45 884.31">
  <defs>
    <style>
      .cls-1 {
        fill: #fff;
      }
    </style>
  </defs>
  <g id="Layer_1-2" data-name="Layer 1">
    <g>
      <path class="cls-1" d="M210.27,146.4c3.29-3.5,31.56-41.25,33.71-39.76,18.21,37.04,41.53,72.1,74.61,97.46,64.19,49.19,152.6,58.57,226.23,24.95,2.88-56.37-12.31-112.05-49-155.27C466.81,39.61,413.84,6.06,368.6,1.22c-15.21-1.63-50.56-1.63-65.75,0-11.17,1.2-32.84,8.2-43.73,12.5-75.27,29.77-131.36,106.1-131.05,187.96,30.97-12.03,59.49-31.05,82.21-55.28Z"/>
      <path class="cls-1" d="M652.7,611.84c-26.25-49.19-94.01-94.31-151.62-85.15-7.91,1.25-20.81,16.61-30.03,19.25-1.51,16.02.8,32.96-.38,48.9-8.03,108.39-130.81,165.75-217.83,98.35-48.69-37.71-53.66-89.47-52.94-147.61-8.58-2.41-19.91-16.11-26.75-18.22-17.46-5.39-55.09,4.06-72.24,11.03C47.87,559.91,5.08,615.03,0,672.62v211.7h84.79v-139.98h49.33c.17,0,2.58,2.41,2.58,2.6v137.38h399.76v-139.98h50.2v139.98h84.79v-215.15c0-12.35-12.52-45.65-18.74-57.32Z"/>
      <path class="cls-1" d="M506.72,444.17c33.69-47.96,41.01-101.78,38.39-159.52-111.11,39.85-238.97,3-308.9-91.57-31.04,29.29-68.3,51.01-109.1,63.84-3.26,64.14-2.24,124.11,33.1,179.65,79.38,124.74,261.62,128.43,346.51,7.59Z"/>
      <path class="cls-1" d="M595.22,327.04c2.74,44.65,22.84,77.09,65.84,92.4v-235.9c0-3.05-3.61-17.11-4.7-21.22-12.81-48.19-54.86-90.62-104.35-99.74,13,20.91,24.66,42.9,32.06,66.5,20.27,64.64,7.11,131.67,11.15,197.96Z"/>
      <path class="cls-1" d="M252.67,571.53c-5.51,58.87,38.02,107.14,98.71,97.72,31.21-4.85,67.4-40.23,67.4-72.67v-25.07c-54.62,16.66-111.47,16.26-166.11.02Z"/>
    </g>
  </g>
</svg>