<?xml version="1.0" encoding="UTF-8"?>
<svg id="Layer_2" data-name="Layer 2" xmlns="http://www.w3.org/2000/svg" viewBox="0 0 695.58 829.87">
  <defs>
    <style>
      .cls-1 {
        fill: #fff;
        fill-rule: evenodd;
      }
    </style>
  </defs>
  <g id="Layer_1-2" data-name="Layer 1">
    <path class="cls-1" d="M576.24,191.62l5.36-9.28c8.62,4.18,14.38,6.32,14.96,5.32l53.07-91.91-.1-.06c-.37-2.61-16.05-13.55-36.18-25.17-20.13-11.62-37.43-19.72-39.89-18.75l-.1-.06-53.07,91.92c-.57,1,4.16,4.93,12.09,10.29l-3.47,6.02c16.61,9.36,32.44,19.95,47.34,31.68h0ZM359.4,445.9c5.99,1.92,11.34,5.3,15.63,9.71l168.34-83.15.72,1.24-158.41,105.71c.06.88.09,1.78.09,2.68,0,20.98-17,37.99-37.98,37.99-5.9,0-11.49-1.35-16.48-3.75l-95.08,164.68-7.85-4.53,95.29-165.05c-8.48-6.96-13.88-17.53-13.88-29.36,0-16.93,11.07-31.27,26.37-36.18l10.89-112.18h1.45l10.89,112.18h0ZM347.79,510.25c21.33,0,33.27-21.4,26.02-38.96-2.16-5.17-5.75-9.57-10.5-12.72-3.14-2.08-6.65-3.49-10.37-4.18-5.65-1.03-11.37-.42-16.78,2.03-9.62,4.37-16.54,14.03-16.54,25.66,0,15.81,12.85,28.16,28.17,28.16h0ZM421.42,222.55c3.08,3.09,3.08,8.09,0,11.19-3.08,3.09-8.1,3.09-11.18,0-3.08-3.09-3.08-8.09,0-11.19s8.1-3.09,11.18,0h0ZM285.34,730.42c3.09,3.09,3.09,8.1,0,11.19-3.08,3.09-8.1,3.09-11.19,0-3.08-3.08-3.08-8.09,0-11.19,3.08-3.08,8.1-3.08,11.19,0h0ZM541.32,294.14c1.14,4.22-1.37,8.56-5.59,9.69s-8.56-1.38-9.69-5.59c-1.13-4.22,1.37-8.56,5.59-9.69,4.23-1.13,8.56,1.37,9.69,5.59h0ZM169.53,665.93c1.13,4.22-1.37,8.56-5.59,9.69-4.23,1.14-8.56-1.37-9.69-5.59-1.14-4.21,1.37-8.56,5.58-9.69,4.22-1.13,8.56,1.38,9.69,5.59h0ZM609.36,416.09c-1.13,4.22-5.47,6.72-9.69,5.59-4.22-1.13-6.73-5.47-5.6-9.69,1.14-4.22,5.47-6.72,9.7-5.59,4.21,1.13,6.72,5.47,5.59,9.69h0ZM101.49,552.17c-1.13,4.22-5.46,6.73-9.67,5.59-4.23-1.13-6.73-5.47-5.6-9.69,1.13-4.22,5.47-6.72,9.69-5.59,4.21,1.13,6.73,5.47,5.59,9.69h0ZM607.32,555.72c-3.08,3.09-8.1,3.09-11.18,0-3.1-3.09-3.1-8.1,0-11.19,3.08-3.09,8.1-3.09,11.18,0,3.08,3.08,3.08,8.09,0,11.19h0ZM99.44,419.64c-3.08,3.08-8.09,3.08-11.19,0-3.08-3.09-3.08-8.1,0-11.19,3.1-3.09,8.1-3.09,11.19,0,3.1,3.08,3.1,8.09,0,11.19h0ZM535.73,675.61c4.21-1.12,6.73-5.47,5.59-9.68-1.13-4.22-5.46-6.73-9.69-5.59-4.21,1.12-6.72,5.47-5.59,9.68,1.13,4.22,5.47,6.73,9.69,5.59h0ZM163.95,303.83c-4.23,1.13-8.56-1.38-9.69-5.59-1.14-4.22,1.37-8.56,5.58-9.69,4.22-1.13,8.56,1.37,9.69,5.59,1.13,4.22-1.37,8.56-5.59,9.69h0ZM413.78,743.66c-4.21-1.13-6.72-5.47-5.58-9.69,1.13-4.22,5.46-6.72,9.69-5.59,4.21,1.13,6.72,5.47,5.59,9.69-1.13,4.21-5.46,6.72-9.69,5.59h0ZM277.7,235.79c-4.21-1.13-6.72-5.47-5.59-9.69,1.13-4.22,5.46-6.73,9.69-5.59,4.21,1.13,6.72,5.47,5.59,9.69-1.13,4.22-5.47,6.72-9.69,5.59h0ZM483.2,247.56c5.22,3.02,7.01,9.7,4,14.92-3.02,5.22-9.7,7.01-14.93,4-5.22-3.01-7.02-9.7-4-14.92,3.02-5.22,9.7-7.01,14.93-4h0ZM223.31,697.68c5.23,3.02,7.02,9.7,4,14.92-3.02,5.22-9.7,7.01-14.92,4-5.23-3.01-7.02-9.7-4-14.92,3.01-5.22,9.7-7.01,14.92-4h0ZM582.31,346.68c3.02,5.22,1.23,11.9-4,14.92-5.22,3.02-11.91,1.23-14.92-4-3.02-5.23-1.23-11.91,4-14.92,5.22-3.02,11.91-1.23,14.92,4h0ZM132.18,606.56c3.02,5.22,1.23,11.9-4,14.92-5.22,3.01-11.91,1.22-14.92-4-3.02-5.22-1.23-11.91,4-14.92,5.22-3.01,11.91-1.23,14.92,4h0ZM582.31,617.49c-3.01,5.22-9.7,7.01-14.92,4-5.23-3.02-7.02-9.7-4-14.92,3.01-5.23,9.7-7.01,14.92-4,5.23,3.01,7.02,9.7,4,14.92h0ZM132.18,357.61c-3.01,5.22-9.7,7.01-14.92,4-5.23-3.02-7.02-9.7-4-14.92,3.01-5.22,9.7-7.01,14.92-4,5.23,3.01,7.02,9.69,4,14.92h0ZM483.2,716.61c-5.23,3.02-11.91,1.23-14.93-4-3.02-5.22-1.22-11.9,4-14.92,5.23-3.02,11.91-1.23,14.93,4,3.01,5.22,1.22,11.91-4,14.92h0ZM223.31,266.48c-5.22,3.02-11.91,1.23-14.92-4-3.02-5.22-1.23-11.9,4-14.92,5.22-3.02,11.9-1.23,14.92,4,3.02,5.22,1.23,11.91-4,14.92h0ZM347.79,211.28c10.54,0,19.08,8.54,19.08,19.08s-8.54,19.07-19.08,19.07-19.08-8.54-19.08-19.07,8.54-19.08,19.08-19.08h0ZM347.79,714.74c10.54,0,19.08,8.54,19.08,19.07s-8.54,19.07-19.08,19.07-19.08-8.54-19.08-19.07,8.54-19.07,19.08-19.07h0ZM618.59,482.09c0,10.53-8.54,19.07-19.07,19.07s-19.08-8.54-19.08-19.07,8.54-19.07,19.08-19.07,19.07,8.54,19.07,19.07h0ZM115.13,482.09c0,10.53-8.53,19.07-19.07,19.07s-19.08-8.54-19.08-19.07,8.54-19.07,19.08-19.07,19.07,8.54,19.07,19.07h0ZM347.79,134.3c192.08,0,347.79,155.71,347.79,347.79s-155.71,347.79-347.79,347.79S0,674.16,0,482.09,155.71,134.3,347.79,134.3h0ZM347.79,200.12c-155.72,0-281.96,126.24-281.96,281.97s126.24,281.96,281.96,281.96,281.96-126.24,281.96-281.96-126.24-281.97-281.96-281.97h0ZM347.79,0c43.75,0,79.59,3.08,82.66,6.98h.22v86.46c0,2.98-21.44,5.52-51.83,6.57v13.86c-10.23-.86-20.58-1.31-31.04-1.31s-20.81.45-31.04,1.31v-13.86c-30.39-1.05-51.85-3.59-51.85-6.57V6.98h.23c3.07-3.9,38.9-6.98,82.66-6.98h0ZM82.23,70.52c-20.12,11.62-35.8,22.56-36.18,25.17l-.09.06.13.24v.02s.02.01.02.01l52.9,91.65c.58,1,6.35-1.14,14.97-5.32l5.36,9.29c14.89-11.73,30.72-22.33,47.34-31.69l-3.48-6.02c7.93-5.38,12.67-9.3,12.1-10.29l-53.07-91.92-.1.06c-2.46-.98-19.77,7.13-39.9,18.75Z"/>
  </g>
</svg>