<?xml version="1.0" encoding="UTF-8"?>
<svg id="Layer_2" data-name="Layer 2" xmlns="http://www.w3.org/2000/svg" viewBox="0 0 917.83 838.67">
  <defs>
    <style>
      .cls-1 {
        fill: #fff;
      }
    </style>
  </defs>
  <g id="Layer_1-2" data-name="Layer 1">
    <g>
      <path class="cls-1" d="M482.09,507.6h184.39c138.72,0,251.34,112.62,251.34,251.34v79.73H230.75v-79.73c0-138.72,112.62-251.34,251.34-251.34Z"/>
      <path class="cls-1" d="M765.76,301.9c0,105.74-85.72,191.47-191.47,191.47-85.32,0-157.6-55.8-182.34-132.89,3.07-1.06,6.12-2.2,9.14-3.43,23.77-9.63,45.09-23.77,63.36-42.04,32.57-32.57,52.36-75.82,55.72-121.76,1.8-24.64-1.15-49.2-8.49-72.35,19.62-6.79,40.68-10.48,62.61-10.48,105.75,0,191.47,85.73,191.47,191.48Z"/>
      <path class="cls-1" d="M499.54,125.56c-5.7-18.3-14.4-35.86-26.1-51.91-5.38-7.43-11.48-14.57-18.18-21.27C420.34,17.46,374.46,0,328.58,0s-91.76,17.46-126.68,52.38c-63.5,63.58-69.1,163.22-17.07,233.35l-54.16,54.15c-5.01-4.01-11.08-6.02-17.13-6.02-6.93,0-13.85,2.64-19.15,7.94L8,428.12c-10.67,10.67-10.67,27.96,0,38.63l32.97,32.96c5.33,5.34,12.32,8.01,19.3,8.01s13.96-2.67,19.26-8.01l86.39-86.39c9.93-9.93,10.45-25.53,1.84-36.27l54.23-54.24c16.56,12.29,34.66,21.34,53.64,27.16,17.36,5.38,35.37,8.07,53.37,8.07,20.12,0,40.22-3.36,59.39-10.1,24.43-8.57,47.35-22.61,66.87-42.13,48.73-48.73,63.48-118.67,44.28-180.25ZM418.17,268.65c-10.52,10.52-22.43,18.79-35.16,24.83-17.12,8.13-35.71,12.19-54.3,12.19-21.04,0-42.08-5.2-61.02-15.6-10.3-5.6-19.95-12.73-28.63-21.42-49.37-49.37-49.37-129.73,0-179.11,24.69-24.68,57.14-37.03,89.58-37.04,29.45,0,58.9,10.19,82.54,30.57,2.43,2.06,4.71,4.19,6.99,6.47,18.28,18.28,29.8,40.8,34.53,64.43,8.08,40.2-3.43,83.59-34.53,114.68Z"/>
    </g>
  </g>
</svg>