<?xml version="1.0" encoding="UTF-8"?>
<svg id="Layer_2" data-name="Layer 2" xmlns="http://www.w3.org/2000/svg" viewBox="0 0 906.22 769.42">
  <defs>
    <style>
      .cls-1 {
        fill: #fff;
      }
    </style>
  </defs>
  <g id="Layer_1-2" data-name="Layer 1">
    <g>
      <path class="cls-1" d="M634.89,95.32C564.64,33.85,471.15,0,371.67,0S178.71,33.85,108.45,95.32C38.51,156.51,0,237.77,0,324.14c0,67,23.26,131.3,67.25,185.96l2.56,3.17-.95,3.95c-8.74,36.63-14.98,74.1-18.53,111.37-.22,2.36,1.15,3.8,1.76,4.31.75.62,2.3,1.58,4.49,1l121.89-32.81,2.88,1.49c57.37,29.91,123.19,45.72,190.33,45.72,99.48,0,192.97-33.85,263.22-95.32,69.94-61.2,108.47-142.47,108.47-228.84s-38.53-167.64-108.47-228.83ZM371.67,363.35c-21.61,0-39.2-17.59-39.2-39.2s17.59-39.2,39.2-39.2,39.2,17.59,39.2,39.2-17.59,39.2-39.2,39.2ZM193.04,363.35c-21.61,0-39.2-17.59-39.2-39.2s17.59-39.2,39.2-39.2,39.2,17.59,39.2,39.2-17.59,39.2-39.2,39.2ZM550.3,363.35c-21.61,0-39.2-17.59-39.2-39.2s17.59-39.2,39.2-39.2,39.2,17.59,39.2,39.2-17.59,39.2-39.2,39.2Z"/>
      <path class="cls-1" d="M860.55,683.75l2.56-3.18c28.21-35.04,43.12-76.25,43.12-119.17,0-84.92-59.68-161.37-149.54-192.94-10.92,74.42-49.32,143.16-110.87,197.01-53.17,46.52-119.02,77.85-190.69,91.57,40.89,68.6,122.81,112.38,212.18,112.38,43.21,0,85.57-10.18,122.49-29.43l2.86-1.49,80.41,21.64c.1.03.18.06.3-.06.14-.12.14-.25.12-.33-2.31-24.14-6.35-48.38-11.99-72.04l-.95-3.95Z"/>
    </g>
  </g>
</svg>