<?xml version="1.0" encoding="UTF-8"?>
<svg id="Layer_2" data-name="Layer 2" xmlns="http://www.w3.org/2000/svg" viewBox="0 0 373.47 931.95">
  <defs>
    <style>
      .cls-1 {
        fill: #fff;
        fill-rule: evenodd;
      }
    </style>
  </defs>
  <g id="Layer_1-2" data-name="Layer 1">
    <path class="cls-1" d="M228.47,690.37v198.53c0,23.67-19.37,43.04-43.04,43.04h0c-23.68,0-43.04-19.37-43.04-43.04v-198.53H6.01l47.94-237.1c46.67,16.02,83.92,28.24,111.08,36.56,29.52,9.04,47.25,13.28,52.41,12.64h0c16.15-2.25,26.42-10.27,32.14-20.28,2.53-4.43,4.15-9.25,4.96-14.12.8-4.8.82-9.65.18-14.24-1.51-10.83-6.82-20.39-14.37-24.71-.37-.21-.76-.38-1.16-.51l-12.73-4.8c-23.87-8.98-49.36-18.58-122.79-47.39,3.78-6.13,9.06-14.69,15.17-24.68,1.7-2.79.82-6.44-1.97-8.14-2.79-1.7-6.44-.82-8.14,1.97-8.13,13.31-12.6,20.55-15.71,25.6l-2.94,4.76c-.27.38-.5.81-.68,1.26-1.19,3.05.31,6.49,3.36,7.68,78.2,30.71,104.73,40.7,129.53,50.03l12.49,4.71c4.18,2.6,7.21,8.7,8.21,15.84.48,3.44.47,7.08-.13,10.67-.59,3.52-1.75,6.99-3.57,10.18-4.05,7.07-11.51,12.77-23.47,14.45l-.49.09c-2.48.56-18.33-3.58-46.87-12.33-27.67-8.48-67.14-21.47-117.79-38.92l-34.88-13.51c-18.91-12.45-19.93-35.54-7.9-53.09,82.7-120.7,124.05-181.05,124.05-181.05,6.77-9.96,17.9-14.54,33.39-13.73,96.75,33.06,156.77,95.11,116.52,151.03,97.74,103.05,117.28,184.19,58.63,243.42l13.08,117.72h-125.1ZM167.04,4.28c43.86,0,79.41,35.55,79.41,79.41s-35.55,79.41-79.41,79.41-79.41-35.55-79.41-79.41c0-.47,0-.94.02-1.41-.96.07-1.94.1-2.92.1-22.75,0-41.19-18.44-41.19-41.19S61.98,0,84.73,0c14.9,0,27.96,7.92,35.19,19.77,13.18-9.73,29.48-15.49,47.12-15.49h0Z"/>
  </g>
</svg>