<?xml version="1.0" encoding="UTF-8"?>
<svg id="Layer_2" data-name="Layer 2" xmlns="http://www.w3.org/2000/svg" xmlns:xlink="http://www.w3.org/1999/xlink" viewBox="0 0 966.81 769.42">
  <defs>
    <style>
      .cls-1 {
        fill: none;
      }

      .cls-2 {
        fill: #5bcaf3;
      }

      .cls-3 {
        fill: #dfe5e5;
      }

      .cls-4 {
        fill: #eda4b3;
      }

      .cls-5 {
        fill: #fff;
      }

      .cls-6 {
        fill: #7d3851;
      }

      .cls-7 {
        fill: #f1a0b7;
      }

      .cls-8 {
        fill: #5ac7f0;
      }

      .cls-9 {
        clip-path: url(#clippath);
      }
    </style>
    <clipPath id="clippath">
      <path class="cls-1" d="M184.49,503.34v126.12c-.2-.16-.41-.33-.61-.5-.45-.37-.9-.73-1.35-1.1-3.03-2.48-6.05-4.99-9.05-7.55-.37-.31-.74-.63-1.12-.95-3.08-2.64-6.16-5.31-9.21-8.04-.22-.2-.44-.4-.65-.59-6.36-5.71-12.64-11.6-18.82-17.69-.23-.23-.47-.46-.7-.69-1.57-1.55-3.12-3.11-4.66-4.68l46.17-84.34ZM798.91,533.03l11.03,72.59c4.44-4.09,8.84-8.27,13.18-12.56.24-.23.48-.46.71-.69,1.63-1.61,3.26-3.25,4.88-4.9l-29.8-54.44ZM725.11,0c-133.49,0-241.7,142.23-241.7,142.23,0,0-108.21-142.23-241.7-142.23S0,108.22,0,241.7c0,3.57.03,7.1.1,10.62v.03c1.91,105.92,32.11,191.02,76.58,259.13l46.38-84.73c24.5-44.76,71.41-72.55,122.43-72.55h5.82c-7.09-4.28-13.59-9.59-19.31-15.82-14.9-16.22-23.11-37.29-23.11-59.34,0-23.44,9.13-45.47,25.7-62.05,16.58-16.57,38.61-25.7,62.05-25.7s45.48,9.13,62.05,25.7c16.58,16.58,25.7,38.61,25.7,62.05,0,22.04-8.21,43.11-23.11,59.34-5.71,6.23-12.22,11.54-19.31,15.82h5.82c31.1,0,60.67,10.33,84.57,28.53,11.62-8.41,25.89-13.38,41.3-13.38,19.8,0,37.73,8.19,50.56,21.36,25.4-23.52,59.1-37.14,94.82-37.14h5.78c-25.18-15.48-41.72-43.31-41.72-74.54,0-23.35,9.09-45.3,25.61-61.81,16.51-16.51,38.46-25.6,61.81-25.6s45.3,9.09,61.81,25.6c16.51,16.51,25.61,38.46,25.61,61.81,0,31.22-16.54,59.06-41.72,74.54h5.11c51.02,0,97.94,27.81,122.43,72.55l46.56,85.07c44.37-68.06,74.5-153.07,76.4-258.85v-.03c.07-3.52.1-7.06.1-10.62C966.81,108.22,858.6,0,725.11,0Z"/>
    </clipPath>
  </defs>
  <g id="Layer_1-2" data-name="Layer 1">
    <g>
      <path class="cls-6" d="M340.67,701.22l43.08-78.71v117.84c-.2-.07-.42-.15-.62-.23-1.57-.58-3.15-1.17-4.75-1.78-.14-.05-.28-.1-.42-.16-1.82-.69-3.64-1.38-5.49-2.1-.04-.02-.09-.03-.14-.05-.83-.32-1.67-.65-2.51-.97-.15-.05-.29-.12-.44-.18-.05-.01-.1-.03-.15-.05-.14-.05-.28-.11-.42-.17-1.73-.67-3.47-1.37-5.22-2.07-.14-.05-.29-.11-.43-.17-.19-.07-.38-.15-.58-.23-.02,0-.03-.01-.05-.02-.91-.36-1.81-.73-2.72-1.1-.1-.03-.2-.08-.3-.12-.63-.26-1.25-.51-1.87-.76-.06-.03-.12-.05-.18-.07-1.04-.43-2.1-.86-3.15-1.3-.15-.06-.3-.12-.46-.19-1.24-.52-2.49-1.04-3.75-1.57-.57-.25-1.15-.49-1.73-.74-.2-.08-.39-.16-.59-.25-1.02-.44-2.04-.87-3.07-1.31-.06-.03-.12-.05-.18-.08-1.91-.82-3.84-1.66-5.77-2.52-.26-.11-.51-.22-.77-.34-1.63-.72-3.26-1.44-4.9-2.18-.12-.05-.25-.11-.37-.17-1.28-.57-2.56-1.16-3.85-1.74-.26-.12-.52-.25-.78-.36-.86-.4-1.72-.79-2.58-1.19,6.29-3.33,11.61-8.47,15.15-14.95Z"/>
      <path class="cls-6" d="M410.68,506.92c-.53.11-1.06.23-1.59.36l.08-2.81,1.51,2.44Z"/>
      <path class="cls-6" d="M632.94,719.97c-1.38.62-2.76,1.23-4.13,1.84-.26.12-.52.23-.79.35-1.93.85-3.84,1.69-5.75,2.51-.07.03-.14.06-.2.09-1.02.44-2.04.88-3.06,1.31-.2.09-.4.17-.61.26-.57.24-1.13.48-1.7.72-.01,0-.03,0-.03.01-1.25.52-2.49,1.05-3.74,1.56-.15.07-.3.13-.45.19-1.06.44-2.1.87-3.15,1.3-.06.03-.12.05-.18.07-.61.25-1.23.5-1.85.75-.11.05-.22.1-.33.14-.91.37-1.82.74-2.72,1.1h0c-.2.08-.4.16-.61.25-.15.06-.3.12-.44.18-1.74.69-3.48,1.38-5.2,2.06-.16.06-.31.12-.46.18-.05.02-.1.03-.14.05-.14.05-.29.11-.44.17-.84.33-1.67.65-2.51.97-.05.02-.1.04-.15.06-1.84.71-3.66,1.4-5.46,2.08-.15.06-.31.12-.46.17-1.59.61-3.17,1.19-4.74,1.78-.2.07-.41.15-.61.22-1.06.39-2.1.78-3.15,1.16-.1.03-.2.07-.31.11-2.84,1.04-5.64,2.04-8.39,3-.2.07-.39.14-.59.2-.08.03-.17.06-.25.09-.17.06-.34.12-.51.18-.33.12-.66.23-.99.35-.07.03-.15.05-.22.08-.76.26-1.51.52-2.25.78-.29.1-.58.2-.87.3-.65.22-1.31.44-1.95.67v-124.75l43.08,78.71c5.49,10.03,15.23,16.86,26.29,18.76Z"/>
      <path class="cls-6" d="M751.79,279.04c0,41.48-31.07,75.7-71.21,80.67-3.3.41-6.67.62-10.08.62s-6.78-.21-10.08-.62c-40.13-4.96-71.21-39.19-71.21-80.67,0-44.89,36.39-81.28,81.29-81.28s81.29,36.39,81.29,81.28Z"/>
      <g class="cls-9">
        <g>
          <rect class="cls-8" x="-20.84" y="-1.44" width="1001.11" height="154.94"/>
          <rect class="cls-7" x="-20.84" y="153.5" width="1001.11" height="154.94"/>
          <rect class="cls-3" x="-20.84" y="308.43" width="1001.11" height="154.94"/>
          <rect class="cls-4" x="-20.84" y="463.37" width="1001.11" height="154.94"/>
          <rect class="cls-2" x="-20.84" y="618.3" width="1001.11" height="154.94"/>
        </g>
      </g>
      <g>
        <g>
          <path class="cls-5" d="M632.94,719.97c-1.38.62-2.76,1.23-4.13,1.84-.26.12-.52.23-.79.35-1.93.85-3.84,1.69-5.75,2.51-.07.03-.14.06-.2.09-1.02.44-2.04.88-3.06,1.31-.2.09-.4.17-.61.26-.57.24-1.13.48-1.7.72-.01,0-.03,0-.03.01-1.25.52-2.49,1.05-3.74,1.56-.15.07-.3.13-.45.19-1.06.44-2.1.87-3.15,1.3-.06.03-.12.05-.18.07-.61.25-1.23.5-1.85.75-.11.05-.22.1-.33.14-.91.37-1.82.74-2.72,1.1h0c-.2.08-.4.16-.61.25-.15.06-.3.12-.44.18-1.74.69-3.48,1.38-5.2,2.06-.16.06-.31.12-.46.18-.05.02-.1.03-.14.05-.14.05-.29.11-.44.17-.84.33-1.67.65-2.51.97-.05.02-.1.04-.15.06-1.84.71-3.66,1.4-5.46,2.08-.15.06-.31.12-.46.17-1.59.61-3.17,1.19-4.74,1.78-.2.07-.41.15-.61.22-1.06.39-2.1.78-3.15,1.16-.1.03-.2.07-.31.11-2.84,1.04-5.64,2.04-8.39,3-.2.07-.39.14-.59.2-.08.03-.17.06-.25.09-.17.06-.34.12-.51.18-.33.12-.66.23-.99.35-.07.03-.15.05-.22.08-.76.26-1.51.52-2.25.78-.29.1-.58.2-.87.3-.65.22-1.31.44-1.95.67v-124.75l43.08,78.71c5.49,10.03,15.23,16.86,26.29,18.76Z"/>
          <path class="cls-5" d="M886.49,516.97h0c-5.26,7.83-10.72,15.42-16.34,22.79-.21.29-.42.57-.64.85-2.62,3.41-5.27,6.78-7.95,10.09-.34.42-.67.84-1.01,1.25-2.55,3.14-5.14,6.23-7.75,9.28h0c-.07.1-.15.18-.22.27-.4.46-.8.93-1.19,1.4-2.68,3.11-5.39,6.16-8.12,9.18-.4.44-.81.89-1.21,1.33-2.76,3.03-5.56,6.02-8.37,8.96-.16.16-.32.33-.48.5l-45.54-83.19,16.86,110.9c-.06.06-.12.12-.18.17-.22.2-.44.39-.66.59-1.53,1.36-3.06,2.72-4.59,4.05-1.53,1.34-3.07,2.66-4.61,3.98-.37.32-.74.64-1.12.95-1.51,1.28-3,2.55-4.52,3.8l-2.27,1.88c-.76.63-1.51,1.25-2.27,1.87-.45.37-.9.73-1.35,1.1-.4.32-.8.65-1.2.96-.72.59-1.44,1.16-2.16,1.74-.09.07-.17.14-.26.2-.31.26-.63.5-.94.76-.02.01-.03.03-.05.04-1.48,1.17-2.96,2.34-4.45,3.49-.46.36-.92.71-1.38,1.07-3.04,2.36-6.1,4.69-9.17,6.97-.41.31-.82.61-1.23.91-.78.58-1.57,1.16-2.36,1.74-1.57,1.15-3.14,2.29-4.71,3.43-.79.57-1.57,1.14-2.36,1.7-.29.2-.57.4-.86.6-1.65,1.17-3.29,2.33-4.94,3.47-1.65,1.15-3.3,2.29-4.95,3.41-.03.02-.07.05-.1.07-1.68,1.14-3.36,2.27-5.04,3.39-1.68,1.12-3.36,2.23-5.05,3.33-.18.12-.35.22-.52.34,0,0,0,0,0,0-1.62,1.06-3.24,2.1-4.87,3.14-1.62,1.04-3.24,2.06-4.87,3.08-.34.22-.69.43-1.03.65-.79.49-1.58.98-2.36,1.46-1.58.98-3.15,1.94-4.73,2.9-.79.48-1.57.96-2.36,1.44-.42.25-.84.5-1.26.76-3.11,1.87-6.22,3.7-9.33,5.5-.27.16-.54.31-.82.46-.16.1-.31.18-.46.27h0c-1.56.9-3.12,1.79-4.67,2.67-.92.52-1.83,1.04-2.75,1.55-.64.37-1.27.72-1.91,1.08-.37.2-.75.41-1.12.62-.2.11-.4.22-.59.33-.01,0-.02.01-.03.01-2.97,1.63-5.92,3.25-8.87,4.82-.25.13-.49.26-.74.39-.29.16-.58.31-.87.46-.03.01-.07.03-.1.05-1.91,1.01-3.82,2.02-5.73,3,0,0-.01,0-.02,0,5.87-10.73,6.33-24.15.03-35.65l-59.79-109.24c-13.16-24.03-34.39-41.94-59.28-51.12-.83-.31-1.67-.61-2.51-.89-11.44-3.92-23.6-5.99-36.08-5.99h-.69c18.64-12.73,30.9-34.14,30.9-58.37,0-16.94-5.99-32.5-15.98-44.68,24.3-22.53,56.55-35.58,90.72-35.58h41.4c3.3.41,6.67.62,10.08.62s6.78-.21,10.08-.62h40.73c48.78,0,93.64,26.58,117.06,69.37l48.11,87.89Z"/>
          <path class="cls-5" d="M751.79,279.04c0,41.48-31.07,75.7-71.21,80.67-3.3.41-6.67.62-10.08.62s-6.78-.21-10.08-.62c-40.13-4.96-71.21-39.19-71.21-80.67,0-44.89,36.39-81.28,81.29-81.28s81.29,36.39,81.29,81.28Z"/>
          <path class="cls-5" d="M660.43,359.71c3.3.41,6.67.62,10.08.62s6.78-.21,10.08-.62h-20.16ZM660.43,359.71c3.3.41,6.67.62,10.08.62s6.78-.21,10.08-.62h-20.16ZM660.43,359.71c3.3.41,6.67.62,10.08.62s6.78-.21,10.08-.62h-20.16ZM660.43,359.71c3.3.41,6.67.62,10.08.62s6.78-.21,10.08-.62h-20.16ZM660.43,359.71c3.3.41,6.67.62,10.08.62s6.78-.21,10.08-.62h-20.16ZM660.43,359.71c3.3.41,6.67.62,10.08.62s6.78-.21,10.08-.62h-20.16ZM660.43,359.71c3.3.41,6.67.62,10.08.62s6.78-.21,10.08-.62h-20.16ZM660.43,359.71c3.3.41,6.67.62,10.08.62s6.78-.21,10.08-.62h-20.16ZM660.43,359.71c3.3.41,6.67.62,10.08.62s6.78-.21,10.08-.62h-20.16ZM660.43,359.71c3.3.41,6.67.62,10.08.62s6.78-.21,10.08-.62h-20.16ZM660.43,359.71c3.3.41,6.67.62,10.08.62s6.78-.21,10.08-.62h-20.16ZM660.43,359.71c3.3.41,6.67.62,10.08.62s6.78-.21,10.08-.62h-20.16ZM660.43,359.71c3.3.41,6.67.62,10.08.62s6.78-.21,10.08-.62h-20.16Z"/>
        </g>
        <g>
          <path class="cls-5" d="M433.93,498.34h-.69c-40.79,0-78.29,22.22-97.87,58l-59.79,109.24c-3.95,7.21-5.24,15.18-4.21,22.77-1.23-.69-2.45-1.4-3.68-2.1h0c-.42-.25-.85-.49-1.28-.74-3.11-1.8-6.22-3.63-9.33-5.5-.42-.25-.84-.5-1.26-.76-.78-.48-1.57-.95-2.36-1.44-1.57-.96-3.15-1.92-4.73-2.9-.79-.48-1.57-.97-2.36-1.46-.35-.22-.69-.43-1.03-.65-1.62-1.02-3.25-2.05-4.88-3.08-1.62-1.03-3.24-2.08-4.87-3.14-.17-.12-.34-.23-.52-.35-1.68-1.1-3.36-2.21-5.05-3.33-1.68-1.12-3.36-2.25-5.04-3.39-.03-.02-.07-.05-.1-.07-.82-.57-1.65-1.13-2.48-1.7-1.65-1.14-3.3-2.29-4.95-3.45-.82-.58-1.65-1.16-2.47-1.74-.28-.2-.56-.39-.84-.59-1.58-1.12-3.15-2.26-4.73-3.4-1.57-1.14-3.15-2.29-4.71-3.46-.41-.31-.82-.61-1.23-.91-3.07-2.28-6.13-4.6-9.17-6.97-.46-.35-.92-.71-1.38-1.07-.77-.6-1.54-1.21-2.31-1.81v-154.97l-56.77,103.71c-.23-.24-.46-.48-.69-.72-2.81-2.94-5.6-5.92-8.37-8.96-.4-.44-.81-.89-1.21-1.33-2.74-3.02-5.44-6.07-8.12-9.18-.4-.46-.8-.93-1.19-1.4-2.69-3.14-5.35-6.32-7.98-9.55-.34-.42-.67-.84-1.01-1.25-2.68-3.32-5.34-6.68-7.95-10.09-.22-.28-.43-.57-.64-.85-5.56-7.29-10.94-14.79-16.15-22.51l47.92-87.55c23.42-42.79,68.28-69.37,117.06-69.37h43.69c-41.58-3.77-74.17-38.72-74.17-81.29,0-45.08,36.54-81.62,81.62-81.62s81.62,36.54,81.62,81.62c0,42.57-32.59,77.52-74.17,81.29h43.69c29.19,0,56.98,9.52,79.61,26.34-14.91,12.95-24.35,32.05-24.35,53.3,0,24.23,12.26,45.64,30.9,58.37Z"/>
          <path class="cls-5" d="M340.67,701.22l43.08-78.71v117.84c-.2-.07-.42-.15-.62-.23-1.57-.58-3.15-1.17-4.75-1.78-.14-.05-.28-.1-.42-.16-1.82-.69-3.64-1.38-5.49-2.1-.04-.02-.09-.03-.14-.05-.83-.32-1.67-.65-2.51-.97-.15-.05-.29-.12-.44-.18-.05-.01-.1-.03-.15-.05-.14-.05-.28-.11-.42-.17-1.73-.67-3.47-1.37-5.22-2.07-.14-.05-.29-.11-.43-.17-.19-.07-.38-.15-.58-.23-.02,0-.03-.01-.05-.02-.91-.36-1.81-.73-2.72-1.1-.1-.03-.2-.08-.3-.12-.63-.26-1.25-.51-1.87-.76-.06-.03-.12-.05-.18-.07-1.04-.43-2.1-.86-3.15-1.3-.15-.06-.3-.12-.46-.19-1.24-.52-2.49-1.04-3.75-1.57-.57-.25-1.15-.49-1.73-.74-.2-.08-.39-.16-.59-.25-1.02-.44-2.04-.87-3.07-1.31-.06-.03-.12-.05-.18-.08-1.91-.82-3.84-1.66-5.77-2.52-.26-.11-.51-.22-.77-.34-1.63-.72-3.26-1.44-4.9-2.18-.12-.05-.25-.11-.37-.17-1.28-.57-2.56-1.16-3.85-1.74-.26-.12-.52-.25-.78-.36-.86-.4-1.72-.79-2.58-1.19,6.29-3.33,11.61-8.47,15.15-14.95Z"/>
          <path class="cls-5" d="M410.68,506.92c-.53.11-1.06.23-1.59.36l.08-2.81,1.51,2.44Z"/>
          <path class="cls-5" d="M409.16,504.47l-.08,2.81c.53-.13,1.06-.25,1.59-.36l-1.51-2.44ZM409.16,504.47l-.08,2.81c.53-.13,1.06-.25,1.59-.36l-1.51-2.44Z"/>
        </g>
        <g>
          <path class="cls-5" d="M410.68,506.92c-.53.11-1.06.23-1.59.36l.08-2.81,1.51,2.44Z"/>
          <path class="cls-5" d="M657.32,708.52c-1.03.74-2.11,1.42-3.25,2.05-2.1,1.15-4.27,2.03-6.48,2.65-2.76.78-5.58,1.16-8.37,1.16-10.95,0-21.57-5.82-27.2-16.1l-54.58-99.73v150.78c-.17.05-.33.12-.5.17-.29.09-.57.18-.84.28-.99.33-1.97.65-2.96.96-.12.04-.25.08-.37.12-.19.06-.38.12-.57.18s-.39.13-.58.19c-2.06.66-4.07,1.3-6.05,1.92t-.01,0c-5.29,1.65-10.32,3.17-15.06,4.55-.1.03-.2.05-.31.09-1.19.34-2.36.68-3.51,1.01-.14.03-.27.07-.41.12-1.11.31-2.21.62-3.28.92-.14.04-.29.08-.43.12-1.1.31-2.17.6-3.23.89-.09.02-.18.05-.27.07-1.83.5-3.6.97-5.3,1.42-1.1.29-2.18.57-3.23.84-1.11.29-2.19.56-3.23.82-1.32.33-2.59.65-3.82.95-.03.01-.07.02-.11.03-.85.21-1.68.41-2.49.61-.07.01-.15.03-.22.05-.76.18-1.48.35-2.19.52-.1.03-.19.05-.29.07-.72.17-1.42.33-2.08.48-.05.01-.09.02-.14.03-1.75.4-3.32.76-4.73,1.06-.03,0-.07.01-.1.02-.53.12-1.04.22-1.51.33-.03,0-.05.01-.07.01-.46.1-.89.19-1.29.27-.07.01-.14.03-.2.05-.37.07-.72.15-1.05.22-.06,0-.12.02-.17.03-.3.06-.59.12-.84.17-.08.01-.16.03-.23.05-.24.05-.46.09-.65.13-.07.01-.14.03-.2.04-.2.04-.38.07-.54.1-.03,0-.07.02-.1.02-.17.03-.31.06-.44.09-.01,0-.03,0-.05,0-.26.05-.4.07-.4.07,0,0-.14-.03-.39-.07-.01,0-.03,0-.05,0-.12-.03-.27-.05-.44-.09-.03,0-.07-.01-.1-.02-.16-.03-.34-.06-.54-.1-.06-.01-.13-.03-.2-.04-.2-.04-.42-.08-.65-.13-.07-.01-.16-.03-.23-.05-.27-.05-.54-.11-.84-.17-.05-.01-.12-.03-.17-.03-.33-.07-.68-.14-1.05-.22-.07-.01-.14-.03-.2-.05-.41-.08-.84-.18-1.31-.27,0,0-.02,0-.03,0-.48-.11-.99-.22-1.53-.33-.03,0-.06-.01-.1-.02-1.4-.31-2.98-.66-4.73-1.06-.05-.01-.1-.02-.14-.03-.67-.15-1.37-.31-2.08-.48-.1-.02-.19-.04-.29-.07-.72-.16-1.45-.34-2.21-.52-.06-.01-.13-.03-.2-.05-.8-.19-1.64-.4-2.5-.61-.03,0-.07-.01-.1-.03-4.53-1.11-9.75-2.45-15.58-4.04-.08-.02-.17-.05-.26-.07-1.06-.29-2.15-.59-3.25-.9-.14-.03-.27-.07-.4-.11-1.08-.3-2.18-.61-3.3-.93-.14-.04-.27-.08-.41-.12-1.15-.33-2.32-.67-3.51-1.01-.1-.03-.2-.06-.31-.09-4.73-1.38-9.77-2.89-15.06-4.55-1.98-.63-4-1.27-6.06-1.93-.19-.06-.39-.13-.58-.19-.2-.06-.39-.12-.59-.19-.12-.03-.23-.07-.35-.11-.98-.32-1.97-.64-2.96-.97-.28-.1-.56-.19-.84-.28-.17-.06-.35-.12-.52-.18-.09-.03-.17-.05-.26-.08-.1-.03-.2-.07-.3-.1-.82-.27-1.65-.55-2.49-.83-.12-.04-.22-.07-.34-.12-.07-.03-.16-.05-.23-.07-.19-.07-.37-.13-.56-.19-.83-.28-1.67-.57-2.51-.85-.46-.16-.93-.31-1.4-.48-.28-.1-.56-.19-.84-.29-.76-.26-1.51-.52-2.27-.79-.07-.02-.14-.05-.21-.07-.32-.12-.65-.23-.97-.34-.18-.07-.37-.13-.55-.2-.09-.03-.18-.06-.26-.09-.18-.07-.37-.13-.54-.19-1.89-.67-3.8-1.35-5.73-2.04v-144.04l-54.58,99.73c-3.87,7.06-10.09,12.01-17.15,14.43-.19-.09-.37-.18-.57-.27-.07-.03-.14-.07-.22-.1-3.97-1.9-7.97-3.85-12.01-5.86-.03-.01-.05-.03-.08-.04-3.33-1.66-6.67-3.36-10.02-5.11-.06-.03-.12-.05-.17-.09-1.91-.99-3.82-1.99-5.73-3.01-.03-.01-.06-.03-.09-.05-.3-.16-.59-.31-.89-.47-.24-.13-.48-.25-.72-.38-2.95-1.57-5.91-3.18-8.88-4.82,0,0-.01,0-.02-.01-.1-.05-.19-.1-.29-.16-2.31-7.67-1.66-16.22,2.49-23.8l59.79-109.24c14.55-26.59,39.57-45.25,68.34-52.01.53-.13,1.06-.25,1.59-.36,7.33-1.61,14.89-2.44,22.57-2.44h40.41c-4.21,0-8.33-.4-12.31-1.18-1.05-.2-2.08-.43-3.11-.69h0c-1.02-.25-2.04-.52-3.04-.82-26.62-7.93-46.02-32.61-46.02-61.81,0-19.88,9-37.65,23.13-49.48.8-.68,1.61-1.33,2.45-1.95.84-.64,1.69-1.25,2.56-1.85,10.34-7.08,22.86-11.21,36.35-11.21,18.11,0,34.47,7.46,46.18,19.48.72.74,1.42,1.48,2.09,2.25.69.76,1.35,1.55,1.98,2.34,8.91,11.05,14.25,25.12,14.25,40.42,0,23.21-12.26,43.55-30.65,54.91-.86.54-1.75,1.06-2.64,1.55-.89.5-1.8.97-2.72,1.42-8.59,4.24-18.26,6.62-28.48,6.62h40.41c11.42,0,22.58,1.85,33.09,5.32,1.54.51,3.06,1.06,4.57,1.63,23.01,8.79,42.62,25.53,54.83,47.86l59.8,109.24c7.59,13.87,3.46,30.99-9.05,39.99Z"/>
          <path class="cls-5" d="M409.16,504.47l-.08,2.81c.53-.13,1.06-.25,1.59-.36l-1.51-2.44Z"/>
        </g>
      </g>
    </g>
  </g>
</svg>