<?xml version="1.0" encoding="UTF-8"?>
<svg id="Layer_2" data-name="Layer 2" xmlns="http://www.w3.org/2000/svg" viewBox="0 0 999.17 661.88">
  <defs>
    <style>
      .cls-1 {
        fill: #fff;
      }
    </style>
  </defs>
  <g id="Layer_1-2" data-name="Layer 1">
    <g>
      <path class="cls-1" d="M984.83,64.62c7.91,0,14.34-14.46,14.34-32.3s-6.42-32.32-14.34-32.32H149.67c-7.92,0-14.33,14.48-14.33,32.32s6.41,32.3,14.33,32.3h32.67v-32.3h772.6v32.3h29.89Z"/>
      <path class="cls-1" d="M999.17,593.37c0,7.92-6.42,14.34-14.34,14.34H389.18v54.17H0v-58.44c0-66.51,53.95-120.44,120.47-120.44h148.28c58.18,0,106.67,41.24,117.97,96.06.95,4.67,1.54,9.47,1.95,14.33h566.27v-14.33h29.89c7.92,0,14.34,6.42,14.34,14.33Z"/>
      <path class="cls-1" d="M954.94,32.32v561.06H388.68c-.41-4.85-1-9.65-1.95-14.33h531.18V64.62H219.36v152.52c-8-1.57-16.28-2.43-24.75-2.43-4.14,0-8.21.23-12.28.62V32.32h772.61Z"/>
      <path class="cls-1" d="M322.7,342.81c0,62.28-44.45,114.13-103.34,125.68-8,1.57-16.28,2.45-24.75,2.45-4.14,0-8.21-.25-12.28-.63-65.01-6.17-115.82-60.87-115.82-127.5s50.81-121.31,115.82-127.48c4.07-.38,8.14-.62,12.28-.62,8.47,0,16.74.87,24.75,2.43,58.9,11.55,103.34,63.39,103.34,125.67Z"/>
      <rect class="cls-1" x="377.28" y="349.35" width="124.49" height="117.13"/>
      <rect class="cls-1" x="555.67" y="242.16" width="124.51" height="224.32"/>
      <polygon class="cls-1" points="858.57 376.26 858.57 352.62 768.58 466.48 787.23 466.48 858.57 376.26"/>
      <polygon class="cls-1" points="858.57 346.53 858.57 322.87 745.02 466.48 763.72 466.48 858.57 346.53"/>
      <polygon class="cls-1" points="752.56 123.7 734.09 123.7 734.09 147.06 752.56 123.7"/>
      <polygon class="cls-1" points="858.57 197.8 858.57 174.16 734.09 331.62 734.09 355.26 858.57 197.8"/>
      <polygon class="cls-1" points="858.57 227.54 858.57 203.91 734.09 361.36 734.09 384.99 858.57 227.54"/>
      <polygon class="cls-1" points="740.19 466.48 858.57 316.77 858.57 293.14 734.09 450.59 734.09 466.48 740.19 466.48"/>
      <polygon class="cls-1" points="858.57 168.06 858.57 144.43 734.09 301.88 734.09 325.51 858.57 168.06"/>
      <polygon class="cls-1" points="858.57 287.03 858.57 263.4 734.09 420.86 734.09 444.49 858.57 287.03"/>
      <polygon class="cls-1" points="734.09 176.8 776.07 123.7 757.38 123.7 734.09 153.16 734.09 176.8"/>
      <polygon class="cls-1" points="858.57 257.29 858.57 233.65 734.09 391.09 734.09 414.74 858.57 257.29"/>
      <polygon class="cls-1" points="734.09 236.29 823.13 123.7 804.44 123.7 734.09 212.66 734.09 236.29"/>
      <polygon class="cls-1" points="858.57 435.74 858.57 412.11 815.57 466.48 834.29 466.48 858.57 435.74"/>
      <polygon class="cls-1" points="858.57 465.49 858.57 441.86 839.1 466.48 857.79 466.48 858.57 465.49"/>
      <polygon class="cls-1" points="734.09 266.03 846.63 123.7 827.93 123.7 734.09 242.39 734.09 266.03"/>
      <polygon class="cls-1" points="858.57 405.99 858.57 382.37 792.08 466.48 810.76 466.48 858.57 405.99"/>
      <polygon class="cls-1" points="734.09 206.55 799.6 123.7 780.91 123.7 734.09 182.91 734.09 206.55"/>
      <polygon class="cls-1" points="734.09 295.76 858.57 138.32 858.57 123.7 851.46 123.7 734.09 272.14 734.09 295.76"/>
    </g>
  </g>
</svg>