<?xml version="1.0" encoding="UTF-8"?>
<svg id="Layer_2" data-name="Layer 2" xmlns="http://www.w3.org/2000/svg" viewBox="0 0 1207.1 810.81">
  <defs>
    <style>
      .cls-1 {
        fill: #fff;
      }
    </style>
  </defs>
  <g id="Layer_1-2" data-name="Layer 1">
    <g>
      <path class="cls-1" d="M1207.1,752.22v30.16c0,15.94-12.49,28.43-28.43,28.43H28.44c-15.94,0-28.44-12.49-28.44-28.43v-30.16h510.06l2.59,13.35c1.29,10.34,10.34,17.66,20.25,17.66h141.3c9.91,0,18.1-7.32,20.25-17.66l2.15-13.35h510.5Z"/>
      <g>
        <path class="cls-1" d="M1140.96,701.12V34.66c0-9.18-3.51-17.82-9.88-24.32-6.53-6.67-15.33-10.34-24.79-10.34H100.81c-9.18,0-17.82,3.51-24.33,9.88-6.67,6.53-10.34,15.33-10.34,24.79v667.31c0,9.18,3.5,17.82,9.87,24.32,6.53,6.67,15.33,10.34,24.79,10.34h1005.48c10.12,0,19.72-4.25,26.36-11.66,5.89-6.58,8.88-15.2,8.3-23.85ZM1091.65,687.32h-424.34v-14.65c0-120.2-97.79-217.55-217.55-217.55h-59.02c-120.2,0-217.55,97.79-217.55,217.55v14.65h-58.16V49.31h976.62v638.01Z"/>
        <path class="cls-1" d="M420.03,433.15c70.22,0,127.52-57.3,127.52-127.52s-57.3-127.52-127.52-127.52-127.52,57.29-127.52,127.52,57.3,127.52,127.52,127.52Z"/>
      </g>
      <path class="cls-1" d="M968.06,167.29c-34.88-30.52-81.31-47.33-130.71-47.33s-95.82,16.81-130.71,47.33c-34.73,30.39-53.86,70.74-53.86,113.64,0,33.27,11.55,65.2,33.39,92.35l1.27,1.57-.47,1.96c-4.34,18.19-7.44,36.8-9.2,55.31-.11,1.17.57,1.89.87,2.14.37.31,1.14.78,2.23.49l60.53-16.3,1.43.74c28.49,14.85,61.18,22.7,94.52,22.7,49.4,0,95.83-16.81,130.71-47.33,34.73-30.39,53.86-70.75,53.86-113.64s-19.13-83.25-53.86-113.64ZM837.35,300.4c-10.73,0-19.47-8.73-19.47-19.47s8.73-19.47,19.47-19.47,19.47,8.73,19.47,19.47-8.73,19.47-19.47,19.47ZM748.64,300.4c-10.73,0-19.47-8.73-19.47-19.47s8.73-19.47,19.47-19.47,19.47,8.73,19.47,19.47-8.73,19.47-19.47,19.47ZM926.05,300.4c-10.73,0-19.47-8.73-19.47-19.47s8.73-19.47,19.47-19.47,19.47,8.73,19.47,19.47-8.73,19.47-19.47,19.47Z"/>
    </g>
  </g>
</svg>