<?xml version="1.0" encoding="UTF-8"?>
<svg id="Layer_2" data-name="Layer 2" xmlns="http://www.w3.org/2000/svg" viewBox="0 0 703.25 838.67">
  <defs>
    <style>
      .cls-1 {
        fill: #fff;
      }
    </style>
  </defs>
  <g id="Layer_1-2" data-name="Layer 1">
    <path class="cls-1" d="M702.76,19.85c-.15-.75-.43-1.44-.64-2.16-.24-.82-.43-1.64-.76-2.44-.36-.86-.84-1.65-1.29-2.46-.33-.6-.59-1.22-.97-1.79-1.81-2.71-4.14-5.04-6.85-6.85-.59-.39-1.23-.66-1.84-1-.79-.44-1.56-.92-2.41-1.27-.8-.33-1.64-.52-2.47-.77-.71-.21-1.4-.49-2.14-.63-1.59-.32-3.21-.49-4.83-.49h-106.71c-13.63,0-24.68,11.05-24.68,24.68s11.05,24.68,24.68,24.68h47.13l-122.51,122.51c-39.65-32.01-90.05-51.22-144.86-51.22s-105.19,19.23-144.84,51.24l-40.5-40.5,39.51-39.51c9.64-9.63,9.64-25.26,0-34.9-9.63-9.64-25.27-9.64-34.9,0l-39.51,39.51-47.14-47.14h47.14c13.63,0,24.68-11.05,24.68-24.68S145.02,0,131.39,0H24.68c-.1,0-.21,0-.31,0-.3,0-.6,0-.9.02-.23.01-.47.03-.7.05-.17.01-.33.02-.5.04-.27.03-.54.06-.81.1-.13.02-.25.03-.38.05-.29.04-.57.09-.85.14-.11.02-.22.04-.33.06-.28.06-.57.12-.85.19-.11.03-.22.05-.33.08-.27.07-.54.14-.81.22-.12.03-.24.07-.36.1-.25.08-.51.16-.76.24-.13.04-.27.09-.4.14-.23.08-.46.17-.69.26-.15.06-.31.12-.46.18-.2.08-.41.17-.61.26-.17.08-.34.15-.51.23-.18.09-.36.18-.54.27-.18.09-.36.18-.54.28-.17.09-.33.19-.5.28-.18.1-.37.21-.55.32-.17.1-.33.2-.49.31-.17.11-.35.22-.52.33-.18.12-.36.25-.54.37-.15.1-.29.2-.44.31-.23.17-.45.34-.67.52-.09.07-.18.14-.27.21-1.28,1.05-2.46,2.23-3.51,3.51-.06.07-.11.15-.17.22-.19.24-.38.48-.56.73-.09.13-.18.26-.28.39-.14.2-.28.39-.41.59-.1.16-.2.32-.3.47-.11.18-.23.36-.34.54-.1.17-.2.34-.29.51-.1.18-.21.36-.3.54-.09.17-.17.34-.26.51-.1.19-.19.38-.29.58-.07.16-.14.32-.22.48-.09.21-.19.43-.28.64-.06.14-.11.29-.17.43-.09.24-.18.47-.27.71-.05.13-.09.26-.13.38-.09.26-.17.51-.25.77-.03.11-.06.23-.1.34-.08.27-.15.55-.22.82-.03.11-.05.22-.07.32-.07.28-.13.56-.19.85-.02.11-.04.22-.06.34-.05.28-.1.56-.14.84-.02.13-.03.27-.05.4-.03.26-.07.52-.09.79-.02.18-.03.36-.04.55-.02.22-.04.43-.05.65-.02.34-.02.68-.03,1.02,0,.06,0,.13,0,.19v106.71c0,13.63,11.05,24.68,24.68,24.68s24.68-11.05,24.68-24.68v-47.13l47.13,47.14-39.5,39.5c-9.64,9.64-9.64,25.26,0,34.9,4.82,4.82,11.13,7.23,17.45,7.23s12.63-2.41,17.45-7.23l39.5-39.5,40.5,40.5c-32.01,39.65-51.24,90.03-51.24,144.84,0,118.99,90.44,217.24,206.2,229.64v136.39h-55.86c-13.63,0-24.68,11.05-24.68,24.68s11.05,24.68,24.68,24.68h55.86v46.98c0,13.63,11.05,24.68,24.68,24.68s24.68-11.05,24.68-24.68v-46.98h55.87c13.63,0,24.68-11.05,24.68-24.68s-11.05-24.68-24.68-24.68h-55.87v-136.37c115.85-12.31,206.39-110.61,206.39-229.66,0-54.81-19.2-105.21-51.22-144.86l122.51-122.51v47.13c0,13.63,11.05,24.68,24.68,24.68s24.68-11.05,24.68-24.68V24.68c0-1.62-.17-3.24-.49-4.83ZM351.62,533.24c-100.14,0-181.61-81.47-181.61-181.61s81.47-181.62,181.61-181.62,181.62,81.47,181.62,181.62-81.47,181.61-181.62,181.61Z"/>
  </g>
</svg>