<?xml version="1.0" encoding="UTF-8"?>
<svg id="Layer_2" data-name="Layer 2" xmlns="http://www.w3.org/2000/svg" viewBox="0 0 142.1 142.1">
  <defs>
    <style>
      .cls-1 {
        fill: #fff;
      }
    </style>
  </defs>
  <g id="Layer_1-2" data-name="Layer 1">
    <g>
      <path class="cls-1" d="M102.93,0h-63.76C17.54,0,0,17.54,0,39.17v63.76c0,21.63,17.54,39.17,39.17,39.17h63.76c21.63,0,39.17-17.54,39.17-39.17v-63.76C142.1,17.54,124.57,0,102.93,0ZM130.62,102.77c0,15.38-12.47,27.85-27.85,27.85h-63.43c-15.38,0-27.85-12.47-27.85-27.85v-63.43c0-15.38,12.47-27.85,27.85-27.85h63.43c15.38,0,27.85,12.47,27.85,27.85v63.43Z"/>
      <path class="cls-1" d="M71.05,33.6c-20.68,0-37.45,16.77-37.45,37.45s16.77,37.45,37.45,37.45,37.45-16.77,37.45-37.45-16.77-37.45-37.45-37.45ZM71.05,95.48c-13.49,0-24.43-10.94-24.43-24.43s10.94-24.43,24.43-24.43,24.43,10.94,24.43,24.43-10.94,24.43-24.43,24.43Z"/>
      <circle class="cls-1" cx="109.77" cy="32.36" r="8.4"/>
    </g>
  </g>
</svg>