<?xml version="1.0" encoding="UTF-8"?>
<svg id="Layer_2" data-name="Layer 2" xmlns="http://www.w3.org/2000/svg" viewBox="0 0 142.1 142.1">
  <defs>
    <style>
      .cls-1 {
        fill: #fff;
      }
    </style>
  </defs>
  <g id="Layer_1-2" data-name="Layer 1">
    <path class="cls-1" d="M75.3,65.82h.11v-.17c-.03.06-.08.11-.11.17ZM75.3,65.82h.11v-.17c-.03.06-.08.11-.11.17ZM126.01,0H16.09C7.24,0,0,7.24,0,16.09v109.93c0,8.84,7.24,16.08,16.09,16.08h109.92c8.85,0,16.09-7.24,16.09-16.08V16.09c0-8.85-7.24-16.09-16.09-16.09ZM48.34,110.65h-17.43v-52.43h17.43v52.43ZM39.88,49.4c-4.95,0-8.97-4.02-8.97-8.97s4.02-8.98,8.97-8.98,8.98,4.02,8.98,8.98-4.02,8.97-8.98,8.97ZM111.19,110.65h-17.43v-28.05c0-7.05-2.52-11.86-8.83-11.86-4.82,0-7.68,3.24-8.94,6.38-.46,1.12-.58,2.67-.58,4.25v29.28h-17.43s.23-47.51,0-52.43h17.43v7.43c2.32-3.57,6.45-8.66,15.71-8.66,11.47,0,20.07,7.49,20.07,23.59v30.07ZM75.41,65.82v-.17c-.03.06-.08.11-.11.17h.11ZM75.3,65.82h.11v-.17c-.03.06-.08.11-.11.17ZM75.3,65.82h.11v-.17c-.03.06-.08.11-.11.17Z"/>
  </g>
</svg>