<?xml version="1.0" encoding="UTF-8"?>
<svg id="Layer_1" xmlns="http://www.w3.org/2000/svg" xmlns:xlink="http://www.w3.org/1999/xlink" version="1.1" viewBox="0 0 213.63 49.89">
  <!-- Generator: Adobe Illustrator 30.0.0, SVG Export Plug-In . SVG Version: 2.1.1 Build 123)  -->
  <defs>
    <style>
      .st0 {
        mask: url(#mask);
      }

      .st1 {
        fill: #70309e;
      }

      .st2 {
        fill: #f56428;
      }

      .st3 {
        fill: #fff;
      }

      .st4 {
        fill: #161616;
      }
    </style>
    <mask id="mask" x="164.6" y="-.68" width="49.57" height="49.12" maskUnits="userSpaceOnUse">
      <path class="st3" d="M194.39,1.7c-.3.3-.6.61-.9.91-.11.12-.22.24-.33.36-.12.14-.23.28-.35.42-.23.29-.47.57-.7.86-.3.43-.68.83-1.01,1.27-.2.22-.4.44-.61.67-.23.3-.51.58-.81.87-.1.1-.21.2-.31.3-.22.2-.45.39-.67.59-.73.5-1.37,1.28-2.11,1.77-.35.24-.69.47-1.04.71-.14.11-.28.22-.42.33-.2.14-.51.35-.61.49,0,.03.01.05.02.08.01,0,.03.01.04.02.34-.18.66-.46,1.02-.69.5-.33.95-.69,1.47-1.04.29-.25.58-.5.87-.75.32-.25.63-.51.95-.76l.26-.24c.56-.38,1.29-1.12,1.64-1.61.21-.23.43-.47.64-.7.51-.65,1.03-1.29,1.54-1.94.24-.27.48-.54.72-.81.12-.12.23-.23.35-.35.15-.15.3-.3.45-.45.24-.28.48-.55.72-.83.21-.27.42-.55.63-.82l-.2-.21c-.2.26-.4.53-.59.79-.22.26-.44.52-.65.77ZM199.27,5.29c-.25.5-.53,1-.82,1.51-.26.48-.47.94-.84,1.43-.35.47-.89.75-1.27,1.15-.15.16-.41.31-.46.49.02.03.03.05.06.07.15.02.33-.2.48-.3.27-.21.55-.43.82-.64.11-.11.23-.22.34-.32.48-.38.75-.99.96-1.44.21-.37.42-.74.63-1.11.25-.46.44-.96.82-1.41l-.23-.24s0,.01,0,.02c-.12.27-.38.53-.52.79ZM173.59,19.74c.24-.2.47-.41.71-.61.23-.21.46-.41.68-.62.33-.31.65-.63.98-.94.14-.14.28-.28.42-.43.31-.4.7-.75.97-1.13l-5.16,4.92c.39-.22.73-.66,1.12-.93.09-.09.19-.18.28-.27ZM167.45,26.5c.69-.55,1.37-1.11,2.06-1.66.09-.09.18-.18.28-.26.26-.25.52-.5.77-.75.66-.63,1.39-1.4,2.08-1.9.29-.27.59-.53.88-.8.47-.38.93-.77,1.4-1.15.41-.28.72-.58,1.12-.96.16-.16.36-.32.49-.49.15-.16.29-.31.44-.47.64-.86,1.33-1.65,1.92-2.5.2-.26.41-.52.61-.79.56-.83,1.09-1.6,1.7-2.43l-.98.93s0,0,0,0c-.25.37-.49.74-.74,1.1-.44.58-.87,1.17-1.31,1.75-.44.64-.99,1.21-1.48,1.86-.21.22-.41.44-.62.66-.11.1-.21.2-.32.3-.07.06-.13.13-.2.19-.28.23-.56.45-.84.68-.53.45-1.06.9-1.59,1.35-.23.2-.46.41-.68.61-.69.48-1.44,1.3-2.13,1.96-.25.24-.49.55-.78.74-.06.06-.12.12-.19.18-.66.53-1.31,1.06-1.97,1.59-.52.35-.99.61-1.51.95-.45.3-.86.79-1.27,1.18l.15.16c.44-.43.89-.92,1.36-1.22.45-.3.88-.53,1.35-.83ZM168.91,24.62c.07-.07.15-.14.22-.21.53-.37.88-.92,1.4-1.33.38-.36.77-.71,1.15-1.07l.36-.31c.41-.31.82-.61,1.23-.92.14-.12.28-.24.42-.35.14-.13.28-.26.41-.39.33-.29.67-.58,1-.87.14-.13.28-.27.42-.4.35-.33.72-.66.99-1.02.1-.11.2-.21.3-.32.27-.36.59-.66.84-1.01.54-.79,1.18-1.55,1.75-2.34l-1.08,1.03c-.33.45-.66.9-.99,1.35-.25.29-.49.58-.74.87-.37.39-.74.77-1.11,1.16-.18.18-.37.35-.55.53-.27.24-.55.48-.82.72-.22.2-.43.41-.65.61-.12.1-.23.19-.35.29-.35.25-.71.51-1.06.76-.17.15-.34.29-.51.44-.28.27-.57.54-.85.8-.11.1-.21.19-.32.29-.22.15-.54.48-.7.69-.19.17-.38.35-.57.52-.28.25-.56.5-.84.75-.14.11-.27.23-.41.34-.18.13-.36.25-.54.38l-1.17,1.12c.52-.32,1.07-.77,1.61-1.13.41-.27.75-.69,1.17-.98ZM198.24,4.47c-.16.25-.32.5-.49.75-.2.22-.4.44-.61.67-.28.38-.56.77-.85,1.15-.18.23-.6.65-.85.82-.11.1-.22.2-.33.3-.89,1.16-2.37,2.02-3.43,2.63-.34.25-.69.5-1.03.75-.44.27-.89.47-1.33.68-.15.07-.72.32-.75.47.01.01.02.03.03.04.27,0,.55-.2.83-.31.51-.21,1.01-.47,1.52-.79.25-.19.5-.37.75-.56.23-.13.47-.27.7-.4.51-.29.93-.63,1.43-.95.5-.32,1.13-.87,1.52-1.39.09-.08.18-.17.27-.25.14-.13.27-.25.41-.38l.43-.42c.3-.4.56-.76.84-1.15.23-.25.47-.51.7-.76.36-.5.69-1.08,1.12-1.59l-.21-.22c-.11.15-.21.29-.32.44-.12.15-.24.31-.36.46ZM197.11,7.9c-.13.14-.26.27-.39.41-.1.09-.2.18-.3.26-.22.21-.44.42-.67.64-.56.74-1.23,1.62-2.09,2.19-.72.48-1.36.85-2.07,1.28-.51.31-.99.71-1.5.96-.55.27-1.09.32-1.65.56-.48.21-.94.49-1.43.77-.1.06-.44.22-.5.35-.01.04,0,.05.02.09.2.03.49-.21.69-.32.53-.27,1.05-.59,1.58-.78.47-.17.94-.23,1.41-.46.28-.14.53-.35.82-.52.44-.28.88-.55,1.31-.83.48-.27.95-.54,1.46-.87.28-.18.48-.44.78-.64.17-.16.34-.32.51-.48.35-.46.71-.9,1.04-1.3.15-.13.31-.27.46-.4.32-.22.76-.72.95-.99.85-1.21,1.04-2.36,2-3.57l-.21-.22c-.86.96-1.05,2.02-1.6,2.99-.17.31-.4.59-.63.89ZM191.91,11.29c-.16.12-.33.25-.49.37-.44.29-.84.57-1.27.75-.63.26-1.28.46-1.91.72-.68.28-1.34.84-2,1.23-.45.27-.87.71-1.33,1.02-.13.09-.43.35-.45.46.03.03.04.03.07.04.53-.27,1-.77,1.55-1.13.67-.44,1.35-.94,2.04-1.29.72-.36,1.48-.56,2.21-.87.39-.17.76-.42,1.14-.67.18-.13.35-.26.53-.4.26-.16.52-.31.78-.47.23-.16.46-.33.69-.49.22-.14.43-.29.64-.49,0-.04,0-.08-.04-.11-.12-.07-.57.3-.73.4-.49.32-.97.64-1.44.92ZM195.2,2.54c-.09.09-.17.18-.26.27-.42.55-1.06,1-1.44,1.53-.17.21-.34.43-.51.64-.64.92-1.52,1.88-2.46,2.78-.23.22-.49.42-.73.58-.16.13-.33.27-.49.4-.32.21-.62.44-.93.64-.28.18-.52.42-.81.62-.25.17-.47.39-.71.52-.09.05-.31.13-.36.24-.02.06.03.09.08.1.21-.1.44-.19.67-.33.44-.28.83-.68,1.25-.95.31-.19.61-.4.92-.61.16-.13.32-.26.48-.4.42-.28,1.1-.83,1.45-1.29.19-.19.38-.37.57-.56.15-.16.29-.32.44-.48.43-.55.86-1.1,1.29-1.65.13-.15.26-.3.39-.44.41-.55,1.07-.99,1.48-1.54.2-.24.39-.48.59-.72.18-.23.36-.47.54-.71l-.21-.22c-.15.2-.3.4-.45.6-.26.32-.52.64-.79.96ZM195.97,6.35c-.26.36-.63.68-.99,1.02-.12.12-.25.24-.37.36-.16.18-.33.35-.49.53-.13.17-.35.42-.55.55-.34.26-.68.53-1.02.79-.32.22-.62.41-.94.61-.37.26-.73.52-1.1.79-.53.33-1.03.57-1.56.87-.26.15-.49.35-.75.52-.25.2-.5.4-.75.6-.53.33-1.07.66-1.6.99-.21.16-.41.33-.62.49-.33.23-1.07,1.04-1.07,1.27.03.03.05.03.08.02.12-.04.29-.28.37-.39.16-.2.4-.43.6-.57.13-.11.26-.23.39-.34.69-.47,1.31-.84,1.98-1.27.34-.22.63-.55.97-.78.69-.46,1.32-.74,1.99-1.14.38-.27.76-.54,1.14-.81.39-.24.76-.49,1.17-.76.33-.25.66-.5.98-.76.23-.16.47-.44.62-.63.17-.18.34-.36.52-.55.1-.1.21-.19.31-.29.33-.32.66-.59.91-.93.4-.55.95-1.07,1.36-1.64.39-.51.78-1.02,1.17-1.54l-.22-.23c-.41.54-.82,1.09-1.22,1.63-.4.55-.93,1.05-1.32,1.57ZM196.32,4.04c-.28.29-.56.59-.84.88-.56.66-1.12,1.31-1.68,1.97l-.5.55c-.18.23-.47.5-.7.66-.1.09-.2.19-.3.28-.24.17-.41.41-.63.55-.29.21-.58.42-.88.63-.17.13-.34.26-.51.4-.35.22-.7.41-1.04.6-.32.18-.62.43-.95.63-.53.33-1.06.63-1.61.99-.24.15-.83.61-.88.86.04.04.05.03.08.04.18-.11.36-.3.55-.43.4-.27.75-.56,1.16-.79.3-.18.59-.35.89-.53.22-.15.45-.31.67-.46.43-.25.87-.48,1.31-.75.17-.14.35-.27.52-.41.35-.25.7-.5,1.05-.75.19-.17.37-.34.56-.51l.56-.51c.42-.4.84-.82,1.16-1.26.14-.15.27-.3.41-.44.28-.34.57-.67.85-1.01.25-.33.63-.58.89-.92.28-.35.57-.7.85-1.05.2-.27.43-.48.58-.75l-.21-.22c-.14.19-.28.38-.42.57-.32.39-.64.78-.96,1.18ZM169.87,31.16c.23-.3.51-.68.86-.93.4-.28.77-.68,1.19-.97.51-.35.98-.72,1.52-1.09.2-.14.62-.46.78-.67.37-.47.73-.86,1.06-1.32l.49-.53c.1-.1.21-.2.31-.3.14-.19.4-.41.59-.54.09-.08.17-.17.26-.25.24-.23.48-.47.66-.72.16-.17.31-.35.47-.52.26-.34.69-.61.76-.95-.03-.04-.05-.04-.08-.05-.15.11-.36.32-.49.49-.16.15-.31.31-.47.46-.31.35-.62.7-.93,1.05-.11.09-.21.19-.32.28-.35.34-.7.67-1.06,1.01l-.35.37c-.28.36-.56.71-.84,1.07-.09.1-.18.19-.27.29-.17.23-.53.49-.73.63-.17.14-.35.28-.52.41-.36.25-.72.49-1.08.74-.17.15-.34.29-.51.44-.58.4-1.18.98-1.62,1.56-.41.39-.83.78-1.24,1.16l.16.16c.34-.31.67-.62,1.01-.93.13-.13.26-.25.38-.38ZM169.28,29.21c.36-.35.72-.69,1.09-1.04.52-.68,1.23-1.23,1.87-1.67.45-.31.77-.81,1.2-1.11.52-.36.94-.7,1.46-1.04.23-.2.46-.39.69-.59.48-.47.97-.94,1.45-1.41.42-.29.79-.71,1.2-1.08.25-.23.57-.48.77-.74.29-.35.59-.7.88-1.05.35-.35.69-.69,1.04-1.04.27-.25.54-.5.81-.75.19-.13.37-.37.49-.53.15-.18.3-.35.44-.53.53-.73.87-1.39,1.4-2.13.37-.51,1-.91,1.4-1.43.21-.27.45-.51.68-.8l.26-.27c.52-.36.95-.52,1.46-.81.34-.24.68-.47,1.02-.71.39-.23.78-.47,1.17-.7.19-.15.38-.29.56-.44.23-.16.47-.32.7-.49.35-.24.59-.61.97-.88.19-.14.48-.41.63-.61.14-.14.28-.28.41-.43.24-.29.49-.59.73-.88.38-.45.76-.89,1.14-1.34.24-.25.48-.5.72-.75.15-.16.3-.32.44-.49.37-.49.84-.91,1.11-1.41l-.21-.22c-.21.28-.41.56-.62.85-.23.27-.45.53-.68.8-.24.24-.47.49-.71.73-.39.51-.86.9-1.22,1.4-.35.48-.79.9-1.17,1.4-.17.17-.33.33-.5.5-.26.25-.52.5-.78.74-.11.1-.22.2-.33.3-.31.23-.63.45-.94.68-.15.12-.31.24-.46.36-.4.25-.8.5-1.2.74-.29.21-.58.41-.88.62-.22.13-.43.26-.66.35-.34.14-.8.32-1.13.76-.23.28-.47.55-.7.83-.1.11-.2.21-.3.32-.09.08-.18.17-.27.25-.28.27-.54.47-.74.74-.49.67-.85,1.27-1.26,1.91-.28.35-.56.71-.84,1.06-.3.29-.59.57-.89.86-.29.29-.59.59-.88.89-.15.12-.35.27-.48.45-.75.99-1.83,2.06-2.89,2.89-.33.33-.66.66-1,.99-.09.09-.18.17-.27.26-.25.21-.5.42-.74.62-.43.3-.86.61-1.29.91-.23.21-.46.41-.69.62-.13.13-.26.26-.39.38-.13.11-.26.22-.39.33-.28.19-.58.43-.83.61-.21.15-.4.37-.54.55-.18.19-.36.37-.53.56-.32.3-.64.6-.97.9-.25.27-.49.55-.74.82-.33.43-.77.85-1.19,1.25l.16.17c.68-.68,1.39-1.35,1.94-2.06ZM168.54,30.82c.29-.27.58-.54.88-.81.24-.32.53-.58.78-.92.36-.34.72-.68,1.07-1.01.25-.23.5-.47.75-.7l.47-.41c.37-.34.73-.68,1.1-1.02.23-.23.53-.41.77-.56l.52-.39c.23-.19.46-.39.69-.58.41-.28.94-.68,1.26-1.1.14-.15.28-.3.43-.45.16-.16.32-.33.48-.49.15-.14.3-.27.45-.41.2-.19.4-.37.6-.56.26-.25.52-.51.78-.76.23-.25.47-.5.7-.75.1-.11.21-.23.31-.34.24-.32.62-.74.99-.99.11-.11.23-.21.34-.32.08-.08.16-.15.24-.23.26-.25.49-.5.68-.76.16-.18.33-.37.49-.55.16-.21.32-.41.41-.62.09-.2.14-.42.25-.62.15-.27.37-.48.58-.75.11-.14.27-.34.44-.46l.53-.42c.47-.28.92-.55,1.41-.86.52-.38,1.05-.75,1.57-1.13.65-.39,1.28-.7,1.92-1.09.32-.19.58-.45.91-.66.32-.22.64-.44.96-.66.24-.19.48-.38.72-.56.38-.26.96-.85,1.22-1.2.15-.15.29-.31.44-.46.17-.17.34-.34.52-.51.41-.47.82-.94,1.23-1.41.19-.2.39-.4.58-.61.2-.24.39-.48.59-.72.24-.34.49-.69.73-1.03l-.2-.21c-.15.22-.31.43-.46.65-.23.34-.51.65-.77.99-.19.2-.38.4-.57.6-.46.53-.92,1.06-1.39,1.59-.19.19-.39.39-.58.58-.14.15-.29.31-.43.46-.19.25-.53.63-.81.83-.25.21-.49.41-.74.62-.63.46-1.25.91-1.88,1.37-.77.48-1.48.86-2.25,1.33-.38.23-.71.55-1.1.8-.35.23-.7.46-1.04.69-.47.26-1.05.54-1.52,1.11-.27.34-.63.71-.83,1.07-.15.28-.22.56-.4.84-.33.53-.86.95-1.24,1.47-.43.4-.86.8-1.29,1.21-.26.28-.53.57-.79.85-.52.68-1.25,1.28-1.87,1.92-.56.58-1.26,1.09-1.71,1.69-.09.08-.18.15-.27.23-.27.18-.47.41-.71.57-.24.2-.48.4-.73.61-.36.26-.72.51-1.08.77-.36.34-.72.68-1.08,1.01-.54.38-1.05.93-1.6,1.44-.62.58-1.28,1.18-1.72,1.77-.21.28-.54.49-.79.74-.3.32-.6.64-.9.96l.16.17c.29-.28.59-.55.82-.85ZM184.05,13.42c-.38.37-.62.74-.86,1.11-.25.38-.51.77-.76,1.15-.36.46-.72.92-1.08,1.38-.17.23-.45.52-.7.69-.26.18-.46.48-.59.69-.08.12-.16.22-.19.33,0,0,.02.02.03.03.03,0,.03.01.06,0,.05,0,.12-.09.17-.14.07-.09.15-.18.22-.27.36-.49.92-.83,1.27-1.31.31-.39.62-.78.92-1.17.45-.67.87-1.35,1.37-2.03.22-.22.44-.45.66-.67.2-.19.4-.39.6-.58.2-.14.44-.36.57-.55-.01-.04-.02-.06-.06-.08-.18.05-.31.22-.51.35-.35.24-.77.73-1.12,1.06ZM172.39,28.12c-.15.12-.57.42-.62.58,0,0,0,.01.01.02.01,0,.02.02.03.02.22,0,.48-.31.71-.46.28-.19.75-.6.97-.89.39-.36.78-.73,1.16-1.09.02-.05.05-.09.06-.14l-.04-.03c-.15-.05-.51.38-.68.5-.55.39-1.06,1.06-1.61,1.49ZM167.8,26.89c.81-.68,1.62-1.35,2.44-2.03.26-.24.53-.49.79-.73.53-.5,1.03-.94,1.58-1.46.34-.32.67-.72,1.05-.98.34-.27.67-.53,1.01-.8.63-.42,1.23-.95,1.87-1.55.31-.3.62-.58.86-.9.44-.59.88-1.13,1.27-1.72.24-.31.48-.63.72-.94.27-.34.55-.68.82-1.02.45-.67.83-1.31,1.32-1.99.26-.36.62-.66.92-1.03.16-.16.32-.32.49-.49.3-.36.61-.72.91-1.08.32-.28.65-.56.97-.84.48-.45.77-.84,1.11-1.3.18-.24.47-.43.68-.56.25-.19.49-.39.74-.58.45-.37.88-.88,1.17-1.29.26-.36.53-.69.85-1.02l-1.56,1.49c-.12.13-.25.26-.37.4-.12.12-.5.51-.65.58l-1.4,1.34c-.22.32-.58.73-.94.98-.14.12-.28.23-.42.35-.45.47-.89.92-1.29,1.44-.11.1-.21.21-.32.31-.27.28-.54.57-.82.85-.2.26-.4.52-.6.78-.34.54-.66,1.05-1.02,1.59-.39.5-.78.99-1.17,1.49-.5.7-1.04,1.41-1.55,2.07-.25.27-.5.54-.75.82-.15.14-.3.28-.45.41-.14.13-.28.25-.42.38-.35.24-.65.53-.98.75-.43.28-.78.67-1.21.97-.33.31-.66.63-.98.94-.79.73-1.58,1.46-2.37,2.19-.78.65-1.56,1.3-2.34,1.94-.49.33-.91.55-1.4.87-.47.3-.93.82-1.38,1.25l.16.16c.51-.5.95-.97,1.5-1.32.41-.26.77-.44,1.19-.72ZM169.66,30.63c.29-.35.58-.7.86-1.05.25-.24.49-.48.74-.72.25-.26.54-.57.82-.76.09-.08.18-.17.28-.25.48-.47.95-.94,1.43-1.41.18-.13.35-.26.53-.4.29-.18.54-.33.85-.54.27-.25.54-.51.81-.76.13-.11.25-.22.38-.33.32-.22.83-.74,1.05-1.03.23-.25.46-.5.69-.76.19-.25.55-.47.77-.61.19-.13.37-.33.56-.48.22-.23.44-.46.66-.69.23-.22.46-.43.7-.65.24-.29.48-.58.72-.87.13-.12.25-.23.38-.35.11-.1.21-.19.32-.29.23-.16.54-.43.73-.67.14-.16.28-.32.42-.49.2-.26.47-.61.78-.82.55-.37,1.09-.61,1.65-.98.26-.23.52-.46.78-.68.47-.32.88-.64,1.35-.87.38-.19.77-.36,1.14-.5.29-.1.59-.14.88-.26.27-.14.54-.29.81-.43.46-.26.88-.6,1.36-.89.39-.24.77-.46,1.18-.72.31-.2.59-.48.88-.69.09-.09.18-.18.28-.28.07-.07.15-.15.22-.22.17-.21.34-.43.51-.64.21-.3.54-.59.74-.86.24-.23.47-.46.71-.68.13-.14.26-.28.39-.43.22-.29.43-.58.6-.87.12-.2.3-.42.33-.63-.15-.17-.31.11-.41.26-.22.34-.46.67-.7,1.02-.13.14-.26.29-.4.43-.34.34-.67.68-1.01,1.03-.29.37-.58.73-.88,1.1-.14.16-.28.31-.43.47-.09.08-.19.16-.28.24-.19.15-.38.3-.57.45-.48.31-.88.59-1.34.86-.18.13-.36.27-.55.4-.5.32-1.01.65-1.52.86-.31.13-.64.17-.94.28-.38.14-.76.32-1.14.51-.48.24-.91.59-1.41.93-.27.23-.53.45-.8.68-.54.35-1.08.58-1.62.94-.34.23-.62.61-.82.89-.11.13-.22.26-.33.39-.43.57-1.18.93-1.62,1.51-.23.3-.48.54-.72.86-.22.21-.44.42-.67.64-.15.19-.51.59-.73.74-.14.11-.27.22-.41.33-.23.16-.51.36-.69.56-.62.69-1.31,1.52-2.07,2.07-.21.2-.42.4-.63.6-.12.1-.24.2-.36.3-.27.17-.53.33-.8.5-.19.12-.38.32-.55.43-.42.42-.84.84-1.26,1.26-.22.19-.43.38-.65.58-.22.15-.66.56-.82.77-.18.18-.36.36-.54.54-.31.37-.61.74-.92,1.11-.15.21-.57.55-.76.68-.22.21-.44.42-.67.64l.16.17c.34-.31.68-.61,1.02-.92.18-.17.35-.35.53-.52ZM166.89,28.72c.12-.13.24-.26.36-.39.27-.36.76-.95,1.17-1.23.15-.13.3-.27.46-.4.24-.23.49-.46.73-.7.18-.17.37-.33.55-.5.3-.25.6-.49.9-.74.39-.32.67-.69,1.08-.96.18-.16.36-.33.54-.49.14-.13.28-.26.42-.39.45-.36.9-.72,1.35-1.08.22-.19.44-.38.65-.57.47-.32,1.01-.75,1.41-1.17.31-.29.62-.59.93-.88.18-.21.36-.43.53-.64.48-.71.98-1.41,1.49-2.14.39-.56.92-1.06,1.29-1.6.43-.64.82-1.25,1.27-1.89.5-.72,1.29-1.37,1.82-2.08.14-.19.36-.37.54-.49.26-.18.47-.4.72-.56.27-.17.54-.31.83-.49.21-.13.49-.38.63-.53.2-.17.4-.34.6-.51.32-.25.63-.51.95-.76.14-.13.27-.26.41-.38.26-.18.54-.51.72-.75.22-.26.44-.52.65-.77.26-.3.53-.61.79-.92.55-.75,1.13-1.4,1.69-2.15.25-.27.5-.53.75-.8.08-.07.15-.14.23-.22.14-.14.28-.28.41-.43.34-.44.73-.83,1.02-1.26.09-.12.18-.24.26-.36l-.18-.19-.09.09c-.28.35-.57.72-.85,1.09-.28.38-.71.69-.99,1.06-.17.17-.34.35-.51.52-.23.28-.47.56-.7.83-.44.61-.92,1.16-1.38,1.79-.48.57-.95,1.13-1.43,1.7l-.47.5c-.17.16-.35.31-.52.47-.25.2-.5.4-.74.6-.12.1-.23.21-.35.31-.45.31-.81.77-1.25,1.02-.23.13-.46.24-.71.39-.28.18-.48.41-.77.61-.15.14-.29.28-.44.42-.57.76-1.41,1.48-1.94,2.23-.42.6-.79,1.18-1.19,1.78-.4.6-.97,1.13-1.38,1.73-.44.63-.88,1.27-1.33,1.9-.17.21-.34.42-.51.63-.11.11-.22.22-.32.33-.19.18-.38.37-.58.55-.17.15-.33.3-.5.45-.31.24-.62.48-.93.72-.15.13-.3.26-.46.39-.39.32-.78.63-1.18.95-.16.14-.32.28-.48.43l-.36.34c-.41.36-.82.71-1.22,1.07-.12.12-.25.24-.37.36-.11.09-.21.18-.32.27-.12.09-.23.18-.35.27-.21.18-.41.36-.62.54-.22.21-.44.42-.67.64-.3.26-.59.53-.89.79-.17.16-.33.32-.5.47-.52.68-1.21,1.34-1.92,1.94l.16.17c.25-.22.5-.45.76-.67l.31-.29ZM166.53,28.28c.24-.17.63-.44.82-.7,0-.03,0-.05,0-.08-.01,0-.02-.02-.03-.02-.15-.02-.36.21-.52.31-.51.33-1.02.91-1.49,1.35l.15.16c.35-.34.68-.75,1.07-1.02ZM168.23,29.42c.09-.09.17-.19.26-.28.12-.12.24-.24.36-.36.21-.2.41-.39.62-.59.19-.16.37-.32.56-.48.38-.37.76-.74,1.14-1.11.14-.12.29-.25.43-.37.29-.21.58-.42.87-.63.38-.34.76-.69,1.14-1.03.41-.3.82-.61,1.24-.91.15-.13.31-.25.46-.38.47-.45.93-.9,1.4-1.35.36-.25.64-.57,1.01-.83.26-.18.59-.47.8-.74.25-.33.55-.62.74-.95.27-.48.47-.93.82-1.42.22-.31.59-.52.83-.84.21-.27.42-.54.63-.81.25-.34.54-.61.75-.94.37-.58.77-1.13,1.17-1.72.18-.26.53-.77.85-.99.16-.13.33-.26.49-.39.51-.34.97-.69,1.48-.94.17-.08.35-.1.52-.14.26-.06.52-.19.77-.35.33-.25.67-.51,1-.76.38-.24.76-.48,1.14-.71.19-.15.38-.31.56-.46.44-.3.83-.63,1.26-1.04.3-.28.6-.56.9-.85.19-.21.37-.41.56-.62.37-.47.74-.95,1.12-1.42.18-.21.37-.42.55-.63.33-.33.66-.66.99-.99.37-.49.8-.91,1.12-1.38.1-.13.2-.26.3-.39l-.2-.21c-.16.21-.31.42-.47.63-.26.33-.53.65-.79.98-.23.31-.61.65-.88.89-.14.16-.28.31-.42.47-.26.34-.56.61-.8.94-.51.71-1.09,1.39-1.83,2.09-.27.26-.54.51-.8.77-.28.22-.56.44-.84.65-.11.1-.23.2-.34.3-.48.32-.91.6-1.38.91-.29.23-.59.46-.88.69-.21.12-.43.23-.64.28-.22.05-.43.07-.65.18-.68.33-1.3.84-1.97,1.32-.33.24-.58.6-.77.88-.47.67-.9,1.29-1.33,1.94-.45.57-.9,1.15-1.35,1.72-.24.32-.64.57-.86.88-.35.51-.57.99-.87,1.49-.18.31-.46.58-.69.88-.17.22-.44.44-.65.59-.38.31-.75.61-1.13.92-.37.36-.75.73-1.12,1.09-.17.14-.34.29-.51.43-.43.32-.86.63-1.29.95-.43.38-.85.77-1.28,1.15-.36.25-.67.53-1.06.79-.41.39-.81.78-1.22,1.18-.32.22-.6.5-.91.79-.14.13-.27.27-.41.4-.2.2-.41.4-.61.6-.39.52-.87.97-1.36,1.48l.16.16c.5-.47.96-.93,1.32-1.41ZM168.1,28.8c.22-.22.43-.44.65-.66.27-.23.53-.47.8-.7.19-.19.39-.37.58-.56.48-.4.95-.8,1.43-1.19.52-.4.94-1.04,1.51-1.43.66-.46,1.31-1,1.91-1.45.43-.32.75-.71,1.18-1.01.33-.23.63-.59.97-.83.26-.18.72-.51.94-.8.25-.33.53-.61.74-.94.16-.29.32-.59.48-.88.14-.2.27-.4.41-.6.44-.65,1.13-1.22,1.59-1.87.24-.32.48-.65.72-.97.26-.41.51-.81.79-1.22.3-.45.69-.83,1.04-1.29.28-.37.82-.59,1.13-.77.23-.17.46-.34.69-.51.32-.21.64-.42.96-.62.34-.21.63-.49.98-.73.11-.1.22-.2.33-.3.55-.42,1.09-.85,1.64-1.27.19-.16.39-.31.58-.47.3-.21.65-.59.86-.87.2-.21.4-.42.61-.63.33-.44.72-.84,1.02-1.26.33-.4.66-.81.98-1.21.12-.14.25-.27.37-.41.36-.37.71-.73,1.07-1.1.39-.49.79-.98,1.18-1.47l-.21-.22c-.29.38-.59.76-.88,1.13-.2.23-.39.45-.59.68-.24.24-.48.47-.71.71-.32.37-.64.74-.96,1.11-.38.52-.81.98-1.21,1.52-.21.28-.53.65-.78.88-.33.29-.58.73-.98,1-.7.48-1.25,1.08-1.95,1.56-.14.12-.27.24-.41.37-.36.25-.65.55-1,.76-.36.23-.71.46-1.07.69-.22.16-.43.32-.65.48-.35.21-.82.34-1.15.77-.33.43-.73.82-1.02,1.26-.3.44-.56.86-.83,1.29-.23.31-.46.62-.69.93-.44.63-1.11,1.18-1.53,1.81-.17.24-.34.49-.5.73-.17.31-.34.61-.51.92-.21.27-.42.54-.63.81-.36.48-.81.61-1.2,1.02-.39.41-.85.77-1.29,1.06l-.77.68c-.54.4-1.07.8-1.61,1.2-.1.09-.2.18-.3.27-.24.24-.55.48-.78.73-.17.19-.39.44-.6.58-.25.21-.5.43-.75.64-.27.18-.52.4-.78.64-.15.14-.29.28-.44.42l-.52.47c-.2.19-.4.38-.6.58-.18.18-.36.36-.54.55-.39.51-.9.96-1.41,1.45l.16.16c.57-.54,1.14-1.09,1.57-1.61ZM167.59,28.62c.14-.15.28-.31.43-.46.32-.3.64-.61.97-.91.45-.43.89-.86,1.34-1.17l.74-.64c.17-.17.33-.33.5-.5.16-.22.43-.42.63-.58.27-.21.5-.52.78-.71.51-.39,1.02-.77,1.53-1.16.33-.22.58-.57.9-.78.36-.24.69-.58,1.06-.84.11-.09.21-.19.32-.28.3-.21.84-.7,1.06-.99.2-.23.39-.47.59-.7.21-.31.36-.61.54-.92.27-.38.55-.77.82-1.15.36-.54.9-.98,1.27-1.51.5-.71.93-1.38,1.4-2.08.31-.47.74-.85,1.1-1.33.23-.22.46-.45.68-.67.29-.26.56-.6.88-.82.51-.35.95-.67,1.44-1,.23-.16.53-.43.69-.6.26-.27.59-.54.91-.76.16-.14.32-.27.48-.41.11-.1.22-.2.33-.3.35-.36.8-.7,1.08-1.08.32-.36.63-.73.95-1.09.49-.66,1.01-1.24,1.49-1.89.27-.37.66-.67.95-1.05.21-.21.41-.41.62-.62.17-.19.34-.38.51-.57.29-.39.61-.75.87-1.13l-.2-.21c-.19.25-.37.51-.56.76-.24.28-.47.56-.71.85-.36.37-.72.73-1.08,1.1-.24.28-.48.57-.72.85-.37.48-.74.96-1.11,1.44-.43.51-.86,1.02-1.3,1.53-.16.17-.31.34-.47.5-.16.15-.32.29-.47.44l-.34.31c-.26.21-.51.43-.77.64-.46.32-.83.82-1.28,1.12-.69.47-1.31.84-2.03,1.52-.17.17-.34.33-.51.5-.26.26-.52.52-.78.78-.31.42-.67.78-.95,1.2-.4.6-.78,1.18-1.19,1.79-.36.54-.91,1.01-1.29,1.56-.29.41-.63.81-.9,1.25-.2.31-.35.63-.57.94-.24.35-.64.68-.91,1.02-.18.22-.57.55-.77.69-.13.11-.26.23-.39.34-.35.27-.7.55-1.05.82-.2.18-.39.35-.59.53-.58.45-1.16.89-1.73,1.34-.43.4-.87.8-1.3,1.2-.16.16-.31.31-.47.47-.23.2-.45.39-.68.59-.48.33-.94.79-1.42,1.24-.38.35-.75.7-1.13,1.06-.5.65-1.08,1.18-1.74,1.81l.16.16c.51-.48,1.01-.91,1.4-1.44ZM186.78,7.67c-.4.27-.73.7-1.09,1.04-.12.11-.37.29-.33.41.01,0,.03.02.04.02.23-.08.49-.36.72-.57.34-.33.68-.66,1.06-.93.98-.67,1.77-1.65,2.41-2.52.23-.27.47-.55.7-.82.45-.58.91-1.17,1.36-1.75.26-.35.65-.65.9-.98.07-.09.13-.17.21-.25l-1.93,1.84c-.29.38-.59.76-.88,1.14-.3.35-.59.7-.89,1.05-.56.78-1.4,1.73-2.28,2.33ZM194.96,25.36c-.3.28-.62.54-.94.84-.11.1-.21.21-.32.31-.16.21-.33.4-.45.61-.26.46-.43.93-.64,1.4-.14.26-.28.52-.42.77-.19.4-.39.81-.56,1.2-.14.32-.27.62-.41.93-.08.18-.21.36-.21.55,0,0,.02.02.03.03.02,0,.04,0,.07.01.02-.01.03-.02.04-.03.11-.2.22-.4.33-.59.25-.56.51-1.12.76-1.68.18-.33.35-.65.53-.98.27-.59.46-1.17.83-1.74.32-.5.94-.96,1.42-1.42.21-.2.52-.45.6-.67-.01-.02-.03-.04-.04-.06-.02,0-.03-.01-.05,0-.13.04-.44.38-.58.52ZM206.66,14.39c-.32.41-.91.87-1.3,1.1-.66.39-1.29.64-1.93.87-.4.11-.8.22-1.2.33-1.08.39-2.15.87-3.23,1.59-.24.16-.58.5-.76.73-.1.13-.23.3-.39.41-.7.49-1.43.89-1.76,1.65-.06.13-.19.33-.16.47.03,0,.05.02.08.03.24-.22.4-.63.61-.92.16-.21.4-.34.57-.45.24-.17.48-.33.71-.5.43-.29.64-.77,1.08-1.07.47-.33.97-.66,1.48-.92.35-.18.7-.3,1.05-.44.25-.11.5-.22.75-.33.39-.11.77-.21,1.16-.32.62-.18,1.22-.45,1.84-.76,1.02-.52,2.07-1.75,2.85-2.65l-.22-.23c-.21.25-.41.5-.62.75-.21.22-.42.43-.62.65ZM205.89,14.25c-.13.12-.26.23-.39.35-.12.1-.24.2-.37.3-.33.21-.66.42-.98.57-.55.25-1.06.43-1.6.62l-.79.22c-.55.22-1.1.43-1.65.65-.42.17-.83.4-1.24.66-.25.19-.49.38-.74.57-.23.11-.46.22-.69.34-.17.1-.34.2-.5.3-.59.3-1.16.63-1.62,1.3-.08.11-.15.19-.2.3-.06.14-.17.62.07.63.13-.14.08-.35.14-.5.1-.24.58-.82.86-1.01.28-.19.53-.32.8-.46l.62-.36c.21-.11.45-.17.66-.3.29-.22.57-.44.86-.66.49-.29,1-.53,1.5-.73.41-.16.81-.32,1.22-.47.34-.1.69-.2,1.03-.3.58-.21,1.14-.41,1.74-.72.28-.14.56-.34.85-.53.11-.09.22-.19.33-.28.16-.16.33-.31.49-.47.15-.18.31-.36.46-.54.28-.35.55-.71.83-1.06l-.22-.23c-.28.36-.56.72-.84,1.08-.21.25-.42.49-.64.74ZM197.84,19.98c-.1.03-.24.2-.33.29-.22.21-.42.38-.61.48-.08.04-.12.1-.13.17,0,0,0,.01,0,.02.01.01.03.02.04.03.22.08.58-.26.81-.49.07-.15.34-.29.3-.44,0-.02-.01-.04-.04-.05-.02,0-.04,0-.06,0ZM197.4,19.41c.19-.11.47-.22.62-.42,0-.02,0-.04,0-.06-.04-.05-.06-.04-.1-.05-.67.28-1.76.85-2.26,1.68-.21.34-.4,1.33-.33,1.68l.03.02s.04,0,.06,0c0,0,.02-.02.03-.03.19-.57.15-1.17.55-1.72.39-.52.94-.85,1.39-1.11ZM195.75,23.67c.04-.07.08-.15.13-.22.17-.36.36-.74.73-1.09.21-.2.84-.47.89-.67,0-.01-.01-.03-.02-.04-.02,0-.05-.02-.07-.03-.27.11-.54.24-.82.42-.14.1-.27.27-.35.38-.32.45-.55.82-.67,1.27.02.02.04.04.05.06,0,0,.02,0,.03,0,.03-.03.06-.05.1-.08ZM207.93,19.3c-.15.05-.37.08-.49.24,0,.02.01.04.02.06.15.11.92-.19,1.13-.27.78-.28,1.58-.6,2.37-1.05.25-.14.46-.37.73-.55.15-.1.3-.2.44-.31l-.2-.21c-1.01.82-1.96,1.36-2.96,1.72-.34.12-.69.25-1.03.37ZM208.17,14.88c-.86.82-1.63,1.45-2.45,1.85-.66.32-1.37.56-2.04.73-.35.09-.7.19-1.06.28-.7.25-1.43.6-2.12.95-.4.2-1,.66-1.32,1.08-.21.27-.48.46-.64.72-.29.46-.53.92-.86,1.37-.18.24-.42.48-.66.65-.07.06-.14.13-.2.19-.12.08-.31.24-.42.38-.38.5-.72.93-1.07,1.42-.2.23-.4.45-.6.68,0,.05.02.07.08.09.13-.07.28-.22.41-.35.51-.49.81-.97,1.17-1.46.42-.57,1.12-.94,1.53-1.51.5-.69.81-1.41,1.53-2.07.27-.25.48-.51.77-.69.46-.3.9-.5,1.35-.7.31-.14.63-.29.94-.43.41-.15.84-.26,1.26-.36.73-.17,1.48-.44,2.2-.79,1.06-.52,2.2-1.53,3.21-2.59l-.23-.24c-.22.27-.51.52-.78.79ZM211.65,18.12s.01,0,.02.01c.28,0,.56-.19.84-.31l-.19-.2c-.19.12-.55.21-.69.4,0,.03.01.07.02.1ZM208.48,18c-.36.14-.72.27-1.08.41-.5.2-.95.54-1.46.8-.44.22-.87.35-1.31.52-.12.04-.41.08-.47.22.01.03.03.06.04.09.22,0,.45-.09.67-.16.36-.11.75-.21,1.11-.39.35-.21.71-.41,1.06-.62.57-.29,1.12-.47,1.69-.7.36-.15.68-.4,1.05-.62.48-.29.97-.63,1.44-1.07l-.21-.22c-.43.42-.9.75-1.34,1.03-.41.26-.78.55-1.19.71ZM208.06,16.03c-.72.48-1.35.94-2.05,1.23-.57.23-1.14.46-1.72.6-.46.12-.92.24-1.38.37-.76.27-1.49.67-2.26,1.11-.3.17-.67.49-.94.81-.17.21-.44.4-.59.62-.36.51-.72,1.01-1.08,1.52-.16.22-.81.78-.85.97.02.02.04.03.05.05.16.05.85-.67.97-.84.54-.75,1-1.46,1.78-2.21.19-.18.33-.36.54-.5.85-.54,1.62-.97,2.46-1.27.7-.19,1.39-.39,2.09-.58.65-.23,1.31-.48,1.95-.84.42-.23.77-.53,1.21-.82.5-.33,1.06-.81,1.5-1.31l-.22-.23c-.19.19-.37.38-.56.57-.34.23-.6.53-.92.75ZM201.46,10.49c-.14.18-.36.34-.52.46-.22.17-.43.34-.65.51-.13.09-.41.23-.44.37.01.02.02.04.03.07.2.07.8-.44,1.04-.59,1.35-.87,1.61-2.09,2.39-3.13l-.22-.23c-.34.44-.58.97-.83,1.43-.22.39-.48.72-.79,1.12ZM204.1,14.1c-1.43.91-2.8,1.19-4.22,1.72-.37.14-.75.25-1.12.47-.22.13-.4.33-.64.49-.31.21-.58.44-.91.67-.11.11-.22.22-.33.32-.33.33-.68.67-1.02.87-.28.16-.54.14-.81.18-.08.01-.26,0-.33.14-.17.29.61.91.86.48-.01-.03-.03-.05-.04-.08-.06-.02-.63-.03-.57-.26.02-.06.2-.06.24-.06.26,0,.5-.04.77-.18.22-.12.63-.44.82-.69.15-.15.3-.29.45-.44.37-.26.68-.53,1.03-.76.16-.12.31-.25.47-.37.42-.26.82-.38,1.23-.53,1.43-.54,2.81-.82,4.24-1.71,1.12-.7,1.68-1.87,2.36-2.74l-.21-.22c-.22.21-.38.51-.53.75-.39.62-1.02,1.49-1.75,1.95ZM199.17,8.3c-.14.23-.44.73-.72.92-.36.25-.65.54-1,.76-.61.39-1.18.76-1.81,1.15-.38.24-.72.63-1.1.87-.35.23-.69.52-1.06.78-.18.17-.37.34-.55.51-.2.15-.61.46-.75.65,0,.02,0,.04,0,.06.01,0,.03.02.04.03.15.02.5-.32.67-.43.55-.37,1.04-.91,1.57-1.24.18-.13.36-.25.54-.38.18-.15.37-.31.55-.46.32-.22.65-.44.97-.66.28-.16.56-.33.84-.49.21-.15.42-.3.62-.44.35-.23.84-.6,1.11-.99.5-.73.82-1.41,1.13-2.14.17-.39.3-.83.61-1.21l-.2-.21c-.27.3-.39.67-.53.98-.3.66-.54,1.28-.94,1.94ZM199.95,9.33c-.17.27-.43.5-.65.78-.09.08-.17.15-.26.23-.37.25-.66.49-1,.67-.69.35-1.35.77-2.04,1.2-.22.17-.45.34-.68.5-.33.21-.65.41-.99.64-.16.14-.33.28-.49.41-.42.3-.84.6-1.26.9-.37.23-.73.39-1.09.58-.28.16-.56.33-.84.49-.28.14-.56.22-.84.28-.25.08-.49.17-.74.25-.34.11-.7.17-1.05.31-.7.27-1.4.64-2.1,1.08-.34.21-.63.53-.97.77-.12.11-.25.23-.37.34-.36.34-.69.68-.93,1.03-.43.61-.87,1.14-1.19,1.74-.34.62-.59,1.24-.94,1.87-.23.4-.53.77-.79,1.18-.13.23-.25.45-.38.68-.13.22-.3.42-.46.64-.34.41-.69.81-1.03,1.22-.14.18-.37.33-.49.51,0,.03,0,.06.01.09,0,0,.01,0,.02.01.1.03.55-.34.66-.49.39-.49.94-1.02,1.29-1.56.2-.34.41-.68.61-1.02.35-.55.75-1.04,1-1.59.65-1.38,1.37-2.8,2.81-4.18,1.19-1.13,2.37-1.74,3.55-2.17.24-.06.49-.13.73-.19.26-.09.52-.18.79-.26.19-.05.37-.1.56-.15.33-.12.64-.37.97-.55.33-.16.66-.33.99-.49.34-.19.65-.5,1-.73.22-.15.45-.31.67-.46.19-.16.39-.31.58-.47.29-.18.57-.35.86-.53.35-.22.65-.5.99-.69.7-.4,1.37-.76,2.06-1.16.33-.19.63-.42.98-.75.1-.1.2-.2.3-.3.58-.77.93-1.44,1.3-2.21.13-.27.3-.53.45-.81.07-.12.13-.27.24-.39l-.22-.23c-.09.14-.17.28-.26.42-.18.33-.36.66-.54.99-.29.52-.51,1.04-.83,1.56ZM202.37,10.47c-.11.12-.21.25-.32.37-.25.33-.8.63-1.09.79-.54.29-1.03.57-1.57.79-.28.12-.57.24-.85.36-.27.13-.5.33-.78.53-.3.21-.51.53-.79.72-.51.35-.96.69-1.45.99-.29.18-.53.41-.81.56-.16.08-.74.29-.77.43,0,0,0,.01,0,.02.05.05.06.04.11.05.21-.09.45-.14.66-.24.31-.16.59-.39.91-.59.45-.28.88-.59,1.35-.9.43-.29.83-.82,1.25-1.08.49-.3.96-.48,1.45-.68.47-.19.89-.45,1.36-.69.34-.18,1-.53,1.32-.95.15-.2.32-.38.45-.58.34-.55.67-1.1,1.01-1.65l-.22-.23c-.18.31-.36.61-.54.92-.21.37-.43.71-.69,1.07ZM196.1,13.44c-.3.17-.6.34-.9.5-.23.18-.46.36-.69.54-.33.2-.66.41-.99.61-.32.16-.62.21-.92.33-.35.13-.7.32-1.04.45-.1.04-.23.11-.13.23.41-.05.78-.27,1.2-.42.31-.12.63-.19.95-.35.38-.19.74-.44,1.11-.68.19-.15.37-.3.56-.45.35-.2.69-.4,1.04-.61.34-.26.68-.51,1.02-.77,0-.02.01-.04.02-.06-.04-.06-.06-.07-.11-.07-.36.17-.73.51-1.12.74ZM200.63,9.43c-.2.35-.51.85-.96,1.15-.2.17-.39.34-.59.51-.83.55-1.58.87-2.41,1.34-.33.19-.62.45-.97.66-.28.16-.56.33-.84.49-.18.14-.36.28-.54.42-.33.22-.66.44-.99.66-.15.09-.38.19-.49.34,0,.02,0,.04,0,.07.01,0,.03.02.04.03.14.05.52-.23.68-.32.29-.16.57-.35.86-.54.31-.21.58-.46.88-.62.62-.33,1.29-.86,1.91-1.18.62-.31,1.21-.58,1.83-.96.32-.19.58-.5.91-.76.19-.15.41-.35.55-.55.74-1.01,1.1-2.03,1.79-3.06l-.22-.23c-.2.25-.35.56-.5.82-.33.6-.61,1.14-.95,1.73ZM204.44,12.92c-.09.12-.23.29-.37.39-.12.1-.25.2-.37.3-.3.2-.59.4-.9.55-1.19.58-2.4.8-3.58,1.29-.68.28-1.37.86-2.04,1.27-.25.15-.45.31-.69.4-.29.08-.58.16-.87.24-.25.1-.49.21-.74.31-.48.17-1.01.21-1.5.25-.18.02-.38-.02-.57-.04-.28-.04-.58-.03-.86,0-.15.02-.35,0-.5.11,0,.03,0,.06,0,.09.01,0,.03.02.04.03.13.05.32,0,.45-.01.2,0,.41,0,.61,0,.6.08,1.02.05,1.63-.04.24-.04.51-.05.75-.14.27-.12.54-.23.81-.35.38-.14.77-.19,1.16-.38.13-.09.27-.18.4-.27.65-.39,1.34-.97,2-1.24,1.48-.61,2.91-.8,4.42-1.76.79-.5,1.42-1.38,1.86-2.07.15-.24.31-.52.52-.75l-.21-.22c-.24.24-.43.62-.6.89-.25.4-.54.72-.86,1.14ZM202.15,11.66c-.73.48-1.46.78-2.2,1.15-.52.26-1,.41-1.52.68-.18.1-.48.24-.61.44,0,.02,0,.03,0,.05.04.04.05.05.09.06.3-.15.63-.35.95-.48.29-.11.59-.23.88-.34.51-.25,1.01-.5,1.52-.75.48-.23.94-.42,1.43-.88.08-.08.17-.16.25-.24.3-.4.55-.73.77-1.12.18-.33.35-.7.61-1.01l-.22-.23s0,0,0,0c-.15.25-.3.5-.45.75-.32.58-.73,1.44-1.47,1.92ZM203.91,12.59c-.25.33-.8.68-1.08.84-.64.36-1.23.61-1.85.84-.32.1-.63.19-.95.29-.31.13-.62.27-.93.4-.35.14-.71.28-1.07.48-.45.25-.87.64-1.33.91-.3.18-.59.32-.89.43-.22.06-.43.13-.65.19-.25.1-.5.2-.75.3-.13.04-.83.2-.87.28,0,.02,0,.05,0,.07,0,0,.02.02.03.03.33.11,1.08-.21,1.44-.35.5-.19,1-.28,1.51-.53.52-.27,1.02-.74,1.55-1.03.43-.23.84-.41,1.26-.58.26-.11.52-.23.78-.34.23-.07.46-.13.7-.2.5-.17.98-.34,1.48-.57.54-.25,1.08-.54,1.62-1.05.1-.1.2-.19.3-.29.2-.26.42-.48.59-.74.28-.44.54-.87.87-1.29l-.21-.22c-.31.38-.54.8-.79,1.2-.21.34-.5.61-.76.96ZM203.33,11.39c-.12.17-.27.37-.48.51-.17.12-.34.25-.51.37-.41.24-.83.42-1.24.62-.89.43-1.72.83-2.6,1.19-.38.14-.77.29-1.15.43-.36.17-.68.44-1.07.68-.58.36-1.21.78-1.8.99-.32.12-.65.09-.97.16-.23.05-.45.18-.68.27-.33.12-.67.22-1.01.29-.74.12-1.47.24-2.21.37-1,.21-1.96.56-2.97,1.15-.43.26-.8.57-1.19.94-.13.12-.25.25-.38.37l-.19.18c-.19.22-.39.45-.58.67-.36.51-.64.99-.91,1.48-.21.35-.43.7-.64,1.06-.11.25-.22.49-.33.74-.13.28-.28.55-.41.82-.2.42-.49.83-.79,1.24-.12.17-.42.36-.38.53.1.06.33-.14.43-.27.11-.13.22-.26.34-.38.24-.34.47-.67.63-1.02.27-.56.54-1.12.8-1.68.19-.31.38-.61.57-.92.16-.29.32-.59.48-.88.47-.75,1.49-1.9,2.32-2.44.65-.42,1.24-.74,1.87-.97,1.38-.5,2.76-.55,4.14-.88.37-.09.72-.32,1.1-.42.46-.11.91-.12,1.38-.34.52-.23,1.02-.57,1.53-.88.3-.18.55-.42.84-.56.59-.29,1.21-.48,1.82-.72.77-.31,1.51-.69,2.3-1.05.61-.28,1.33-.54,1.93-1.21.62-.7.92-1.44,1.46-2.13l-.22-.23c-.15.23-.29.46-.44.7-.24.42-.49.78-.8,1.2ZM205.35,13.86c-.28.37-.87.74-1.19.92-1.06.59-2.04.82-3.09,1.21-.41.15-.82.25-1.21.4-.29.11-.58.28-.87.43-.39.21-.71.54-1.12.82-.26.18-.91.55-1.05.79.02.04.02.05.05.07.19.02.46-.23.65-.34.21-.12.42-.28.63-.42.15-.12.29-.24.44-.35.34-.22.66-.42,1-.59.41-.2.82-.29,1.23-.43.3-.11.59-.23.89-.34.48-.15.97-.31,1.45-.46.57-.21,1.1-.5,1.68-.88,1.04-.68,1.53-1.74,2.24-2.57l-.22-.23c-.3.42-.61.84-.91,1.27-.17.25-.4.45-.59.7ZM182.26,43.13c.23-.19.46-.38.69-.57.47-.32.9-.71,1.37-.99.59-.35,1.15-.65,1.73-.93.54-.26,1.07-.56,1.62-.89.12-.07.52-.27.58-.39,0,0,0-.01,0-.02,0-.02-.02-.05-.05-.06-.15-.05-.41.17-.56.25-.48.26-.94.52-1.42.76-.73.36-1.44.7-2.19,1.15-.47.29-.9.68-1.38,1.01-.17.15-.34.29-.51.44-.73.5-1.41,1.06-2.13,1.67l.19.2c.23-.19.47-.39.7-.58.45-.35.91-.69,1.36-1.04ZM181.36,42.01c.31-.21.62-.43.93-.64.5-.32.96-.7,1.46-.95.69-.35,1.36-.62,2.04-.9.26-.13.52-.25.78-.38.64-.29,1.32-.61,1.96-.93.66-.33,1.29-.82,1.93-1.24.2-.15.39-.31.59-.46.12-.11.25-.23.37-.34.41-.39.73-.77,1.02-1.16.39-.55.83-1.03,1.14-1.56.23-.42.46-.84.69-1.25.14-.34.28-.67.43-1.01.13-.24.26-.48.39-.71.18-.38.34-.74.56-1.13.22-.31.43-.63.65-.94.36-.53.89-.98,1.3-1.52.24-.31.77-.65,1.04-.82.51-.31.98-.65,1.48-1.03.31-.27.62-.54.93-.81.39-.27.75-.52,1.12-.77.32-.3.64-.6.97-.9.45-.31.83-.6,1.26-.82.89-.45,1.74-.64,2.62-.84.74-.19,1.48-.38,2.22-.57,1.39-.35,2.76-1.03,4.15-1.57l-.23-.24.02.02c-1.51.57-2.98,1.3-4.48,1.66-.51.13-1.02.27-1.53.4-1.04.24-2.03.47-3.08,1-.39.2-.71.47-1.13.75-.29.27-.58.54-.88.81-.43.29-.82.6-1.28.91-.3.27-.61.55-.91.82-.21.16-.43.31-.64.47-.51.3-1.08.63-1.55,1.1-.13.12-.26.24-.38.37-.39.51-.87.94-1.21,1.44-.24.36-.48.71-.72,1.07-.2.36-.35.7-.52,1.05-.14.26-.27.51-.41.77-.17.37-.31.75-.49,1.13-.4.86-.99,1.63-1.61,2.49-.19.27-.42.48-.64.77-.09.12-.24.29-.36.38-.11.1-.21.19-.32.29-.19.16-.38.31-.57.47-.65.42-1.31.94-1.99,1.28-.62.31-1.27.64-1.89.89-.3.15-.61.29-.91.44-.69.28-1.38.53-2.08.9-.79.42-1.53,1.01-2.32,1.52-.24.18-.48.37-.71.55-.53.34-1.09.73-1.59,1.21l.2.21c.54-.44,1.06-.87,1.61-1.22.19-.15.38-.3.57-.45ZM182.69,41.93c.57-.37,1.08-.81,1.63-1.1,1.26-.68,2.57-1.16,3.84-1.79.47-.27.94-.54,1.41-.82.26-.18.51-.36.77-.54.43-.27.84-.61,1.27-1.01.13-.13.26-.26.39-.39.25-.34.46-.65.67-.98.14-.2.29-.41.43-.61.05-.07.17-.19.06-.25-.01,0-.02,0-.03-.01-.2.17-.35.39-.49.59-.27.39-.52.73-.81,1.12-.15.2-.37.42-.57.56-.15.13-.3.25-.45.38-.25.17-.49.34-.74.51-.23.16-.46.33-.7.49-.57.34-1.17.71-1.76.97-1.06.47-2.11.95-3.17,1.42-.82.41-1.63,1.08-2.46,1.63-.17.13-.35.26-.52.4-.27.2-.54.4-.82.6-.38.25-.78.56-1.15.92l.2.2c.56-.46,1.11-.92,1.69-1.3.46-.31.87-.7,1.31-.98ZM182.97,44.22c.31-.25.61-.5.92-.75.17-.15.33-.29.5-.44.41-.28.74-.67,1.17-.94.31-.2.61-.37.91-.54.44-.28.88-.56,1.32-.84.32-.24.64-.47.96-.71.61-.39,1.17-.79,1.76-1.17.26-.17.48-.44.74-.62.13-.11.26-.21.39-.32.19-.13.46-.33.63-.55.3-.4.63-.77.88-1.18.15-.27.31-.54.46-.81.16-.25.33-.49.49-.74.16-.29.26-.59.39-.88.16-.28.32-.56.47-.84.12-.26.25-.52.37-.79.12-.21.23-.41.35-.62.2-.4.33-.8.51-1.19.16-.34.4-.66.64-.99.22-.31.55-.54.79-.86.23-.3.46-.61.78-.82.45-.3.86-.53,1.31-.8.33-.2.61-.48.95-.71.21-.17.43-.34.64-.5.18-.12.44-.33.59-.53.15-.2.3-.37.41-.56.13-.24.21-.48.38-.72.25-.35.7-.72,1.03-.93.46-.3.84-.6,1.28-.84.87-.47,1.68-.58,2.53-.75.41-.09.82-.18,1.23-.27,1.69-.4,3.39-1.12,5.08-1.77l-.22-.23c-.47.19-.95.37-1.42.56-1.28.51-2.54.99-3.82,1.27-.95.21-1.93.31-2.87.66-.56.21-1.11.58-1.66.93-.46.29-1.09.78-1.43,1.28-.17.25-.23.51-.37.75-.1.18-.26.34-.39.52-.12.16-.31.29-.45.39-.27.21-.54.43-.81.64-.31.21-.55.46-.85.64-.42.25-.83.48-1.26.77-.29.19-.56.52-.75.77-.28.37-.66.66-.91,1.01-.22.31-.47.62-.62.94-.21.44-.36.88-.58,1.33-.09.16-.18.33-.28.49-.25.53-.53,1.03-.82,1.58-.17.32-.26.64-.42.94-.17.25-.34.51-.5.76-.13.23-.26.47-.39.7-.29.39-.57.79-.86,1.18-.25.34-.67.63-1,.85-.25.21-.5.42-.75.63-.56.37-1.11.74-1.67,1.12-.41.3-.82.6-1.23.9-.85.5-1.62.97-2.47,1.53-.15.13-.31.26-.46.39-.57.39-1.03.92-1.58,1.29-.18.16-.35.32-.53.47-.2.17-.4.33-.6.5-.32.22-.62.48-.92.77l.18.19c.46-.39.93-.78,1.39-1.17.14-.13.28-.25.42-.38ZM182.14,44.08c.37-.29.73-.58,1.1-.87.14-.11.28-.23.42-.34.45-.34.91-.67,1.36-1.01.8-.48,1.56-.9,2.36-1.39.4-.24.75-.56,1.16-.83.17-.14.35-.28.52-.42.3-.21.6-.42.9-.62.24-.19.48-.37.72-.56.33-.21.63-.45.96-.7l.38-.36c.16-.2.32-.4.48-.6.27-.4.49-.8.72-1.2.14-.25.32-.46.44-.71l.28-.67c.18-.38.46-.72.63-1.1.16-.36.31-.73.47-1.09.13-.25.25-.49.38-.74.12-.27.22-.56.37-.83.25-.45.58-.88.88-1.32.13-.16.26-.31.39-.47.28-.38.72-.87,1.15-1.16.53-.36,1.02-.68,1.53-1,.24-.2.49-.39.73-.59.44-.3.97-.63,1.34-1.12.09-.12.19-.2.22-.31-.01-.03-.03-.06-.06-.07-.12-.04-.29.16-.41.27-.31.3-.57.56-.9.77-.35.22-.69.59-1.05.82-.48.31-.96.63-1.47.97-.48.33-1.01.9-1.32,1.33-.16.23-.35.4-.5.62-.25.39-.55.79-.77,1.19-.12.27-.24.54-.37.8-.12.24-.24.48-.37.72-.14.34-.29.68-.43,1.02-.2.44-.52.86-.73,1.3-.1.23-.2.47-.29.7-.16.25-.31.5-.47.75-.2.35-.4.69-.64,1.04-.14.17-.28.33-.42.5-.1.09-.2.19-.3.28-.11.09-.21.18-.32.27-.22.15-.44.3-.66.45-.26.21-.53.41-.79.62-.28.19-.56.38-.84.58l-.59.49c-.36.25-.67.53-1.03.74-.81.47-1.58.88-2.36,1.36-.63.38-1.19.91-1.82,1.34-.19.15-.38.31-.56.46-.38.26-.71.61-1.11.89-.32.22-.63.49-.94.78l.19.2c.27-.24.55-.49.83-.68.21-.17.41-.34.62-.5ZM181.93,40.04c.42-.25.84-.51,1.25-.71.66-.32,1.34-.53,2-.78.79-.29,1.58-.61,2.38-.97.76-.34,1.48-.83,2.24-1.32.27-.22.54-.44.82-.66.1-.09.19-.18.29-.27.2-.19.42-.38.57-.57.23-.3.47-.52.66-.8.43-.64.75-1.25,1.04-1.88l.36-.69c.22-.46.44-.93.66-1.39.33-.58.66-1.16.99-1.73.41-.72,1-1.4,1.74-2.1.24-.24.49-.47.73-.71.41-.28.76-.56,1.15-.82l.72-.57c.11-.1.23-.2.34-.31.31-.21.7-.55.94-.87l.3-.27c.28-.19.49-.42.75-.6.28-.23.55-.45.83-.68.34-.22.68-.44,1.02-.58.81-.33,1.63-.46,2.43-.75.25-.09.49-.19.74-.33.4-.23.74-.55,1.12-.71.46-.19.94-.33,1.41-.52.22-.09.41-.23.63-.34.54-.29,1.09-.68,1.65-1.14l-.21-.22c-.72.63-1.56,1.21-2.28,1.51-.45.17-.91.34-1.36.51-.38.17-.73.48-1.12.7-.24.14-.49.24-.74.33-.87.32-1.78.41-2.65.84-.35.17-.67.4-1.02.64-.13.11-.25.22-.38.33-.27.21-.53.41-.8.62-.3.29-.59.59-.89.88-.42.36-.83.72-1.25,1.08-.51.35-.94.7-1.45,1.05-.23.23-.47.46-.7.69-.18.17-.35.33-.53.5-.29.38-.63.69-.88,1.05-.86,1.25-1.5,2.51-2.08,3.76l-.33.62c-.29.61-.59,1.2-.98,1.82-.18.28-.4.5-.62.78-.23.31-.6.7-.93.93-.27.18-.46.42-.71.59-1.18.78-2.26,1.4-3.42,1.86-1.05.41-2.1.72-3.14,1.19-.78.35-1.52.91-2.32,1.36-.93.53-1.98,1.18-2.91,2.05l.19.2c1.06-.87,2.08-1.6,3.12-2.19.21-.14.42-.28.63-.42ZM203.44,19.21c-.5.21-.99.42-1.49.73-.34.25-.68.51-1.01.76-.22.15-.51.47-.66.66-.2.26-.59.54-.82.85-.16.19-.33.38-.49.56-.16.22-.39.49-.64.68-.22.16-.47.4-.7.52-.27.14-.51.19-.8.38-.11.08-.21.2-.28.29-.08.09-.17.19-.25.28-.17.23-.34.46-.5.7-.41.58-1.05,1.09-1.39,1.67-.66,1.12-1.22,2.19-1.84,3.32-.18.37-.36.75-.54,1.12-.37.66-.85,1.33-1.33,1.99-.18.25-.46.56-.72.73-.17.15-.35.29-.52.44-.45.3-.87.63-1.32.87-.41.22-.83.41-1.24.61-.65.32-1.25.66-1.89.9-1.04.39-2.06.7-3.1,1.21-.53.26-1.03.63-1.56.97-.16.1-.46.28-.5.45.04.04.05.03.09.04.91-.47,1.8-1.17,2.69-1.53.77-.28,1.53-.56,2.3-.84.7-.26,1.36-.62,2.07-.97.44-.22.91-.43,1.36-.69.45-.26.87-.58,1.33-.89.34-.23.67-.59.99-.9.15-.19.3-.38.45-.57.4-.62.85-1.22,1.17-1.84.12-.26.23-.51.35-.77.27-.49.54-.97.81-1.46.15-.3.29-.6.44-.9.29-.48.58-.95.86-1.43.26-.41.69-.75,1.01-1.16.25-.31.49-.63.74-.94.09-.13.24-.34.4-.44.33-.23.6-.3.92-.48.21-.12.39-.31.6-.46.14-.14.28-.28.42-.42l.25-.25c.23-.26.47-.52.7-.78.16-.16.31-.32.47-.48.33-.43.86-.89,1.28-1.16.26-.18.48-.38.73-.52.65-.37,1.33-.68,1.99-.93.15-.05.72-.18.8-.3,0,0,0-.01,0-.02-.02-.03-.04-.05-.05-.08-.13-.04-.28.04-.42.07-.39.09-.76.23-1.16.4ZM183.63,39.73c1.08-.53,2.2-.83,3.3-1.28.83-.34,1.67-.82,2.48-1.31.3-.21.61-.43.91-.64.19-.17.39-.33.58-.5.21-.2.41-.39.62-.59.13-.13.25-.26.38-.39.29-.39.61-.75.85-1.12.79-1.24,1.27-2.41,1.85-3.65.1-.17.2-.35.31-.52.25-.45.53-.88.81-1.33.41-.65.88-1.25,1.56-1.9l.61-.59.52-.41c.44-.29.85-.56,1.31-.87.32-.27.63-.54.95-.81.23-.21.46-.42.69-.64.82-.56,1.61-1.39,2.42-1.78.98-.48,1.96-.76,2.94-.99.56-.13,1.1-.32,1.65-.45,1.02-.24,2.01-.75,3.03-1.13.49-.19,1.04-.31,1.53-.56l-.22-.24.02.02c-.21.09-.42.17-.64.26-.46.17-.94.32-1.4.51-.72.29-1.4.64-2.11.82-.71.18-1.39.41-2.1.58-1.01.24-2.03.55-3.04,1.07-.29.15-.51.38-.82.58-.47.37-.95.74-1.42,1.1-.15.14-.3.29-.45.43-.36.32-.73.64-1.09.96-.22.16-.45.32-.67.49-.48.29-.92.59-1.41,1.05-.13.13-.26.26-.39.39-.22.22-.45.44-.67.65-.29.39-.6.73-.85,1.12-.44.7-.89,1.4-1.28,2.11-.12.26-.24.53-.36.79-.12.24-.23.47-.35.71-.35.75-.72,1.48-1.21,2.26-.22.34-.51.62-.79.98-.18.24-.52.61-.78.79-.1.09-.2.18-.29.27-.32.22-.58.5-.89.7-.92.58-1.81,1.12-2.74,1.5-.54.22-1.08.42-1.62.62-.57.21-1.17.39-1.74.67-.68.33-1.33.84-2.04,1.26-1.03.62-2.04,1.36-3.08,2.23l.19.2c1.02-.88,2.1-1.65,3.14-2.27.63-.38,1.2-.84,1.81-1.14ZM179.14,40.19c.37-.25.64-.69.99-.93.63-.43,1.18-.79,1.78-1.11.2-.11.39-.22.59-.33.66-.28,1.34-.45,2.01-.69,1.76-.65,3.48-1.46,5.22-2.85.39-.31.81-.8,1.06-1.15.34-.48.72-.9.99-1.37.3-.52.5-1.02.74-1.54.28-.59.71-1.14.97-1.72.15-.34.2-.71.38-1.04.18-.32.58-.55.84-.89.36-.43.73-.87,1.09-1.3.15-.22.31-.45.46-.67.13-.21.3-.52.57-.69.22-.14.46-.11.68-.2.22-.09.42-.27.65-.43.48-.33.77-.92,1.04-1.29.27-.38.7-.72,1.08-1.08.28-.27.54-.6.85-.81.22-.15.42-.32.64-.44.27-.12.54-.24.81-.36.3-.12.57-.28.85-.38.57-.2,1.17-.29,1.75-.43.47-.11.93-.34,1.39-.53,1.17-.47,2.55-1.23,3.69-2.46l-.22-.23c-1.56,1.52-3.01,2.28-4.56,2.84-.63.23-1.26.35-1.89.5-.38.09-.73.29-1.12.45-.53.22-.93.42-1.49.8-.25.17-.68.58-.87.83-.13.12-.26.24-.4.36-.25.18-.56.55-.73.79-.22.33-.41.61-.68.96l-.21.22c-.25.18-.46.39-.7.48-.27.1-.45.03-.76.24-.32.22-.49.57-.63.81-.16.27-.34.52-.54.79-.26.3-.51.6-.77.89-.12.13-.24.25-.36.38l-.2.18c-.19.18-.38.36-.49.55-.21.38-.26.78-.44,1.17-.24.52-.62,1-.87,1.52-.21.46-.42.92-.64,1.38-.21.38-.47.7-.76,1.09-.28.39-.63.75-.96,1.14-.12.12-.25.25-.37.37-.36.25-.67.59-1.02.82-.96.61-1.88,1.12-2.83,1.51-.63.26-1.27.51-1.9.74-.54.2-1.1.32-1.65.59-.78.39-1.46.85-2.23,1.38-.36.25-.63.67-.99.9-.19.14-.38.28-.57.42-.47.31-.94.65-1.41,1.09l.19.2c.35-.34.73-.62,1.09-.86.27-.2.54-.4.81-.6ZM179.24,40.96c.54-.35,1.03-.58,1.55-.87.79-.45,1.5-.96,2.27-1.28.87-.35,1.74-.63,2.61-.97,1.02-.39,1.99-.88,3.02-1.46.62-.35,1.23-.79,1.84-1.38.15-.14.3-.29.45-.43l.4-.44c.26-.36.54-.69.74-1.05.6-1.06,1.07-2.09,1.56-3.14.15-.27.31-.55.46-.82.2-.36.41-.74.63-1.11.27-.45.63-.86.97-1.31.17-.18.34-.36.5-.55.19-.2.37-.4.56-.61.09-.09.18-.18.28-.28.4-.28.73-.54,1.11-.79.2-.16.39-.31.59-.47.26-.24.53-.49.79-.73.2-.14.52-.43.67-.63.12-.12.24-.24.36-.36.16-.21.43-.47.66-.63.49-.34.93-.76,1.42-1.05.47-.29.95-.57,1.42-.86.32-.16.65-.26.97-.43.39-.2.75-.46,1.12-.65.58-.28,1.15-.48,1.72-.71.4-.16.77-.4,1.17-.63.41-.23.76-.57,1.18-.86.17-.16.35-.32.52-.47l-.21-.22c-.93.91-1.92,1.59-2.88,1.99-.36.14-.72.28-1.08.42-.36.15-.72.34-1.07.54-.22.14-.44.28-.66.43-.28.14-.56.24-.84.36-.26.14-.52.28-.78.42-.42.24-.81.52-1.24.79-.28.21-.56.42-.83.63-.19.17-.37.34-.56.51-.13.14-.27.28-.4.43-.48.46-.95.92-1.43,1.38-.35.24-.63.56-.96.77-.34.22-.91.52-1.22.94-.46.6-1.05,1.1-1.46,1.69-.47.66-.85,1.29-1.21,1.93-.12.21-.24.41-.36.62-.6,1.25-1.12,2.44-1.92,3.7-.17.27-.4.53-.62.81-.12.12-.23.24-.35.37-.13.18-.31.35-.51.49-.28.19-.48.44-.74.61-1.26.83-2.43,1.44-3.68,1.93-.99.39-1.98.71-2.97,1.12-.46.19-.91.46-1.37.73-.29.18-.58.36-.86.54-.29.14-.57.28-.86.42-.29.15-.53.36-.83.55-.46.29-.91.63-1.36,1.05l.18.19c.13-.11.26-.22.39-.32.38-.28.76-.57,1.14-.85ZM184.14,46.31c.12-.11.24-.22.36-.33.39-.36.79-.73,1.18-1.09.61-.52,1.23-1.04,1.84-1.56.6-.44,1.2-.87,1.8-1.31.3-.27.59-.55.89-.82.38-.28.76-.56,1.15-.85.33-.23.61-.52.92-.74.3-.28.6-.55.9-.83.33-.35.66-.7.99-1.05.12-.12.25-.25.37-.37.49-.64,1.14-1.15,1.51-1.8.22-.4.31-.82.49-1.22.13-.25.26-.5.39-.75.21-.44.46-.88.74-1.33.44-.69,1.23-1.35,1.89-1.79.34-.27.68-.55,1.02-.82.36-.26.71-.52,1.07-.78.48-.29.93-.51,1.43-.85.3-.3.6-.59.9-.89.99-.93,1.94-2.07,2.98-2.68.6-.35,1.13-.5,1.71-.66.12-.03.55-.13.59-.26-.08-.17-.26-.06-.39-.04-.36.08-.72.16-1.09.27-.64.19-1.85.86-2.4,1.59-.26.24-.52.49-.77.73-.16.21-.34.42-.55.62-.16.15-.31.3-.47.45-.32.41-.78.79-1.18,1.02-.36.21-.72.39-1.1.63-.45.34-.89.68-1.34,1.02-.15.13-.3.25-.46.38-.69.47-1.49,1.11-1.97,1.84-.51.75-.92,1.55-1.26,2.32-.18.41-.27.82-.53,1.23-.36.58-.93,1.06-1.38,1.65-.12.13-.25.26-.37.38-.23.29-.6.57-.84.89-.18.17-.36.35-.54.52-.28.19-.51.47-.77.64-.21.18-.43.35-.64.53-.36.26-.72.52-1.08.78-.11.1-.21.2-.32.3-.28.27-.56.55-.85.74-.56.38-1.08.79-1.66,1.18l-.21.19c-.39.27-.66.6-1.04.86-.25.22-.51.45-.76.67-.1.09-.2.19-.29.28-.2.18-.39.36-.59.54-.16.15-.32.29-.47.44-.12.11-.25.23-.37.34-.31.22-.62.6-.87.88l.18.19c.23-.24.45-.48.68-.71.19-.18.38-.37.58-.55ZM206.73,26.54c-.21.19-.41.38-.62.57-.13.12-.27.23-.4.35-.39.27-.73.63-1.11.86-.49.29-.96.34-1.43.57-.6.29-1.18.74-1.76,1.09-.59.35-1.11.9-1.68,1.31-.21.19-.42.39-.63.58-.08.08-.16.16-.24.24-.34.36-.61.64-.81.98-.28.47-.55.9-.74,1.36-.29.69-.35,1.33-.93,2.03-.43.41-.85.81-1.28,1.22-.06.07-.12.15-.18.22l2.21-2.11s-.05.04-.07.06v-.02c.08-.14.12-.31.17-.45.1-.29.21-.58.31-.87.2-.49.49-.98.81-1.47.25-.4.86-1.02,1.3-1.36.49-.37.99-.89,1.53-1.25.47-.32.9-.6,1.37-.87.28-.16.53-.38.81-.49.29-.1.58-.2.87-.31.1-.04.48-.28.57-.28l3.18-3.03c-.21.19-.42.37-.64.53-.2.18-.41.37-.61.55ZM208.77,23.01c-1.06.11-2.04.35-3.13,1.09-.24.16-.63.54-.81.77-.21.21-.43.42-.65.64-.36.49-.74.97-1.23,1.46-.81.81-1.7,1.18-2.52,1.68-.54.33-1.01.92-1.57,1.31-.31.21-.59.47-.9.76-.11.11-.23.22-.34.33-.44.58-.82,1.09-1.13,1.65-.45.81-.72,1.63-1.16,2.44-.46.83-1.12,1.55-1.75,2.38-.27.36-.71.69-1.04.94l-.74.68c-.47.47-1.08.85-1.58,1.18-.47.31-.88.8-1.33,1.1-.3.21-.61.43-.91.64-.26.15-.51.32-.78.5-.34.27-.69.54-1.03.81-.55.49-1.1.98-1.64,1.47-.25.22-.5.44-.75.66-.1.09-.2.19-.29.28-.15.13-.29.27-.44.4-.28.27-.58.55-.77.76l.16.17c.26-.25.51-.5.77-.76l.35-.32c.15-.13.29-.27.44-.4.15-.13.29-.27.44-.4.27-.24.54-.48.81-.72.15-.13.29-.27.44-.4.29-.25.58-.5.87-.75.3-.23.6-.46.89-.69.26-.17.52-.33.78-.5.3-.21.59-.42.89-.63.34-.22.62-.6.98-.84.52-.36.96-.73,1.5-1.1.32-.29.64-.59.97-.88.08-.07.17-.14.25-.22.27-.19.65-.5.88-.79.18-.21.36-.42.55-.63.45-.61.92-1.15,1.27-1.78.27-.48.46-.96.67-1.43.17-.34.33-.68.5-1.02.23-.48.57-.93.91-1.39.38-.53,1.01-1.04,1.53-1.39.45-.31.83-.8,1.3-1.11.43-.28.83-.48,1.26-.73.4-.23.75-.54,1.16-.82.1-.09.2-.18.29-.27.49-.34.93-1,1.22-1.4.2-.28.54-.46.77-.76.14-.18.36-.42.56-.56.31-.21.58-.44.89-.59.54-.26,1.14-.45,1.69-.53.39-.04.78-.08,1.17-.12.38-.07.75-.14,1.13-.21,0,0,0,0,0,0l.32-.3c-.21.03-.42.06-.64.09-.5.09-.99.18-1.49.23ZM210.38,21.63c-.88.11-1.76.27-2.63.43-.62.11-1.25.17-1.87.43-.25.1-.47.27-.73.45-.14.12-.28.24-.42.37-.43.3-1.01.73-1.34,1.2-.21.31-.43.62-.64.94-.2.21-.4.43-.61.64-.22.28-.54.6-.84.79-.72.45-1.44.96-2.2,1.46-.33.22-.86.62-1.12.96-.07.07-.15.15-.22.22-.17.21-.33.41-.5.62-.13.18-.27.22-.31.38.01.02.02.04.04.06.15,0,.43-.27.56-.44.34-.44.83-.99,1.33-1.33.65-.44,1.24-.94,1.89-1.32.39-.23,1.02-.52,1.38-.99.25-.33.65-.63.88-.97.19-.28.38-.55.57-.83.09-.1.17-.19.26-.29.1-.13.23-.27.37-.37.53-.37,1.01-.92,1.55-1.2.49-.26,1-.34,1.48-.42.58-.1,1.17-.19,1.74-.29.64-.11,1.27-.19,1.91-.29.34-.05.68-.1,1.03-.15,0,0,0,0,0,0l.35-.33c-.18.08-.42.08-.6.11-.44.06-.88.12-1.31.17ZM208.56,22.51c-.95.14-2.04.18-2.99.82-.16.14-.32.29-.47.43-.13.12-.27.23-.4.35-.32.22-.73.64-.95.94-.2.28-.39.56-.59.84-.13.15-.27.3-.4.45-.15.19-.39.42-.59.56-.55.38-1.03.66-1.56.98-.4.24-.72.57-1.12.84-.53.36-1.19.84-1.64,1.42-.09.09-.18.17-.27.26-.28.27-.63.55-.82.83-.27.4-.45.79-.67,1.18-.23.42-.51.81-.69,1.23-.22.5-.37,1.04-.64,1.53-.21.37-.54.7-.8,1.08-.24.34-.46.65-.73.99-.19.25-.42.43-.66.65-.66.63-1.26,1.13-1.9,1.56-.21.18-.43.35-.64.53-.34.24-.67.48-1.01.72-.18.15-.37.3-.55.45-.27.16-.55.32-.82.48-.65.41-1.21.95-1.86,1.4-.26.23-.52.46-.77.68l-.9.75c-.14.12-.27.24-.41.36-.12.11-.24.21-.36.32-.14.13-.29.27-.43.4-.34.33-.68.67-1.01,1l.17.18c.29-.28.57-.57.86-.85.13-.12.26-.25.39-.37.2-.18.39-.35.59-.53.24-.16.38-.37.6-.52.25-.21.49-.41.74-.62.24-.21.47-.42.71-.62.62-.43,1.16-.96,1.78-1.34.27-.16.55-.32.82-.48.17-.14.35-.29.52-.43.36-.26.72-.52,1.07-.79.22-.18.44-.36.65-.54.35-.24.68-.5,1.05-.75.25-.24.51-.48.76-.72.22-.21.44-.41.66-.62.34-.44.63-.79.93-1.22.27-.38.57-.68.77-1.05.28-.51.43-1.05.65-1.55.16-.36.39-.68.59-1.05.25-.45.46-.88.77-1.33.11-.15.41-.5.58-.62.16-.15.31-.29.47-.44.36-.47.9-.89,1.35-1.18.43-.32.86-.64,1.29-.96.51-.31.99-.57,1.51-.91.12-.11.25-.22.37-.32.59-.41,1.04-1.17,1.4-1.68.22-.32.64-.72.97-.95.27-.23.53-.47.8-.7,1.08-.71,2.17-.64,3.24-.86.6-.12,1.18-.23,1.77-.32.17-.02.34-.05.52-.07,0,0,0,0,0,0l.31-.3c-.52.07-1.04.14-1.56.2-.49.08-.98.22-1.48.29ZM214.14,19.53c-.27.17-.69.25-.98.35-.58.21-1.16.45-1.74.58-.25.05-.5.11-.75.16-.08.01-.24,0-.29.09-.02.04-.02.05-.01.09.16.11.65-.02.84-.06.58-.12,1.17-.29,1.76-.5.15-.06.62-.26.76-.25l.46-.43-.03-.03ZM209.63,21.18c-.62.09-1.23.21-1.85.33-.74.15-1.47.23-2.22.54-.61.26-1.23.82-1.82,1.22-.63.42-.91,1.01-1.21,1.49-.16.25-.39.46-.59.73-.26.24-.52.48-.79.73-.19.15-.37.3-.56.46-.53.34-1.04.67-1.55.97-.55.33-1.25,1.01-1.65,1.54-.18.2-.35.4-.53.6-.38.53-.47,1-.75,1.51-.32.58-.62,1.14-.89,1.71-.15.27-.29.54-.44.81-.32.69-.67,1.38-1.1,2.08-.21.33-.51.64-.76.98-.2.22-.41.44-.61.66-.51.67-1.34,1.32-1.99,1.74-.25.19-.5.38-.74.57-.55.35-1.1.71-1.66,1.06-.41.3-.82.6-1.23.9-.4.25-.79.49-1.2.77-.41.36-.82.72-1.23,1.09-.37.25-.72.57-1.09.86-.21.2-.42.4-.63.59-.36.32-.72.64-1.08.96l.17.18c1.02-.82,1.91-1.82,2.92-2.51.1-.09.2-.18.3-.27.38-.27.69-.66,1.05-.89.36-.23.71-.46,1.07-.69.56-.36,1.02-.79,1.56-1.12.39-.25.79-.5,1.18-.75.22-.17.44-.34.66-.51.65-.42,1.61-1.17,2.14-1.87.18-.19.36-.37.53-.56.32-.42.67-.78.93-1.19.48-.76.83-1.5,1.18-2.26.1-.18.2-.37.31-.55.27-.58.59-1.15.91-1.75.23-.42.29-.83.58-1.25.16-.23.38-.42.57-.66.34-.44.9-1.04,1.38-1.36.33-.22.66-.41.99-.61.45-.27.83-.58,1.29-.89.18-.17.36-.33.54-.5.37-.35.75-.69.98-1.05.2-.31.36-.62.58-.92.28-.38.8-.72,1.12-.93.25-.19.5-.37.75-.56,1.07-.65,2.03-.7,3.08-.92,1.03-.21,2.02-.3,3.04-.45.34-.06.68-.11,1.02-.17.15-.04.31-.08.46-.13,0,0,0,0,0,0l.46-.44c-.23.12-.53.19-.78.25-.94.22-1.85.29-2.78.43ZM191.01,41.51c-.33.23-.59.48-.89.69-.27.26-.55.51-.82.77-.24.18-.48.36-.72.54-.15.13-.29.25-.44.38-.27.25-.55.5-.82.75-.24.2-.49.41-.73.61-.09.08-.17.17-.26.25-.27.25-.54.5-.8.75-.61.67-1.26,1.33-1.97,2.01l.17.18c.56-.53,1.26-1.11,1.68-1.67.16-.16.31-.33.47-.49.16-.15.33-.31.49-.46.17-.16.34-.32.51-.47.23-.2.46-.4.69-.6.42-.38.82-.84,1.25-1.12.12-.08.29-.27.41-.28l2.98-2.84c-.27.24-.53.46-.8.64-.13.12-.26.24-.4.37ZM208.82,24.02c-.35.12-.71.23-1.06.35-.38.16-.72.41-1.11.68-.31.3-.62.61-.93.91-.33.23-.78.63-1.03.96-.19.25-.63.57-.86.71-.09.06-.29.15-.34.26-.02.04-.02.07.02.12.16.03.35-.13.51-.23.3-.18.59-.43.9-.72.16-.15.32-.31.49-.46.58-.4,1.06-1.12,1.65-1.5.33-.21.64-.42.97-.55.25-.08.5-.16.75-.24.27-.13.55-.25.82-.38l.56-.54c-.18.07-.37.15-.55.22-.27.13-.52.3-.79.41ZM202.82,29.79c-.34.18-.67.35-1.02.57-.45.29-.81.65-1.27.97-.36.25-.78.6-1.06.95-.1.1-.2.2-.29.3-.22.25-.45.51-.67.76-.34.49-.59.96-.79,1.45-.13.31-.12.53-.39.83l.6-.57s-.04.03-.06.05c0,0,0-.01,0-.02.06-.16.13-.32.19-.48.15-.33.34-.66.55-.98.21-.31.53-.54.77-.86.31-.41.78-.86,1.2-1.15.15-.12.3-.25.45-.37.51-.34,1-.76,1.49-1.01.27-.14.54-.3.81-.46.1-.06.24-.21.34-.2l.56-.54c-.25.11-.53.21-.79.36-.21.13-.42.26-.63.39ZM201.56,31.27c-.47.29-.92.65-1.4,1.11-.15.14-.29.29-.44.43-.41.53-.95,1-1.26,1.53-.12.2-.18.35-.35.54l.87-.83s0,0,0-.01c.57-.62,1.14-1.44,1.86-1.93.18-.12.55-.51.72-.52l1.2-1.14c-.17.11-.36.22-.54.34-.22.16-.43.32-.65.48ZM180.23,38.58c.46-.31.87-.59,1.32-.86.26-.16.48-.35.74-.47.41-.2.85-.33,1.26-.43.48-.12.97-.33,1.45-.51,1.02-.39,2.04-.94,3.06-1.52.36-.2.67-.48,1.03-.72.11-.1.21-.19.32-.29.9-.65,1.24-1.63,1.55-2.37.26-.63.55-1.23.82-1.84.19-.38.38-.77.57-1.15.11-.27.22-.54.33-.82.16-.32.38-.62.59-.93.47-.7,1.29-1.38,1.69-2.1.36-.63.44-1.28.73-1.92.1-.22.29-.43.46-.65.4-.53,1.08-.54,1.53-.85.33-.23.48-.72.68-1.01.4-.59,1.34-1.42,1.92-1.71.3-.15.6-.27.89-.39.41-.17.78-.4,1.17-.54.51-.14,1.03-.29,1.54-.43.68-.18,1.38-.5,2.05-.88.91-.52,1.9-1.56,2.69-2.41l-.22-.23c-.17.19-.34.38-.51.57-.2.2-.4.4-.61.6-.56.57-1.21,1.09-1.81,1.4-.61.31-1.23.59-1.85.75-.46.13-.93.26-1.39.39-.4.14-.78.37-1.2.54-.3.13-.62.23-.92.4-.59.33-1.48,1.07-1.92,1.71-.09.14-.18.28-.26.41-.09.18-.16.46-.4.61-.5.34-1.12.29-1.58.9-.24.32-.45.61-.59.93-.23.55-.31,1.14-.62,1.69-.19.34-.52.62-.8.98-.3.39-.63.73-.89,1.12-.23.34-.46.67-.64,1.02-.12.3-.25.59-.37.89-.18.39-.4.75-.56,1.14-.27.62-.56,1.23-.83,1.86-.16.38-.3.75-.54,1.13-.16.25-.4.47-.6.72-.14.16-.32.34-.5.46-.37.25-.69.54-1.05.76-.97.59-1.99,1.11-2.97,1.49-.41.15-.81.29-1.22.44-.47.17-.96.26-1.44.46-.33.14-.59.37-.94.59-.41.26-.82.53-1.22.79-.28.23-.57.45-.85.68-.4.26-.75.44-1.14.66-.53.3-1.15.82-1.66,1.3l.19.2c.81-.79,1.69-1.29,2.48-1.78.35-.21.64-.55,1-.79ZM207.26,25.32c-.32.21-.65.59-.87.89-.17.23-.64.54-.89.71-.31.21-.55.56-.85.76-.28.18-.56.4-.85.52-.25.1-.5.12-.75.21-.22.08-.44.2-.65.32-.71.49-1.41.97-2.12,1.46-.17.15-.33.3-.5.45-.34.27-.68.54-1.02.81-.09.08-.18.17-.27.25-.39.38-.67.74-.87,1.11-.31.57-.66,1.15-.9,1.72-.14.34-.16.7-.32,1.05-.13.28-.43.5-.66.79-.24.32-.55.62-.87.9-.19.22-.38.44-.57.66-.12.13-.25.26-.37.38-.16.21-.43.47-.64.61-.16.15-.32.29-.47.44-.34.3-.68.6-1.02.9-.43.29-.79.63-1.22.92-.16.13-.32.26-.48.4-.16.15-.33.31-.49.46-.42.37-.84.74-1.26,1.1-.46.32-.91.65-1.37.97-.14.11-.27.22-.41.33-.18.17-.37.35-.55.52-.42.4-.85.82-1.26,1.21-.39.37-.82.74-1.12,1.14-.17.17-.34.35-.51.52l.18.19c.42-.4.8-.78,1.11-1.17.2-.19.41-.39.61-.58.16-.21.54-.6.76-.75.26-.25.53-.5.79-.75.17-.15.35-.29.52-.44.5-.34.95-.72,1.46-1.07.56-.51,1.13-1.01,1.69-1.52.27-.22.54-.43.82-.65.6-.4,1.39-1.05,1.9-1.58.42-.44.98-.78,1.32-1.23.21-.24.41-.49.62-.73.1-.1.2-.21.3-.31.13-.17.42-.39.57-.58.23-.3.58-.52.74-.82.23-.41.24-.83.41-1.23.17-.4.39-.78.61-1.19.18-.33.36-.67.6-1.02.25-.35.66-.72.97-.94.19-.16.39-.31.58-.47.26-.23.51-.45.77-.68.38-.26.73-.5,1.11-.75.46-.29.84-.64,1.29-.84.43-.19.84-.23,1.29-.46.29-.15.53-.36.82-.56.11-.1.23-.21.34-.31.14-.12.29-.24.43-.35.27-.18.52-.37.78-.63.21-.22.42-.44.62-.66.1-.08.19-.16.29-.24.23-.16.46-.29.68-.4.14-.07.28-.13.41-.2,0,0,0,0,0,0l.51-.49c-.06.01-.11.03-.17.04-.56.22-1.09.49-1.64.85ZM176.97,37.5c.42-.29.79-.53,1.22-.82.27-.21.54-.41.81-.62.84-.55,1.52-1.05,2.34-1.34.71-.26,1.47-.38,2.2-.55.32-.08.62-.21.94-.33.63-.24,1.22-.46,1.86-.78.33-.17.65-.35.98-.52.16-.09.27-.22.44-.33.11-.1.22-.2.33-.31.12-.14.24-.28.35-.42.46-.67.87-1.31,1.24-1.99.22-.41.37-.82.56-1.22.19-.42.46-.81.69-1.22.23-.4.51-.74.82-1.15.15-.15.3-.31.45-.46.14-.15.28-.29.41-.44.24-.31.52-.57.71-.88.72-1.15.77-2.29-.05-3.48-.44-.64-1.25-.91-1.72-1.01-1.29-.26-2.63-.05-3.94.69-.35.2-.68.45-1.04.79-.1.1-.21.21-.31.31-.51.67-.94,1.25-1.25,1.9-.35.76-.61,1.51-.92,2.27-.22.53-.4,1.07-.72,1.6-.15.26-.36.49-.56.75-.11.14-.27.31-.41.4-.21.14-.36.32-.55.43-.24.13-.48.27-.72.4-.23.1-.47.2-.7.3-.29.14-.56.4-.86.58-.37.23-.74.45-1.11.68-.32.24-.63.47-.95.71-.43.28-.84.64-1.28.94-.21.17-.42.34-.64.51-.26.21-.51.43-.77.64-.09.08-.18.17-.27.25-.25.24-.48.45-.67.71-.18.18-.36.36-.54.53-.17.22-.53.57-.76.73-.17.16-.34.33-.5.49l.16.16c.59-.56,1.18-1.13,1.76-1.69.28-.29.56-.58.83-.87.27-.23.55-.46.82-.69.23-.19.46-.37.69-.56.48-.33.92-.72,1.38-1.02.32-.23.63-.47.95-.7.34-.21.69-.42,1.03-.63.25-.17.51-.35.76-.52.25-.11.51-.22.76-.33.49-.24.96-.54,1.45-1,.14-.14.28-.28.42-.42.19-.25.38-.47.52-.72.74-1.32,1.09-2.7,1.72-4.05.25-.54.62-1.02,1.03-1.56.36-.47.93-.9,1.36-1.14,1.21-.65,2.42-.9,3.61-.69.51.09.9.25,1.41.64.08.08.16.15.24.23.12.18.25.33.34.51.41.83.36,1.72-.08,2.53-.16.29-.38.55-.6.84-.15.17-.31.34-.46.5-.22.22-.43.45-.65.67-.32.42-.61.77-.84,1.18-.23.4-.45.8-.68,1.2-.17.37-.33.75-.5,1.12-.14.24-.29.48-.43.72-.37.65-.77,1.26-1.33,1.9-.12.1-.24.19-.36.29-.42.27-.8.46-1.21.67-.58.3-1.11.49-1.68.71-.39.15-.76.31-1.15.4-.7.17-1.42.27-2.12.52-.81.29-1.53.82-2.36,1.36-.25.19-.49.38-.74.57-.48.33-.89.6-1.36.92-.27.26-.54.51-.8.77-.39.35-.77.7-1.16,1.05l.17.18c.38-.34.75-.67,1.13-1.01.3-.29.52-.59.83-.8ZM173.88,33.22c.26-.25.52-.49.77-.74.18-.14.36-.29.54-.43.61-.41,1.2-.87,1.83-1.29.3-.23.59-.46.89-.7.21-.15.42-.3.62-.44.55-.31,1.07-.64,1.64-1.02.3-.2.57-.5.86-.78.26-.25.51-.5.77-.76.46-.62.58-1.09.83-1.69.22-.52.41-1.05.63-1.56.13-.31.33-.6.5-.92.26-.49.49-.97.83-1.47.37-.55.94-1.08,1.49-1.61.32-.3.65-.59.98-.77,1.05-.59,2.08-.87,3.12-1.03.25-.03.49-.07.74-.1.33-.06.64-.22.96-.27.36-.05.72-.07,1.09-.16.46-.18.92-.35,1.38-.53.55-.21,1.1-.33,1.66-.61.33-.17.62-.43.96-.65.43-.27.83-.54,1.26-.75.6-.3,1.21-.39,1.81-.61.65-.24,1.27-.58,1.93-.85.34-.14.69-.33,1.03-.55.13-.1.26-.2.39-.31.12-.11.25-.22.37-.33.21-.27.43-.48.6-.74.3-.45.6-.91.9-1.36l-.21-.22c-.19.3-.38.59-.57.89-.28.44-.6.84-.95,1.28l-.38.33c-.18.12-.31.25-.48.35-.3.17-.6.32-.89.45-.63.28-1.23.62-1.86.85-.65.24-1.28.35-1.93.68-.41.21-.79.48-1.21.74-.32.2-.59.45-.91.61-.55.28-1.08.4-1.62.6-.47.17-.94.41-1.41.52-.36.09-.72.1-1.08.16-.3.08-.59.16-.89.24-1.31.23-2.56.39-3.9,1.17-.32.19-.63.45-.92.73-.52.49-1.1.98-1.46,1.5-.19.27-.39.53-.54.8-.14.28-.29.55-.43.83-.2.36-.43.71-.58,1.07-.21.5-.4,1.01-.62,1.52-.24.58-.33,1-.78,1.61-.24.23-.47.45-.71.68-.38.38-.78.78-1.18,1.03-.57.36-1.08.65-1.65,1.03-.36.28-.72.55-1.08.83-.62.42-1.2.89-1.8,1.27-.17.13-.33.26-.5.39-.37.35-.75.71-1.12,1.06-.33.31-.67.61-.92.94-.12.12-.23.24-.35.37-.32.31-.63.63-.95.94l.16.16c.42-.41.84-.83,1.26-1.24.28-.36.78-.89,1.13-1.16ZM172.14,33.36c.24-.25.48-.5.72-.75.13-.12.27-.25.4-.37.17-.14.33-.28.5-.42.17-.16.34-.31.51-.47.52-.36,1.03-.85,1.58-1.21.75-.49,1.51-.98,2.26-1.47.24-.19.49-.39.73-.58.42-.29.97-.72,1.29-1.17.38-.51.69-.98,1.01-1.48.42-.66.87-1.27,1.17-1.93l.36-.84c.2-.45.49-.91.76-1.34.31-.49.69-.91,1.07-1.41.35-.46.98-1.07,1.46-1.39.71-.47,1.41-.9,2.13-1.16.6-.22,1.24-.38,1.86-.51.94-.2,1.87-.22,2.83-.61.24-.12.49-.24.73-.35.33-.14.66-.29,1-.48.32-.18.59-.47.92-.69.45-.3.89-.61,1.34-.91.43-.29.77-.79,1.2-1.08.42-.28.79-.41,1.19-.64.26-.15.47-.41.75-.61.11-.11.23-.22.34-.32.25-.18.65-.55.84-.8.7-.93,1.07-1.84,1.69-2.75l-.22-.23c-.23.25-.46.74-.6,1.02-.3.59-.64,1.16-1.05,1.73-.18.25-.45.47-.69.7-.36.35-.73.72-1.1.95-.41.25-.81.39-1.22.67-.37.25-.62.68-.99.93-.21.16-.42.32-.64.48-.32.21-.64.42-.95.63-.14.12-.29.24-.43.35-.27.18-.5.37-.76.5-.28.12-.57.24-.85.37-.48.2-.9.43-1.37.54-.43.1-.87.15-1.3.21-.52.08-1.01.23-1.53.35-.27.07-.54.15-.82.22-.81.29-1.61.75-2.43,1.29-.27.18-.79.62-1.01.9-.15.2-.36.35-.49.52-.4.53-.8.97-1.13,1.49-.48.76-.8,1.5-1.15,2.25-.2.43-.48.82-.75,1.24-.43.69-.85,1.32-1.37,2.02-.34.46-.88.88-1.32,1.18-.23.18-.47.37-.7.55-.71.44-1.43.92-2.12,1.38-.47.35-.93.7-1.4,1.05-.23.2-.45.4-.68.6-.27.19-.52.42-.78.67-.09.09-.19.18-.28.27-.2.27-.5.45-.7.72-.17.18-.35.36-.52.54-.3.3-.6.59-.9.89l.16.16c.34-.34.68-.67,1.02-1.01.14-.14.28-.28.41-.43ZM172.76,33.52c.25-.32.63-.75.99-1,.23-.21.46-.42.69-.64.2-.16.39-.31.59-.47.5-.33.95-.71,1.47-1.04.42-.26.82-.48,1.22-.73.22-.17.43-.33.65-.5.3-.2.6-.41.9-.59.69-.42,1.27-1.24,1.95-1.71.23-.16.61-.59.63-.76-.01-.01-.03-.02-.04-.03-.02,0-.04,0-.06,0-.21.07-.37.39-.59.54-.29.19-.66.41-.92.75-.27.36-.67.73-1.02.95-.29.19-.58.38-.88.58-.23.18-.47.36-.7.54-.4.24-.8.47-1.2.71-.62.38-1.15.86-1.77,1.27-.26.23-.52.46-.78.69-.12.11-.24.22-.36.32-.11.1-.22.2-.33.3-.24.23-.5.48-.69.73-.22.22-.45.45-.67.67-.29.32-.58.63-.87.95l.16.17c.29-.31.59-.63.88-.95.25-.26.51-.51.76-.77ZM191.47,26.68c-.25.41-.51.82-.76,1.23-.16.34-.32.68-.48,1.02-.3.64-.66,1.23-1.02,1.87-.49.85-1.37,1.86-2.32,2.37-.61.33-1.22.62-1.83.85-.41.13-.82.26-1.23.39-.27.09-.54.18-.81.27-.64.15-1.28.28-1.91.54-.67.27-1.29.76-1.98,1.17-.5.3-.99.74-1.51,1.05-.23.14-.6.29-.75.51,0,0,0,.01.01.02.01.04.04.04.07.05,1.41-.61,2.84-1.98,4.24-2.55.61-.25,1.23-.37,1.85-.52.48-.16.97-.32,1.45-.47,1.32-.48,2.56-.88,3.92-2.18.14-.16.28-.32.42-.49.27-.39.53-.75.75-1.13.78-1.41,1.31-2.75,2.3-4.16.42-.6,1.14-1.04,1.56-1.63.95-1.33,1.33-2.38.82-3.74-.13-.35-.41-.98-.85-1.31-.33-.25-.61-.46-.94-.6-.59-.25-1.29-.34-1.89-.29-.25.02-.52.01-.77.05-1.09.16-2.36.5-3.42,1.57-.21.21-.42.42-.62.63-.19.23-.37.47-.56.71-.39.58-.71,1.15-.96,1.74-.34.79-.56,1.6-.93,2.41-.24.51-.49.97-.86,1.49-.21.29-.7.66-.75.94,0,0,.02.02.03.03.18,0,.75-.6.9-.8.65-.88,1.05-1.75,1.37-2.64.4-1.15.78-2.12,1.6-3.28,1.69-2.42,4.61-2.94,6.48-2.42.38.11.73.32,1.11.6.47.35.71.91.85,1.29.47,1.3.09,2.29-.85,3.56-.48.65-1.31,1.23-1.71,1.85ZM173.68,34.2c.08-.07.15-.14.23-.22.24-.23.48-.47.72-.7.6-.57,1.19-1.07,1.8-1.45.45-.29.88-.57,1.34-.88.4-.27.74-.63,1.13-.86.52-.32,1.02-.65,1.57-1,.31-.2.83-.59,1.11-.95.16-.19.33-.38.49-.56.24-.33.45-.62.63-.95.35-.63.53-1.3.79-1.93.21-.49.41-.96.63-1.44.22-.47.46-.92.77-1.38.2-.25.4-.49.6-.74.48-.64,1.16-1.31,1.82-1.65.59-.3,1.16-.53,1.74-.64.7-.14,1.47-.3,2.16-.21.31.03.62.07.93.1.17.03.35.07.52.06.34-.03.7-.15,1.03,0,.2.1.38.38.5.55.16.17.33.34.49.51.1.11.16.3.29.33.02-.01.04-.03.06-.04.1-.13-.03-.23-.13-.37-.2-.29-.88-.81-.72-1.06.11-.17.5-.14.63-.15.59-.07.95-.36,1.54-.66.14-.07.47-.21.51-.39,0,0-.01-.02-.02-.03-.03,0-.05-.02-.08-.02-.24.12-.52.23-.78.36-.3.15-.58.36-.88.43-.21.05-.43.05-.64.08-.23.05-.45.09-.68.14-.35.04-.71.03-1.07.06-.23.02-.48-.04-.72-.07-.28-.03-.55-.06-.83-.09-.26-.03-.56,0-.82.02-1.05.11-2.06.29-3.13.86-.74.4-1.52,1.16-2.05,1.88-.18.24-.39.44-.54.68-.32.51-.6,1.01-.83,1.53-.2.44-.4.9-.59,1.36-.27.66-.47,1.33-.84,2-.17.31-.42.58-.65.9-.32.44-.81.88-1.25,1.16-.25.18-.51.36-.76.54-.44.27-.86.53-1.31.83-.32.25-.64.5-.96.76-.53.35-1.05.7-1.61,1.04-.26.21-.52.41-.78.62-.37.36-.75.71-1.12,1.07-.45.43-.88.82-1.22,1.26-.33.33-.67.65-1,.98l.16.16c.36-.35.73-.69,1.09-1.04.24-.26.48-.52.71-.78ZM173.84,35.67c.27-.25.53-.49.8-.74.93-1.11,2.24-2.13,3.34-2.84.33-.25.66-.5.98-.74.89-.54,1.8-.96,2.67-1.46.29-.17.54-.44.84-.64.35-.24.87-.62,1.16-1.01.58-.78.79-1.44,1.12-2.2.28-.58.57-1.15.85-1.73.31-.74.48-1.38,1.02-2.14.34-.48.94-.95,1.39-1.18,1.26-.64,2.75-1,3.96-.31.85.48,1.12,1.43,1.01,2.08-.1.56-.43,1.02-.84,1.59-.16.19-.33.37-.49.56-.27.36-.72.66-.97,1.02-.32.47-.53.94-.78,1.4-.19.35-.45.67-.6,1.01-.16.37-.26.74-.43,1.11-.28.59-.8,1.26-1.23,1.83-.49.65-1.12.75-1.61.95-.21.08-.4.25-.62.38-.15.1-.36.18-.48.35,0,.03.01.04.04.08.02,0,.03,0,.05,0,.15-.07.32-.13.48-.22.17-.1.33-.21.5-.31.24-.08.48-.17.71-.25.21-.09.41-.22.62-.36.58-.39.98-1.11,1.28-1.59.2-.32.41-.61.56-.93.13-.32.25-.65.38-.97.14-.32.38-.62.56-.95.28-.5.48-1,.85-1.5.36-.49.93-.89,1.29-1.37.21-.28.45-.54.62-.83.4-.69.53-1.39.27-2.1-.13-.35-.42-.84-.85-1.11-.28-.18-.56-.31-.85-.38-.59-.15-1.21-.13-1.81-.03-.46.08-.95.21-1.41.44-.22.13-.45.26-.67.39-1.38.88-1.74,2.19-2.19,3.26-.23.56-.56,1.09-.81,1.65-.23.52-.39,1.05-.68,1.58-.16.29-.41.54-.65.85-.1.09-.21.18-.31.26-.21.17-.42.33-.63.5-.24.17-.43.38-.67.52-.34.2-.68.34-1.01.51-.57.32-1.13.65-1.7.97-.39.29-.78.59-1.17.88-.31.19-.6.41-.92.62-.2.16-.4.33-.6.49-.26.17-.63.47-.84.74l-.46.48c-.19.2-.39.4-.58.59-.21.19-.41.38-.62.57-.42.4-.83.79-1.25,1.19l.16.16c.26-.25.53-.5.79-.75.14-.13.28-.26.42-.39ZM171.42,31.11c.13-.12.27-.23.4-.35.09-.09.19-.18.28-.27.25-.22.49-.43.74-.65.2-.15.4-.3.6-.46.4-.26.78-.5,1.18-.77.18-.17.36-.33.54-.5.41-.37.65-.84.87-1.24.08-.15.21-.28.33-.43.16-.21.43-.37.61-.48.35-.22.9-.62,1.18-1.01.47-.65.84-1.24,1.28-1.89.2-.3.49-.55.72-.86.11-.14.31-.31.44-.4.21-.17.43-.34.64-.52.23-.16.62-.45.81-.71.31-.41.56-.77.86-1.17.37-.51.88-.94,1.35-1.43.22-.23.63-.46.89-.63.29-.19.52-.44.8-.6.38-.21.74-.35,1.1-.51.34-.17.67-.34,1.01-.51.68-.27,1.34-.41,2.03-.7.37-.15.73-.36,1.11-.6.24-.18.48-.36.73-.54.18-.12.59-.4.72-.57,0-.02-.01-.04-.02-.07,0,0-.02-.01-.03-.02-.1-.03-.23.09-.34.16-.25.15-.48.35-.74.52-.26.18-.52.36-.79.53-.6.34-1.23.61-1.84.75-.64.15-1.23.48-1.89.8-.38.19-.77.3-1.16.54-.28.17-.53.42-.82.62-.29.2-.58.39-.86.59-.22.15-.58.55-.72.73-.24.26-.49.53-.73.79-.3.41-.56.77-.88,1.2-.14.12-.27.24-.41.37-.16.13-.32.26-.48.39-.32.22-.81.59-1.08.95-.24.32-.49.58-.7.89-.31.47-.62.94-.93,1.41l-.4.48c-.11.1-.23.2-.34.31-.15.11-.29.23-.44.34-.26.17-.62.37-.86.68-.29.38-.48.72-.73,1.09-.16.24-.4.44-.59.69-.26.35-.73.61-1.02.77-.35.2-.66.46-1.01.71-.44.3-.78.79-1.23,1.11-.87.61-1.73,1.56-2.57,2.36l.16.16c.73-.7,1.5-1.58,2.24-2.08ZM175.93,27.48s.03.02.04.03c.02,0,.04,0,.06,0,.06-.06.13-.11.19-.17.06-.07.12-.13.18-.2.2-.26.59-.55.64-.82-.02-.01-.03-.03-.05-.04-.01,0-.02,0-.03-.01-.28.14-.97,1.01-1.02,1.21ZM172.21,32.54c.19-.2.38-.4.57-.59.12-.16.31-.34.48-.46.26-.2.54-.5.83-.69.53-.36,1.06-.73,1.6-1.09.22-.17.45-.35.67-.52.41-.27.85-.51,1.24-.93.27-.28.4-.59.61-.88.14-.19.36-.31.51-.51.19-.25.4-.45.56-.69.22-.3.45-.56.64-.86.17-.26.28-.53.43-.79.14-.19.28-.39.42-.58.14-.18.67-.67.57-.82-.03,0-.06,0-.09,0-.08.02-.24.18-.3.26-.2.26-.44.46-.62.72-.23.34-.38.66-.57.99-.19.32-.43.59-.66.91-.17.24-.35.49-.6.73-.2.19-.4.35-.54.56-.24.35-.44.8-.9,1.11-.31.22-.62.43-.93.65-.29.23-.59.45-.88.68-.78.51-1.52.98-2.3,1.72-.21.2-.44.39-.59.6-.17.17-.33.35-.5.52-.12.11-.24.23-.36.34-.32.32-.63.64-.95.96-.12.12-.24.25-.36.37l.16.16c.46-.47.93-.94,1.39-1.41.16-.15.32-.31.48-.46ZM172.27,31.68c.31-.3.58-.6.92-.83.74-.51,1.39-1,2.12-1.49.45-.35.91-.71,1.36-1.06.08-.08.16-.15.24-.23.27-.26.5-.51.69-.77.18-.22.36-.44.54-.66.22-.24.45-.47.67-.71.6-.8.87-1.52,1.46-2.32.21-.28.55-.56.82-.75.39-.27.75-.75.96-1.07.27-.41.38-.79.61-1.19.15-.26.38-.48.56-.74.34-.49.82-1.05,1.37-1.49.2-.17.39-.34.59-.52.44-.3.85-.65,1.29-.86,1.51-.74,3.02-1.03,4.55-1.79.27-.16.55-.33.82-.49.49-.26.96-.51,1.46-.83.31-.2.57-.52.9-.74.39-.26.78-.52,1.17-.78.36-.27.72-.53,1.09-.8.41-.25.79-.51,1.19-.72.46-.24.99-.52,1.43-.99.47-.5.7-.95.97-1.44.24-.43.47-.81.66-1.23.17-.36.31-.76.57-1.11l-.22-.23c-.11.12-.18.29-.24.41-.19.38-.36.75-.54,1.13-.15.33-.35.63-.54.95-.15.27-.28.55-.47.82-.14.16-.28.32-.41.48-.11.09-.21.18-.32.27-.31.21-.55.41-.84.56-.58.31-1.11.68-1.71,1.06-.32.24-.65.49-.97.73-.31.21-.62.41-.93.62-.37.25-.69.63-1.05.86-.43.27-.84.46-1.25.68-.31.19-.63.38-.94.56-.58.29-1.17.53-1.76.74-.36.11-.71.23-1.07.34-.27.12-.54.23-.81.35-.27.1-.54.21-.8.31-.58.28-1.08.75-1.67,1.15-.19.17-.37.34-.56.51l-.28.27c-.35.35-.62.65-.86.99-.22.32-.5.6-.68.92-.2.36-.28.71-.52,1.07-.15.22-.49.68-.73.84-.35.24-.82.63-1.07.98-.24.32-.46.61-.64.93-.24.44-.43.85-.77,1.3-.25.27-.51.54-.76.81-.29.35-.58.7-.87,1.06-.14.15-.28.3-.42.44-.12.1-.24.21-.36.31-.39.3-.78.6-1.17.9-.51.35-1.02.69-1.53,1.04-.2.15-.4.3-.6.46-.29.27-.58.54-.88.81-.47.45-.93.9-1.4,1.35-.26.34-.54.66-.89.98l.16.17c.37-.37.71-.72,1.01-1.11.43-.41.85-.83,1.28-1.24ZM170.41,32.77c.14-.15.29-.3.43-.44.23-.22.45-.44.68-.66.22-.29.57-.61.86-.82.2-.17.39-.33.59-.5.73-.49,1.47-1.01,2.2-1.49l.5-.44c.28-.19.54-.43.81-.69.09-.09.18-.17.27-.26.15-.18.31-.36.46-.54.16-.23.32-.46.47-.69.23-.31.59-.57.79-.87.41-.59.72-1.15,1.12-1.74.23-.34.56-.58.82-.93.15-.19.39-.45.61-.6.3-.2.75-.54.84-.86-.01-.01-.02-.03-.03-.04-.02,0-.04-.01-.06-.02-.14.13-.28.25-.42.38-.49.34-1.02.81-1.4,1.3-.16.21-.39.39-.54.61-.33.52-.67,1.04-1,1.56-.16.23-.38.43-.57.67-.1.1-.2.2-.3.3-.22.28-.38.55-.58.83-.17.19-.33.38-.5.57-.15.19-.36.35-.54.47-.12.1-.24.2-.37.31-.18.15-.35.3-.53.45-.7.45-1.41.97-2.1,1.42-.31.2-.55.51-.88.74-.24.16-.53.46-.7.68-.25.24-.49.48-.74.72-.4.41-.79.81-1.19,1.22l.16.17c.28-.27.61-.55.83-.84ZM189.12,24.48c-.36.23-.64.63-.82.93-.59.94-1.16,1.85-1.79,2.79-.2.26-.41.52-.61.78-.29.38-.7.54-1.03.85-.47.45-.87.95-1.4,1.3-.37.24-.73.54-1.11.74-.49.23-.98.46-1.48.69-.45.22-.87.5-1.32.79-.89.56-1.7,1.09-2.6,1.95-.22.22-.43.44-.65.65-.06.09-.18.14-.17.23,0,0,0,.02,0,.03.02.01.04.02.05.03.3-.12.66-.53.95-.8.09-.08.18-.17.27-.25.16-.13.31-.27.47-.4.35-.24.67-.51,1.01-.72.6-.36,1.2-.82,1.79-1.12.71-.36,1.4-.62,2.12-1.05.44-.26.79-.59,1.24-.9.31-.31.61-.62.92-.93.11-.09.21-.18.32-.27.24-.16.48-.36.72-.59.14-.16.28-.33.43-.49.24-.33.48-.67.72-1,.58-.91,1.11-1.82,1.8-2.74.07-.06.14-.12.21-.18.28-.19.5-.4.77-.58.52-.35,1.28-1.32.74-1.7-.19-.13-.43-.11-.63-.08-.53.09-1.1.41-1.62.91-.09.09-.18.17-.27.26-.21.28-.49.51-.68.79-.35.5-.61.99-.93,1.5-.31.49-.68.95-.91,1.44-.16.34-.24.67-.44.99-.07.11-.3.33-.28.45,0,.02,0,.02.02.03.01,0,.03.01.04.02.55-.27.75-1.17.98-1.58.22-.41.53-.77.79-1.18.29-.48.58-.96.87-1.43.18-.27.45-.51.65-.79.12-.12.25-.24.37-.36.11-.09.22-.19.33-.28.34-.22.65-.41.98-.5.15-.04.48-.14.62.09.18.31-.17.61-.41.93-.24.32-.73.57-1.03.77ZM175.8,37.01c.44-.29.81-.48,1.26-.78.29-.25.59-.49.88-.74.09-.08.18-.17.28-.25.12-.11.23-.22.35-.32.5-.34.96-.73,1.47-1.01.64-.36,1.24-.55,1.86-.81.61-.25,1.19-.63,1.81-1.02.57-.36,1.27-1.09,1.66-1.61.13-.18.39-.38.54-.48.25-.17.62-.52.81-.75.07-.07.15-.15.22-.22.39-.52.82-1.01,1.13-1.55.19-.34.36-.68.57-1.01.28-.45.56-.82.91-1.29.18-.17.35-.33.53-.5.86-.81,1.8-1.63,1.14-2.5-.24-.32-.82-.3-1.13-.26-.94.12-2.12.91-2.93,1.99-.19.22-.38.43-.57.65-.55.79-.99,1.58-1.36,2.39-.24.52-.46,1.06-.75,1.58-.12.21-.29.39-.45.6-.32.43-.98.88-1.36,1.12-.18.11-.35.23-.53.34-.19.09-.38.19-.57.28-.2.13-.41.27-.61.4-.48.24-.96.45-1.46.76-.71.5-1.42,1-2.12,1.5-.14.11-.29.23-.43.34-.42.4-.85.79-1.27,1.19-.24.18-.52.46-.69.69-.13.14-.25.27-.38.41-.47.44-.93.87-1.4,1.31l.17.18c.37-.34.73-.68,1.1-1.02.16-.15.32-.31.48-.46.17-.19.34-.37.52-.56.1-.13.27-.31.42-.41l.35-.32c.3-.28.6-.56.9-.84.89-.61,1.69-1.31,2.59-1.85.45-.28.9-.45,1.35-.68.2-.13.4-.26.6-.39l.73-.37c.19-.13.39-.26.58-.39.33-.21.63-.46.96-.77.1-.1.2-.19.3-.29.14-.19.3-.35.41-.54.31-.53.54-1.09.78-1.63.36-.79.81-1.56,1.33-2.33.15-.23.36-.4.54-.63.69-.92,1.77-1.79,2.68-1.95.29-.05.85-.13,1.11.26.29.43-.03.85-.35,1.27-.09.09-.18.19-.27.28-.18.17-.37.35-.55.52-.19.18-.38.36-.58.54-.37.49-.68.89-.97,1.36-.16.29-.32.58-.48.87-.31.54-.72,1.06-1.13,1.58-.23.29-.78.8-1.11,1.03-.16.11-.39.3-.52.47-.45.59-1.12,1.23-1.72,1.61-.48.3-.95.61-1.43.81-.67.28-1.32.5-2,.88-.58.33-1.13.75-1.68,1.18-.51.4-.9.88-1.41,1.23-.41.28-.76.43-1.15.68-.23.15-.41.38-.64.54-.36.33-.72.66-1.08.99l.17.18c.35-.31.7-.63,1.04-.94.19-.16.38-.33.57-.49ZM176.23,37.39c.55-.37,1.01-.69,1.56-1.07.17-.14.35-.29.52-.43.66-.45,1.26-1.07,1.92-1.41.66-.34,1.28-.5,1.93-.76.31-.13.59-.33.9-.51.33-.19.66-.38,1-.57.73-.45,1.3-1.23,1.78-1.86.11-.14.26-.28.4-.37.33-.23.85-.7,1.08-1.01.41-.55.92-1.06,1.28-1.62.31-.5.53-1.02.83-1.53.75-1.32,2.91-2.62,2.6-3.97-.04-.17-.15-.32-.27-.5-.31-.45-1.06-.55-1.4-.52-.64.05-1.21.19-1.86.56-.23.13-.42.32-.65.48-.17.12-.43.33-.58.52-.24.31-.58.55-.81.86-.29.4-.56.77-.78,1.16-.2.37-.35.74-.52,1.11-.12.22-.23.44-.35.67-.23.49-.4.97-.68,1.46-.11.18-.27.34-.4.53-.11.11-.23.22-.34.33-.47.45-.91.74-1.37,1.01-.4.27-.81.54-1.21.81-.27.13-.53.26-.8.38-.34.17-.67.37-1.01.58-.69.42-1.29.94-1.98,1.41-.21.17-.42.34-.63.52-.18.17-.36.35-.54.52-.22.23-.45.46-.67.7-.77.73-1.54,1.45-2.32,2.18l.16.17c.75-.71,1.51-1.42,2.26-2.12.16-.17.32-.33.49-.5.14-.18.49-.56.7-.7.23-.19.45-.37.68-.56.67-.45,1.26-.96,1.93-1.37.28-.16.55-.33.83-.49.35-.17.7-.34,1.05-.52.42-.28.84-.55,1.26-.83.27-.16.54-.35.82-.53l.41-.36c.15-.15.31-.29.46-.44.16-.21.34-.39.46-.6.28-.49.45-.97.68-1.45.13-.24.25-.48.38-.71.34-.73.64-1.35,1.18-2.1.68-.95,1.86-1.9,2.74-2.22.32-.12.64-.15.96-.18.35-.03,1.01.02,1.33.51.42.64.09,1.15-.37,1.78-.17.18-.33.37-.5.55-.13.14-.26.27-.39.41-.14.14-.28.28-.42.43-.29.38-.57.69-.78,1.05-.29.5-.5,1-.81,1.5-.36.58-.89,1.08-1.32,1.65-.4.53-1.03.79-1.45,1.34-.43.56-.93,1.25-1.59,1.66-.34.21-.66.39-.99.58-.33.19-.63.39-.96.52-.63.26-1.25.4-1.9.76-.64.36-1.22.94-1.87,1.39-.23.19-.46.38-.69.57-.49.32-.92.6-1.4.93-.16.14-.32.28-.48.43-.41.39-.82.77-1.23,1.16l.17.18c.39-.37.78-.74,1.18-1.11.15-.13.29-.27.44-.4ZM171.65,30.21c.31-.21.53-.51.82-.71.43-.31.85-.62,1.28-.93.29-.18.79-.52,1.05-.86.43-.56.77-1.02,1.19-1.58.1-.13.25-.26.37-.34l.28-.24c.31-.3.77-.55,1.07-.94.28-.34.55-.67.83-1.01.3-.45.6-.9.9-1.35.13-.16.26-.31.39-.47.37-.48,1-.85,1.46-1.28.1-.1.2-.19.3-.29.32-.4.65-.8.97-1.2.2-.21.4-.42.6-.63.14-.15.28-.29.42-.44.14-.17.38-.42.57-.54.28-.19.55-.37.83-.56.32-.21.59-.47.89-.65.42-.23.82-.33,1.24-.5.45-.23.89-.46,1.34-.69.63-.26,1.25-.32,1.89-.64.65-.32,1.24-.84,1.88-1.22.32-.17.63-.34.95-.51.37-.25.74-.49,1.11-.74.39-.33.78-.66,1.17-.99.56-.38,1.1-.71,1.66-1.06.11-.09.23-.18.34-.27.22-.15.44-.35.66-.56.08-.08.16-.15.24-.23.1-.13.21-.26.31-.38.23-.35.41-.71.59-1.06.12-.22.24-.45.36-.67.23-.49.44-1.04.84-1.51l-.21-.22c-.07.1-.13.2-.2.3-.16.27-.33.53-.45.8-.29.61-.61,1.22-.95,1.82-.15.28-.5.83-.86,1.08-.33.23-.59.54-.91.74-.54.35-1.05.67-1.61,1.04-.45.31-.83.8-1.28,1.08-.31.2-.62.41-.94.61-.37.21-.74.4-1.11.63-.55.33-1.06.77-1.62,1.06-.65.33-1.27.39-1.91.65-.42.17-.82.45-1.24.66-.41.2-.83.27-1.24.48-.37.19-.7.5-1.08.75-.25.16-.49.32-.74.49-.3.21-.79.7-1,.98-.21.22-.42.43-.63.65-.36.43-.71.81-1.02,1.25-.1.1-.21.21-.31.31-.38.37-.84.61-1.17,1.02-.09.09-.19.18-.28.27-.16.2-.32.39-.48.59-.3.44-.57.88-.88,1.33-.28.33-.55.66-.83.99-.12.15-.31.32-.45.42-.1.09-.2.18-.3.26-.22.15-.45.37-.65.56l-.27.26c-.31.41-.58.76-.85,1.15-.14.17-.28.34-.43.5-.24.32-.78.65-1.05.83-.54.35-.98.76-1.52,1.14-.18.16-.36.32-.54.48-.28.19-.53.43-.81.69-.11.11-.22.22-.33.33-.12.12-.24.24-.36.36-.41.39-.83.79-1.24,1.18l.15.16c.48-.46.97-.92,1.45-1.39.4-.46.9-.91,1.37-1.23ZM191.14,24.69c-.11.12-.22.23-.32.35-.18.24-.49.47-.67.72-.2.29-.4.58-.57.88-.22.4-.4.81-.65,1.22-.15.24-.38.43-.56.68-.22.3-.44.6-.66.91-.31.43-.89.85-1.29,1.13-.44.31-.69.85-.96,1.21-.15.15-.31.31-.46.46-.49.47-.93.85-1.4,1.04-.16.07-.6.22-.64.42.01,0,.03.02.04.03.15.05.41-.11.57-.16.22-.08.45-.17.68-.31.2-.12.4-.34.59-.52.24-.22.49-.45.73-.67.1-.13.19-.25.29-.38.19-.31.41-.73.81-1.01.37-.26.86-.57,1.17-.99.23-.32.43-.61.66-.92.2-.28.48-.5.65-.77.46-.74.75-1.45,1.31-2.21.23-.25.47-.5.7-.75.25-.28.5-.57.74-.85.5-.67.84-1.2.76-1.87-.09-.74-.69-1.35-1.41-1.55-1.14-.3-2.24.01-3.42.74-.54.33-.96.91-1.28,1.37-.13.19-.3.35-.33.54.04.04.05.03.08.04.3-.21.54-.58.73-.86.23-.33.63-.7.96-.91,1.06-.66,2.14-.97,3.18-.69.97.27,1.38,1.21,1.16,1.98-.17.59-.75,1.1-1.2,1.7ZM178.73,38.3c.61-.35,1.14-.86,1.72-1.1.36-.15.74-.24,1.09-.37.35-.13.7-.26,1.05-.4.28-.08.57-.16.85-.24.42-.13.83-.27,1.25-.43.71-.26,1.43-.56,2.14-.92.45-.23.86-.52,1.31-.8.49-.31,1.17-.84,1.54-1.37.8-1.14,1.23-2.25,1.76-3.4.22-.49.36-.94.63-1.42.17-.27.34-.53.51-.8.08-.13.18-.23.21-.36-.01-.01-.03-.02-.04-.03h-.06c-.21.18-.34.38-.46.57-.19.29-.41.56-.55.85-.11.23-.17.46-.26.68-.21.45-.42.9-.63,1.35-.45,1.06-1.11,2.62-2.46,3.51-.75.49-1.45.99-2.2,1.3-.66.27-1.3.56-1.96.77-1.25.41-2.55.76-3.81,1.28-.61.25-1.16.79-1.78,1.14-.45.25-.9.43-1.36.69-.51.29-1.03.78-1.51,1.23l.18.19c.51-.46,1.05-.96,1.59-1.27.43-.24.84-.41,1.27-.65ZM178.36,37.85c.61-.36,1.15-.83,1.75-1.16.63-.35,1.27-.55,1.89-.77.17-.06.34-.11.51-.17,1.61-.4,3.17-.91,4.79-1.86.53-.31,1.39-.88,1.84-1.5.21-.3.44-.57.62-.87.46-.77.83-1.53,1.19-2.31.15-.34.3-.68.44-1.02.24-.43.53-.85.81-1.27.41-.6,1.2-1.06,1.67-1.69.17-.22.36-.42.5-.65.36-.57.59-1.16.68-1.74.1-.66-.02-1.23-.26-1.91-.13-.34-.24-.69-.47-1.04-.2-.32-.53-.61-.81-.78-.12-.08-.26-.21-.39-.09,0,.01-.02.03-.02.04.02.16.2.22.34.31.23.15.51.4.67.66.65,1.03.87,2.16.62,3.18-.13.5-.38.98-.71,1.47-.14.17-.27.33-.41.5-.18.23-.63.69-.88.86-.33.23-.7.73-.87.99-.24.38-.48.77-.72,1.15-.48,1.01-.91,2.04-1.49,3.05-.2.35-.46.67-.71,1.02-.1.11-.2.22-.3.32-.08.08-.17.15-.25.23-.11.1-.22.19-.33.29-.26.18-.52.37-.77.52-.68.4-1.33.76-2.01,1.01-.57.18-1.13.36-1.7.54-1.01.36-2.03.53-3.05,1.03-.53.26-1.06.63-1.59.97-.27.19-.54.37-.81.56-.47.27-.94.38-1.39.64-.48.27-1,.77-1.46,1.21l.17.18c.45-.37.89-.86,1.36-1.12.52-.3,1.04-.45,1.58-.77ZM187.07,30.82c.02-.05.05-.08.06-.13,0,0,0-.01-.01-.02-.02,0-.03-.02-.05-.03-.21.08-.79.5-.75.75,0,0,.02.01.03.02.01,0,.03,0,.04,0,.23-.2.46-.39.69-.59ZM179.02,38.81c.37-.21.69-.54,1.06-.78.35-.22.67-.39,1.01-.54.1-.05.33-.11.38-.25-.01-.02-.03-.04-.04-.07-.15-.04-.36.1-.52.16-.31.12-.61.27-.93.46-.19.14-.37.27-.56.41-.22.15-.43.29-.65.44-.3.16-.61.28-.92.46-.59.33-1.16.82-1.74,1.37l.18.19c.54-.53,1.14-1.01,1.7-1.33.34-.17.68-.35,1.02-.52ZM186.14,31.87s.03.02.04.03c.23.08.82-.38,1.07-.57.06-.13.26-.3.34-.42.35-.53.78-1.04,1.04-1.56.1-.2.27-.41.27-.61-.04-.04-.05-.03-.08-.04-.3.27-.43.65-.61.95-.18.3-.45.57-.66.87-.12.17-.23.34-.35.52-.18.24-.48.42-.69.53-.13.07-.29.12-.38.25,0,.02,0,.03,0,.05ZM174.77,37.12c.15-.14.3-.28.45-.41.17-.18.33-.36.5-.54.16-.22.46-.47.6-.65.72-.86,1.81-1.67,2.62-2.16.28-.19.55-.37.83-.56.43-.25.87-.49,1.3-.74.53-.26,1.06-.46,1.61-.8.37-.23.7-.57,1.07-.83.27-.25.54-.51.81-.76.44-.31.95-.62,1.3-1.1.49-.66.85-1.3,1.23-1.97.19-.28.38-.56.57-.84.29-.46.55-.91.9-1.39.28-.4.71-.8,1.11-1.06.15-.1.3-.26.45-.25,0,0,0,0,0,0,.04.43-1.01.81-1.06,1.11,0,0,0,0,0,0,.03.03.04.03.07.03.35-.17.91-.51,1.13-.94.05-.11.18-.33,0-.41-.28-.13-1.11.49-1.45.85-.62.67-.99,1.27-1.38,1.92-.2.29-.4.59-.6.88-.37.65-.72,1.31-1.18,1.94-.36.49-.87.71-1.29,1.05-.23.22-.46.43-.68.65-.35.27-.7.54-1.05.81-.64.39-1.22.63-1.84.93-.63.32-1.23.74-1.86,1.14-.49.31-.92.68-1.42,1.02-.19.17-.37.33-.56.5-.23.16-.67.59-.84.81-.11.1-.21.21-.32.31-.24.27-.47.53-.71.8-.15.14-.31.28-.46.43-.09.08-.18.16-.27.24-.26.18-.52.46-.77.7l.17.18c.25-.24.5-.5.76-.68.08-.07.16-.15.24-.22Z"/>
    </mask>
  </defs>
  <g class="st0">
    <path class="st2" d="M203.64,16.79c-.02-.32-.05-.63-.09-.95-.1-.77-.26-1.49-.48-2.15-.2-.63-.47-1.21-.78-1.75-.65-1.09-1.45-1.98-2.41-2.65-.95-.67-2.02-1.13-3.18-1.38-1.12-.24-2.26-.3-3.43-.16-.06,0-.11,0-.16.02-1.04.13-2.07.37-3.07.71-.68.23-1.36.51-2.02.84-.13.06-.25.12-.38.19-1.39.71-2.69,1.6-3.9,2.64-.09.08-.18.15-.27.23-1.4,1.24-2.67,2.65-3.81,4.23-.75,1.04-1.41,2.13-1.99,3.26-.31.58-.58,1.18-.83,1.78-.31.74-.58,1.49-.81,2.25-.32,1.04-.57,2.1-.75,3.18,0,.03,0,.05-.02.08-.18,1.07-.26,2.13-.26,3.2,0,.82.05,1.64.15,2.45.07.59.19,1.15.33,1.67.23.81.54,1.55.93,2.22.11.18.22.36.35.54.58.85,1.27,1.56,2.06,2.13.95.69,2.03,1.16,3.21,1.43,1.18.26,2.39.32,3.61.16,1.76-.23,3.46-.74,5.09-1.55,1.63-.8,3.15-1.83,4.54-3.09,1.4-1.26,2.66-2.67,3.78-4.27.54-.77,1.05-1.57,1.5-2.39.31-.56.6-1.13.87-1.71.15-.32.29-.64.43-.97.41-.98.75-1.98,1.03-3,.23-.83.41-1.67.54-2.53.04-.24.08-.48.1-.72.17-1.33.2-2.66.09-3.96ZM198.01,22.19c0,.11-.02.22-.04.33-.18,1.54-.46,3.09-.86,4.65-.4,1.57-.91,3.07-1.53,4.53-.63,1.46-1.36,2.76-2.2,3.91-.85,1.15-1.79,2.09-2.86,2.81-1.06.72-2.23,1.12-3.52,1.18-.87.04-1.68-.06-2.42-.32-.74-.25-1.39-.72-1.95-1.41-.56-.69-1.02-1.63-1.37-2.84-.18-.62-.33-1.33-.44-2.13h0c-.1-.75-.17-1.57-.21-2.47-.03-.62-.03-1.26,0-1.93.03-.75.09-1.53.18-2.34.17-1.54.46-3.08.84-4.63.39-1.55.9-3.07,1.52-4.53.62-1.47,1.35-2.78,2.19-3.91.32-.43.65-.83,1-1.21.57-.61,1.19-1.13,1.84-1.58.23-.15.46-.29.7-.42.64-.34,1.31-.57,2.03-.68.26-.04.52-.07.79-.09.68-.03,1.32.02,1.92.16.17.04.34.08.51.14.75.24,1.41.71,1.98,1.41.57.7,1.04,1.64,1.39,2.84.34,1.15.55,2.63.64,4.44h0c0,.07,0,.13.01.19.05,1.18,0,2.48-.14,3.9Z"/>
  </g>
  <g>
    <path class="st1" d="M133.23,8.13h-8.98v.19l.12.04c.65.38,1.04.81,1.04,1.57v28.99c0,.77-.39,1.19-1.04,1.57l-.12.08v.19h6.07v-.19l-.04-.04c-.69-.27-1.04-.85-1.04-1.61v-13.32l3.34-2.49c3.42-2.57,5.72-6.03,5.72-8.6v-.65c0-3.42-2-5.72-5.07-5.72ZM134.46,14.58c0,3.19-1.34,6.6-3.38,8.52l-1.84,1.73v-15.93h2.76c1.5,0,2.46,1.04,2.46,2.53v3.15Z"/>
    <path class="st1" d="M150.67,40.46c-.73-.27-1.15-.81-1.27-1.57l-5.57-30.75h-3.42v.19l.15.04c.65.19,1.04.65.96,1.15l-4.76,26.42c-.31,1.73-.92,3.23-1.88,4.49l-.15.15v.19h4.95v-.19l-.35-.19c-1.46-1.27-2.03-2.84-1.69-4.84l1.11-6.22,2.27,2.15c2.26,2,4.07,4.8,4.45,6.99l.08.46c.12.77-.15,1.27-.81,1.54l-.31.12v.19h6.41v-.19l-.19-.12ZM138.93,28.6l2.38-13.17,3.34,18.51-5.72-5.34Z"/>
    <path class="st1" d="M158.41,22.26c-1.96-3.15-3.11-6.37-3.11-8.91v-.77c0-2.65.81-4.07,2.03-4.07,1.04,0,1.96.88,2.38,2.61l3.3,11.25h.19l-.77-14.24h-.19v.15c0,.58-.27.96-.73.96-.31,0-.65-.15-1.11-.46-.77-.54-1.92-1.04-3.49-1.04-3.26,0-5.45,2.46-5.45,6.11v.85c0,2.76,1.19,6.22,3.34,9.6l1.46,2.3c1.96,3.15,3.11,6.41,3.11,8.91v.77c0,2.69-.77,4.11-2,4.11-1.04,0-1.96-.88-2.42-2.61l-3.3-11.25h-.19l.77,14.25h.19v-.15c0-.58.27-.96.73-.96.31,0,.65.15,1.11.46.77.54,1.96,1.04,3.49,1.04,3.3,0,5.45-2.46,5.45-6.11v-.88c0-2.76-1.19-6.22-3.34-9.56l-1.46-2.34Z"/>
    <path class="st1" d="M170.9,8.52c1.04,0,1.96.88,2.38,2.61l3.29,11.21c.06-.15.12-.3.18-.45l-.74-13.75h-.19v.15c0,.58-.27.96-.73.96-.31,0-.65-.15-1.11-.46-.77-.54-1.92-1.04-3.49-1.04-3.26,0-5.45,2.46-5.45,6.11v.85c0,2.76,1.19,6.22,3.34,9.6l1.46,2.3c1.96,3.15,3.11,6.41,3.11,8.91v.77c0,2.69-.77,4.11-2,4.11-1.04,0-1.96-.88-2.42-2.61l-3.3-11.25h-.19l.77,14.25h.19v-.15c0-.58.27-.96.73-.96.31,0,.65.15,1.11.46.77.54,1.96,1.04,3.49,1.04,2.7,0,4.62-1.64,5.24-4.23-.05-.07-.09-.14-.13-.22-.39-.67-.71-1.41-.93-2.22-.14-.53-.26-1.08-.33-1.67-.11-.82-.15-1.64-.15-2.46,0-.86.05-1.71.16-2.58-.48-1.05-1.07-2.12-1.75-3.18l-1.46-2.34c-1.96-3.15-3.11-6.37-3.11-8.91v-.77c0-2.65.81-4.07,2.04-4.07Z"/>
    <path class="st1" d="M208.83,22.26c-1.96-3.15-3.11-6.37-3.11-8.91v-.77c0-2.65.81-4.07,2.03-4.07,1.04,0,1.96.88,2.38,2.61l3.3,11.25h.19l-.77-14.24h-.19v.15c0,.58-.27.96-.73.96-.31,0-.65-.15-1.11-.46-.77-.54-1.92-1.04-3.49-1.04-2.58,0-4.49,1.54-5.18,3.99.04.07.09.14.13.21.32.54.58,1.12.78,1.75.22.66.38,1.38.48,2.15.04.32.07.63.09.95.11,1.31.07,2.63-.09,3.96-.01.13-.03.25-.05.38.48,1.05,1.05,2.11,1.72,3.16l1.46,2.3c1.96,3.15,3.11,6.41,3.11,8.91v.77c0,2.69-.77,4.11-2,4.11-1.04,0-1.96-.88-2.42-2.61l-3.3-11.25h0c-.05.14-.11.28-.16.41l.74,13.83h.19v-.15c0-.58.27-.96.73-.96.31,0,.65.15,1.11.46.77.54,1.96,1.04,3.5,1.04,3.3,0,5.45-2.46,5.45-6.11v-.88c0-2.76-1.19-6.22-3.34-9.56l-1.46-2.34Z"/>
    <g>
      <path class="st1" d="M7.91,8.88c.42,0,.8.34.88.73l2.46,12.36h.19l-.58-13.85H0v.19l.11.04c.65.39,1.04.81,1.04,1.58v28.98c0,.77-.38,1.19-1.04,1.57l-.11.08v.19h6.06v-.19l-.04-.04c-.69-.27-1.04-.85-1.04-1.61v-14.09h4.8v-.77h-4.8v-15.16h2.92Z"/>
      <path class="st1" d="M27.14,40.43c-.73-.27-1.23-.77-1.34-1.53l-1.81-12.17c-.19-1.23-1.11-1.92-2.42-1.92h-3.72l2.3-1.73c3.42-2.57,5.72-6.03,5.72-8.6v-.65c0-3.42-1.99-5.72-5.07-5.72h-8.98v.19l.12.04c.65.39,1.04.81,1.04,1.58v28.98c0,.77-.39,1.19-1.04,1.57l-.12.08v.19h6.06v-.19l-.04-.04c-.69-.27-1.04-.85-1.04-1.61v-13.32h2.15c.73,0,1.31.46,1.42,1.19l1.61,12.13c.08.73-.15,1.26-.85,1.53l-.31.12v.19h6.53v-.19l-.23-.12ZM16.81,8.88h2.76c1.5,0,2.45,1.04,2.45,2.53v3.15c0,3.19-1.34,6.6-3.38,8.52l-1.84,1.73v-15.93Z"/>
      <path class="st1" d="M36.54,39.24c-.08.39-.46.73-.88.73h-2.92v-19.38h4.8v-.77h-4.8v-10.94h2.92c.42,0,.8.34.88.73l2.46,9.1h.19l-.58-10.59h-10.86v.19l.11.04c.65.39,1.04.81,1.04,1.58v28.98c0,.77-.38,1.19-1.04,1.57l-.11.08v.19h10.86l.58-13.85h-.19l-2.46,12.36Z"/>
      <path class="st1" d="M48.55,8.12h-8.98v.19l.12.04c.65.39,1.04.81,1.04,1.58v28.98c0,.77-.39,1.19-1.04,1.57l-.12.08v.19h8.98c3.07,0,5.07-2.3,5.07-5.72V13.84c0-3.42-1.99-5.72-5.07-5.72ZM49.78,37.4c0,1.53-.96,2.57-2.45,2.57h-2.76V8.88h2.76c1.5,0,2.45,1.04,2.45,2.53v25.99Z"/>
      <path class="st1" d="M63.02,39.24c-.07.39-.46.73-.88.73h-2.92v-19.38h4.8v-.77h-4.8v-10.94h2.92c.42,0,.81.34.88.73l2.46,9.1h.19l-.58-10.59h-10.86v.19l.11.04c.65.39,1.04.81,1.04,1.58v28.98c0,.77-.39,1.19-1.04,1.57l-.11.08v.19h10.86l.58-13.85h-.19l-2.46,12.36Z"/>
      <path class="st1" d="M81.46,40.43c-.73-.27-1.23-.77-1.34-1.53l-1.8-12.17c-.19-1.23-1.11-1.92-2.42-1.92h-3.72l2.3-1.73c3.42-2.57,5.72-6.03,5.72-8.6v-.65c0-3.42-1.99-5.72-5.07-5.72h-8.98v.19l.12.04c.65.39,1.04.81,1.04,1.58v28.98c0,.77-.38,1.19-1.04,1.57l-.12.08v.19h6.06v-.19l-.04-.04c-.69-.27-1.04-.85-1.04-1.61v-13.32h2.15c.73,0,1.3.46,1.42,1.19l1.61,12.13c.08.73-.15,1.26-.85,1.53l-.31.12v.19h6.91v-.19l-.61-.12ZM71.13,8.88h2.76c1.5,0,2.45,1.04,2.45,2.53v3.15c0,3.19-1.34,6.6-3.38,8.52l-1.84,1.73v-15.93Z"/>
      <path class="st1" d="M88.48,8.31h.04v-.19h-6.06v.19l.11.04c.65.39,1.04.81,1.04,1.58v28.98c0,.77-.38,1.19-1.04,1.57l-.11.08v.19h6.06v-.19l-.04-.04c-.69-.27-1.04-.85-1.04-1.61V9.92c0-.77.31-1.34,1.04-1.61Z"/>
      <path class="st1" d="M101.56,35.41c0,2.15-1.65,3.61-4.18,3.61s-4.11-1.38-4.11-3.42V11.03c0-1.5.92-2.54,2.34-2.54,1.31,0,2.38.92,2.69,2.23l3.84,11.63h.19l-.77-14.24h-.19v.15c0,.58-.23.92-.73.92-.27,0-.65-.12-1.11-.42-.81-.54-2.11-1.04-3.92-1.04-3.72,0-6.18,2.3-6.18,5.72v21.96c0,3.42,2.61,5.72,6.49,5.72s6.41-2.3,6.41-5.72v-7.87h-.77v7.87Z"/>
      <path class="st1" d="M118.96,40.44c-.73-.27-1.15-.81-1.27-1.57l-5.56-30.75h-3.42v.19l.16.04c.65.19,1.03.65.96,1.15l-4.76,26.41c-.31,1.73-.92,3.22-1.88,4.49l-.15.16v.19h4.95v-.19l-.34-.19c-1.46-1.27-2.03-2.84-1.69-4.84l1.11-6.22,2.27,2.15c2.26,2,4.07,4.8,4.45,6.99l.07.46c.12.77-.15,1.27-.81,1.53l-.31.12v.19h6.41v-.19l-.19-.12ZM107.21,28.57l2.38-13.16,3.34,18.5-5.72-5.34Z"/>
    </g>
  </g>
  <g>
    <g>
      <path class="st4" d="M141.19,48.01l-1.13-1.52v3.31h-.72v-4.48h.67l1.45,1.91,1.42-1.91h.67v4.48h-.72v-3.32l-1.14,1.52h-.5Z"/>
      <path class="st4" d="M148.04,47.23v.67h-2.53v1.25h3.4v.66h-4.12v-4.48h4.12v.66h-3.4v1.24h2.53Z"/>
      <path class="st4" d="M150.76,46.48v3.33h-.72v-4.48h.68l2.8,3.33v-3.33h.72v4.48h-.68l-2.8-3.33Z"/>
      <path class="st4" d="M159.4,45.33v.66h-1.74v3.81h-.72v-3.81h-1.75v-.66h4.21Z"/>
      <path class="st4" d="M163.61,47.23v.67h-2.53v1.25h3.4v.66h-4.12v-4.48h4.12v.66h-3.4v1.24h2.53Z"/>
      <path class="st4" d="M168.87,49.55c-.37.23-.82.34-1.36.34s-.97-.1-1.39-.29c-.42-.19-.66-.51-.72-.94v-.08s.71,0,.71,0v.05c.06.21.22.36.49.46.27.09.55.14.84.14.33,0,.63-.06.88-.17s.38-.3.38-.56-.13-.44-.4-.52-.56-.13-.89-.13c-.57,0-1.03-.08-1.39-.25-.36-.16-.54-.5-.54-.99,0-.47.18-.81.53-1.03.35-.22.79-.33,1.3-.33s.95.1,1.34.29c.4.19.62.51.68.94v.07s-.71,0-.71,0v-.05c-.06-.21-.21-.36-.46-.46s-.52-.14-.8-.14c-.3,0-.57.05-.8.16-.23.11-.35.28-.35.52s.12.4.36.48c.24.08.51.13.81.13.59,0,1.08.08,1.47.25.39.17.58.51.58,1.03,0,.49-.19.85-.56,1.08Z"/>
      <path class="st4" d="M174.47,48.01l-1.13-1.52v3.31h-.72v-4.48h.67l1.45,1.91,1.42-1.91h.67v4.48h-.72v-3.32l-1.14,1.52h-.5Z"/>
      <path class="st4" d="M178.12,46.43c.18-.36.43-.64.76-.86.33-.22.72-.32,1.16-.32s.84.11,1.17.32c.33.22.59.5.76.86.18.35.26.74.26,1.15s-.09.79-.26,1.14c-.17.35-.43.64-.76.85-.33.22-.72.32-1.17.32s-.83-.11-1.16-.32c-.33-.22-.58-.5-.76-.86-.17-.36-.26-.74-.26-1.14s.09-.79.26-1.15ZM178.81,48.35c.11.25.27.45.49.6.21.15.46.23.76.23s.55-.08.77-.23c.22-.15.38-.35.5-.6s.17-.51.17-.78-.06-.55-.17-.8-.28-.45-.5-.6c-.22-.15-.47-.23-.77-.23s-.54.08-.76.23c-.21.15-.38.35-.49.6-.11.25-.17.51-.17.79s.06.54.17.78Z"/>
      <path class="st4" d="M186.55,45.63c.33.2.58.47.77.82.18.34.27.71.27,1.12s-.09.77-.27,1.11c-.18.34-.44.61-.77.82-.33.2-.71.31-1.15.31h-2.11v-4.48h2.11c.44,0,.82.1,1.15.3ZM185.4,49.15c.29,0,.54-.07.76-.22.22-.15.38-.34.49-.58.11-.24.17-.5.17-.77s-.06-.54-.17-.78-.28-.44-.49-.58c-.22-.15-.47-.22-.76-.22h-1.39v3.15h1.39Z"/>
      <path class="st4" d="M191.87,47.23v.67h-2.53v1.25h3.4v.66h-4.12v-4.48h4.12v.66h-3.4v1.24h2.53Z"/>
      <path class="st4" d="M194.59,47.9v1.91h-.72v-4.48h3.07c.26,0,.48.06.67.18s.32.27.42.47.14.41.14.64c0,.34-.09.63-.27.87-.18.24-.45.37-.8.4h-.09l1.11,1.91h-.8l-1.1-1.91h-1.6ZM196.94,47.23c.17,0,.3-.06.38-.17s.12-.26.12-.44-.04-.32-.12-.45c-.08-.12-.21-.19-.37-.19h-2.35v1.24h2.35Z"/>
      <path class="st4" d="M199.96,46.48v3.33h-.72v-4.48h.68l2.8,3.33v-3.33h.72v4.48h-.68l-2.8-3.33Z"/>
      <path class="st4" d="M208.21,49.81l-.51-1.16h-2.12l-.5,1.16h-.77l1.95-4.51h.71l2.02,4.51h-.78ZM207.46,47.99l-.84-1.87-.8,1.87h1.63Z"/>
      <path class="st4" d="M213.07,49.55c-.37.23-.82.34-1.36.34s-.97-.1-1.39-.29c-.42-.19-.66-.51-.72-.94v-.08s.71,0,.71,0v.05c.06.21.22.36.49.46.27.09.55.14.84.14.33,0,.63-.06.88-.17s.38-.3.38-.56-.13-.44-.4-.52-.56-.13-.89-.13c-.57,0-1.03-.08-1.39-.25-.36-.16-.54-.5-.54-.99,0-.47.18-.81.53-1.03.35-.22.79-.33,1.3-.33s.95.1,1.34.29c.4.19.62.51.68.94v.07s-.71,0-.71,0v-.05c-.06-.21-.21-.36-.46-.46-.25-.1-.52-.14-.8-.14-.3,0-.57.05-.8.16-.23.11-.35.28-.35.52s.12.4.36.48c.24.08.51.13.81.13.59,0,1.08.08,1.47.25.39.17.58.51.58,1.03,0,.49-.19.85-.56,1.08Z"/>
    </g>
    <g>
      <path class="st4" d="M3.26.34c.33.2.58.47.76.82.18.34.27.71.27,1.12s-.09.77-.27,1.11c-.18.34-.43.61-.76.82-.33.2-.71.31-1.15.31H0V.03h2.11c.44,0,.82.1,1.15.3ZM2.11,3.85c.29,0,.54-.07.76-.22.22-.15.38-.34.49-.58.11-.24.17-.5.17-.77s-.06-.54-.17-.78c-.11-.24-.28-.44-.49-.58s-.47-.22-.76-.22H.72v3.15h1.39Z"/>
      <path class="st4" d="M6.06,2.6v1.91h-.72V.03h3.07c.26,0,.48.06.67.18s.32.27.42.47c.09.2.14.41.14.64,0,.34-.09.63-.27.87-.18.24-.45.37-.81.4h-.09l1.11,1.91h-.8l-1.1-1.91h-1.6ZM8.4,1.93c.17,0,.3-.06.38-.17s.12-.26.12-.44-.04-.32-.12-.45c-.08-.12-.21-.19-.37-.19h-2.35v1.24h2.35Z"/>
      <path class="st4" d="M14.23,4.51l-.51-1.16h-2.12l-.5,1.16h-.77l1.95-4.51h.71l2.02,4.51h-.78ZM13.48,2.7l-.84-1.87-.8,1.87h1.63Z"/>
      <path class="st4" d="M15.93,3.71c.08-.1.2-.15.36-.15s.28.05.36.15c.09.1.13.22.13.36s-.04.27-.13.37c-.09.1-.21.15-.36.15s-.28-.05-.36-.15c-.08-.1-.12-.22-.12-.37s.04-.27.12-.36Z"/>
    </g>
  </g>
</svg>