<?xml version="1.0" encoding="UTF-8"?>
<svg id="Layer_1" xmlns="http://www.w3.org/2000/svg" version="1.1" xmlns:xlink="http://www.w3.org/1999/xlink" viewBox="0 0 115.13 94">
  <!-- Generator: Adobe Illustrator 29.5.1, SVG Export Plug-In . SVG Version: 2.1.0 Build 141)  -->
  <defs>
    <style>
      .st0 {
        fill: #fff;
      }

      .st1 {
        mask: url(#mask);
      }

      .st2 {
        fill: #f1652a;
      }

      .st3 {
        fill: #703894;
      }

      .st4 {
        fill: #161616;
      }
    </style>
    <mask id="mask" x="51.97" y="31.97" width="63.85" height="63.27" maskUnits="userSpaceOnUse">
      <path class="st0" d="M91.39,36.12c-.11.12-.22.23-.34.35-.54.71-1.36,1.28-1.85,1.98-.22.27-.44.55-.66.82-.83,1.18-1.95,2.43-3.17,3.58-.3.28-.63.54-.94.75-.21.17-.42.35-.63.52-.41.27-.8.57-1.19.82-.36.23-.67.54-1.04.8-.32.22-.6.5-.91.68-.12.07-.4.17-.47.31-.03.08.04.11.1.12.27-.13.56-.25.86-.43.57-.35,1.07-.87,1.62-1.22.39-.25.78-.51,1.19-.78.21-.17.42-.34.62-.51.54-.37,1.42-1.07,1.86-1.66.25-.24.49-.48.74-.72.19-.21.38-.41.56-.62.55-.71,1.11-1.42,1.66-2.12.17-.19.33-.38.5-.57.53-.71,1.38-1.28,1.91-1.99.25-.31.51-.61.76-.92.23-.3.46-.61.69-.91l-.27-.28c-.19.26-.39.52-.58.78-.34.41-.67.83-1.01,1.24ZM80.54,42.72c-.51.35-.94.9-1.4,1.33-.15.15-.48.37-.43.53.02,0,.04.02.06.03.3-.1.63-.46.92-.74.44-.42.87-.85,1.37-1.19,1.26-.86,2.27-2.13,3.1-3.25.3-.35.6-.7.9-1.05.58-.75,1.17-1.5,1.75-2.26.34-.46.84-.84,1.16-1.26.08-.11.17-.22.27-.32l-2.48,2.37c-.38.49-.76.98-1.14,1.47-.38.45-.77.9-1.15,1.35-.73,1-1.81,2.23-2.94,3ZM90.34,35.03c-.39.39-.77.78-1.16,1.18-.14.15-.28.31-.42.46-.15.18-.3.36-.45.54-.3.37-.6.74-.9,1.11-.39.55-.88,1.07-1.31,1.63-.26.29-.52.57-.78.86-.29.39-.65.75-1.04,1.12-.13.13-.27.25-.4.38-.29.25-.58.5-.86.76-.94.65-1.77,1.65-2.72,2.28-.45.3-.89.61-1.34.91-.18.14-.36.29-.54.43-.26.18-.65.44-.78.64,0,.03.02.07.03.1l.05.02c.44-.23.85-.59,1.32-.89.65-.42,1.23-.88,1.9-1.34.37-.32.75-.65,1.12-.97.41-.33.81-.65,1.22-.98.11-.1.22-.2.33-.31.72-.49,1.66-1.44,2.11-2.07.28-.3.55-.6.83-.9.66-.83,1.33-1.66,1.99-2.49.31-.35.62-.69.93-1.04.15-.15.3-.3.44-.45.19-.19.39-.39.58-.58.31-.36.62-.71.93-1.07.27-.35.54-.71.81-1.06l-.26-.28c-.26.34-.51.68-.77,1.02-.28.33-.56.67-.84,1ZM57.52,64.55c.09-.09.19-.18.28-.27.69-.47,1.13-1.19,1.8-1.72.49-.46.99-.92,1.48-1.37.15-.13.31-.26.46-.39.53-.39,1.06-.79,1.59-1.18.18-.15.36-.3.54-.46.18-.17.35-.34.53-.51.43-.37.86-.75,1.29-1.12.18-.17.36-.34.54-.51.45-.43.93-.86,1.28-1.31.13-.14.26-.27.39-.41.35-.46.76-.85,1.08-1.31.7-1.01,1.53-1.99,2.25-3.02l-1.39,1.33c-.42.58-.85,1.16-1.27,1.74-.32.37-.63.74-.95,1.12-.47.5-.95,1-1.42,1.5-.24.23-.48.45-.71.68-.35.31-.71.62-1.06.93-.28.26-.56.52-.84.78-.15.12-.3.25-.45.37-.46.33-.91.66-1.37.99-.22.19-.44.37-.66.56-.37.34-.73.69-1.1,1.03l-.41.37c-.28.19-.7.62-.9.88l-.73.67c-.36.32-.72.65-1.08.97-.18.15-.35.29-.53.44-.23.16-.47.33-.7.49l-1.51,1.44c.67-.41,1.38-.99,2.07-1.45.53-.35.96-.89,1.51-1.26ZM63.55,58.27c.3-.26.61-.52.91-.78.29-.27.59-.53.88-.8.42-.41.84-.81,1.26-1.22.18-.18.36-.37.55-.55.39-.51.9-.97,1.24-1.45l-6.65,6.34c.5-.28.94-.85,1.45-1.2.12-.12.24-.23.36-.35ZM95.3,38.6c-.21.32-.42.64-.63.96-.26.29-.52.57-.78.86-.36.49-.73.99-1.09,1.48-.23.3-.77.83-1.09,1.06-.14.13-.28.26-.42.39-1.14,1.49-3.05,2.6-4.42,3.38-.44.32-.88.65-1.33.97-.57.35-1.15.6-1.71.88-.19.09-.92.41-.97.6.01.02.03.04.04.06.35,0,.71-.26,1.06-.4.65-.27,1.3-.61,1.95-1.01.32-.24.64-.48.96-.72.3-.17.6-.34.9-.51.65-.37,1.19-.81,1.84-1.22.65-.42,1.46-1.12,1.96-1.79.12-.11.23-.21.35-.32.17-.16.35-.32.52-.49.18-.18.37-.36.55-.54.39-.51.72-.98,1.08-1.48.3-.33.6-.65.9-.98.47-.65.89-1.39,1.44-2.04l-.27-.28c-.14.19-.27.38-.41.57-.15.2-.31.4-.46.59ZM87.14,47.38l-.63.48c-.56.37-1.08.73-1.64.96-.81.34-1.65.59-2.46.92-.87.36-1.72,1.08-2.58,1.58-.58.34-1.12.92-1.71,1.31-.17.11-.55.45-.58.6.04.04.05.04.09.05.68-.35,1.29-.99,1.99-1.45.87-.57,1.74-1.22,2.63-1.66.93-.46,1.9-.72,2.85-1.12.51-.21.98-.54,1.47-.86.23-.17.45-.34.68-.51.34-.2.67-.4,1.01-.6.29-.21.59-.42.88-.63.28-.18.55-.38.83-.64,0-.05,0-.11-.05-.14-.16-.09-.73.39-.94.52-.63.41-1.25.82-1.86,1.19ZM92.83,38.05c-.36.38-.72.76-1.09,1.13-.72.85-1.44,1.69-2.17,2.54-.21.24-.43.47-.64.71-.23.3-.61.64-.9.85-.13.12-.26.24-.39.36-.31.21-.52.52-.81.71-.38.27-.75.54-1.13.81-.22.17-.44.34-.65.51-.45.29-.9.53-1.34.77-.42.23-.79.56-1.22.82-.69.42-1.37.81-2.08,1.27-.3.2-1.07.79-1.13,1.1.05.05.06.04.11.05.24-.14.46-.38.71-.55.52-.35.97-.72,1.49-1.02.38-.23.77-.45,1.15-.68.29-.2.58-.39.87-.59.56-.32,1.12-.61,1.69-.97.22-.17.44-.35.67-.53.45-.32.9-.65,1.35-.97.24-.22.48-.44.72-.66.24-.22.48-.43.73-.65.55-.52,1.08-1.06,1.5-1.62.18-.19.35-.38.53-.57.37-.43.73-.87,1.1-1.3.32-.43.81-.74,1.15-1.19.37-.45.73-.9,1.1-1.35.26-.34.55-.62.74-.97l-.26-.28c-.18.24-.36.49-.54.73-.41.5-.83,1.01-1.24,1.51ZM93.85,43.02c-.17.18-.33.35-.5.53-.13.11-.26.23-.39.34-.29.27-.57.55-.86.82-.73.95-1.58,2.08-2.69,2.82-.93.62-1.76,1.09-2.67,1.64-.66.4-1.28.91-1.94,1.23-.71.35-1.41.41-2.13.73-.62.27-1.21.63-1.84.99-.13.08-.57.29-.64.45-.02.05-.01.07.03.11.26.03.63-.27.89-.41.68-.34,1.35-.76,2.03-1.01.6-.22,1.2-.29,1.82-.6.36-.18.69-.45,1.05-.67.56-.36,1.13-.71,1.69-1.07.62-.35,1.23-.69,1.88-1.12.36-.24.62-.57,1-.83.22-.21.44-.41.66-.62.45-.59.91-1.16,1.34-1.67.2-.17.4-.34.6-.51.42-.29.98-.93,1.23-1.28,1.09-1.56,1.35-3.04,2.57-4.59l-.27-.28c-1.11,1.23-1.36,2.61-2.06,3.85-.22.39-.52.76-.81,1.15ZM92.38,41.02c-.34.46-.82.88-1.28,1.31-.16.15-.32.31-.48.46-.21.23-.42.46-.63.68-.17.22-.46.54-.71.71-.44.34-.88.68-1.32,1.02-.42.28-.8.53-1.21.79-.47.34-.94.68-1.41,1.01-.68.42-1.33.74-2.01,1.12-.33.19-.64.45-.97.67-.32.26-.64.51-.96.77-.69.42-1.38.85-2.07,1.27-.27.21-.53.42-.8.64-.42.29-1.38,1.34-1.38,1.63.04.03.06.04.11.02.15-.05.38-.36.48-.5.2-.26.51-.56.77-.74.17-.15.34-.3.51-.44.89-.61,1.69-1.08,2.54-1.63.43-.28.81-.71,1.26-1,.88-.59,1.7-.95,2.56-1.47.49-.35.98-.69,1.47-1.04.5-.31.98-.63,1.5-.97.42-.32.85-.65,1.27-.97.3-.21.61-.56.8-.81.22-.23.44-.47.66-.7.13-.12.27-.25.4-.37.43-.41.85-.77,1.17-1.2.51-.7,1.22-1.37,1.76-2.11.5-.66,1.01-1.32,1.51-1.98l-.28-.29c-.52.7-1.05,1.4-1.57,2.1-.51.71-1.2,1.35-1.7,2.02ZM55.65,66.97c.89-.71,1.77-1.43,2.66-2.14.12-.11.24-.23.36-.34.33-.32.67-.64,1-.97.84-.81,1.79-1.81,2.68-2.45.38-.34.76-.68,1.13-1.03.6-.49,1.2-.99,1.8-1.48.52-.36.93-.74,1.44-1.23.21-.2.47-.41.63-.63.19-.2.37-.4.56-.61.83-1.11,1.71-2.12,2.47-3.22.26-.34.52-.68.79-1.01.72-1.07,1.4-2.06,2.19-3.13l-1.26,1.2h0c-.32.49-.63.96-.95,1.43-.56.75-1.13,1.5-1.69,2.25-.57.83-1.28,1.56-1.9,2.4-.27.29-.53.57-.8.86-.14.13-.28.25-.41.38-.08.08-.17.16-.25.24-.36.29-.72.59-1.08.88-.68.58-1.37,1.16-2.05,1.74-.29.26-.59.52-.88.78-.89.61-1.86,1.67-2.74,2.52-.33.31-.64.71-1,.96-.08.08-.16.15-.24.23-.85.68-1.69,1.36-2.54,2.05-.67.45-1.27.79-1.94,1.23-.58.38-1.11,1.01-1.64,1.52l.19.2c.57-.56,1.15-1.18,1.75-1.57.58-.38,1.14-.68,1.73-1.07ZM54.92,69.84c.15-.17.31-.34.46-.51.35-.47.98-1.23,1.5-1.59.2-.17.39-.35.59-.52.31-.3.63-.6.94-.9.24-.21.48-.43.71-.64.39-.32.77-.64,1.16-.95.5-.41.87-.89,1.39-1.24.23-.21.46-.42.69-.63.18-.17.36-.33.54-.5.58-.46,1.16-.93,1.73-1.39.28-.24.56-.49.84-.73.6-.41,1.3-.97,1.82-1.5.4-.38.8-.76,1.19-1.14.23-.27.46-.55.69-.82.62-.92,1.27-1.81,1.92-2.75.5-.72,1.18-1.36,1.66-2.07.55-.82,1.06-1.61,1.64-2.44.65-.92,1.66-1.77,2.34-2.68.18-.24.47-.48.69-.63.34-.23.6-.51.93-.72.35-.22.7-.39,1.07-.63.27-.17.63-.49.81-.68.26-.22.51-.43.77-.65.41-.33.81-.65,1.22-.98.18-.16.35-.33.53-.49.34-.23.7-.65.93-.97.28-.33.56-.67.84-1,.34-.39.68-.79,1.02-1.18.71-.96,1.46-1.8,2.18-2.77.32-.34.64-.69.96-1.03l.29-.28c.18-.18.36-.37.53-.55.43-.57.94-1.07,1.32-1.62.11-.15.23-.31.34-.46l-.23-.24-.12.11c-.36.45-.74.92-1.09,1.4-.36.49-.91.89-1.28,1.37-.22.22-.44.45-.66.67-.3.36-.61.72-.91,1.07-.57.79-1.18,1.5-1.78,2.31-.61.73-1.23,1.46-1.84,2.18-.2.22-.4.43-.61.65-.23.2-.45.4-.68.6-.32.26-.64.52-.96.77-.15.13-.3.27-.45.4-.58.4-1.04.99-1.61,1.31-.3.17-.6.31-.91.51-.36.23-.62.53-.99.79-.19.18-.37.36-.56.53-.74.98-1.82,1.9-2.5,2.87-.54.77-1.01,1.52-1.53,2.29-.52.77-1.25,1.46-1.78,2.23-.57.82-1.14,1.63-1.71,2.45-.22.27-.44.54-.66.81-.14.14-.28.28-.42.42-.25.24-.5.47-.74.71-.21.19-.43.39-.64.58-.4.31-.8.62-1.2.93-.2.17-.39.34-.59.51-.51.41-1.01.82-1.52,1.22-.21.18-.41.37-.62.55-.15.15-.31.29-.46.44-.53.46-1.05.92-1.58,1.38-.16.15-.32.31-.48.46-.14.12-.27.23-.41.35-.15.12-.3.23-.45.35-.26.23-.53.47-.79.7-.29.27-.57.55-.86.82-.38.34-.76.68-1.14,1.02-.21.2-.43.41-.64.61-.67.88-1.55,1.73-2.48,2.5l.21.22c.32-.29.65-.57.97-.86.13-.12.27-.25.4-.37ZM56.65,70.73c.11-.12.22-.24.34-.36.16-.15.31-.31.47-.46.26-.25.53-.5.79-.76l.72-.62c.49-.48.98-.95,1.47-1.43l.56-.48c.37-.27.74-.54,1.12-.81.49-.44.97-.88,1.46-1.32.53-.39,1.06-.78,1.59-1.17.2-.16.4-.32.6-.48.6-.58,1.2-1.16,1.81-1.74.46-.32.83-.73,1.31-1.06.33-.23.77-.61,1.03-.95.32-.42.71-.8.95-1.22.35-.61.6-1.2,1.05-1.83.28-.39.77-.67,1.07-1.08.27-.35.54-.7.81-1.05.32-.44.7-.79.97-1.22.48-.75.99-1.45,1.51-2.22.23-.34.68-.99,1.09-1.28.21-.17.42-.34.63-.5.66-.43,1.25-.89,1.91-1.21.22-.11.45-.12.67-.18.33-.08.67-.25.99-.45.43-.33.86-.65,1.29-.98.49-.31.98-.61,1.47-.92.24-.2.48-.4.73-.59.57-.39,1.07-.81,1.63-1.34.39-.36.77-.73,1.16-1.09.24-.27.48-.53.72-.8.48-.61.96-1.22,1.44-1.83.24-.27.47-.54.71-.82.42-.43.85-.85,1.27-1.28.48-.63,1.03-1.17,1.44-1.77.13-.17.26-.34.38-.5l-.26-.28c-.2.27-.4.54-.6.81-.34.42-.68.84-1.02,1.26-.3.4-.79.84-1.13,1.15-.18.2-.36.4-.54.6-.33.44-.72.78-1.03,1.21-.66.92-1.41,1.79-2.36,2.7-.34.33-.69.66-1.03.99-.36.28-.73.56-1.09.84-.15.13-.3.25-.44.38-.61.41-1.18.77-1.78,1.17-.38.29-.75.59-1.13.88-.27.15-.55.3-.82.36-.28.07-.55.09-.84.23-.87.43-1.67,1.08-2.53,1.7-.43.31-.75.78-.99,1.13-.61.86-1.16,1.67-1.72,2.5-.58.74-1.16,1.48-1.74,2.21-.31.42-.83.74-1.1,1.13-.46.66-.74,1.27-1.12,1.92-.24.39-.6.75-.89,1.14-.22.29-.57.57-.84.76-.49.39-.97.79-1.46,1.18-.48.47-.96.94-1.44,1.4-.22.18-.44.37-.65.55-.55.41-1.11.81-1.66,1.22-.55.49-1.1.99-1.64,1.48-.47.32-.87.68-1.36,1.02-.52.5-1.05,1.01-1.57,1.51-.41.28-.78.65-1.17,1.02-.17.17-.35.34-.52.51-.26.26-.52.52-.79.78-.51.67-1.12,1.25-1.75,1.9l.2.21c.64-.61,1.24-1.2,1.69-1.81ZM57.05,72.54c.38-.35.75-.7,1.13-1.05.31-.41.68-.75,1.01-1.19.46-.43.92-.87,1.38-1.31.32-.3.64-.6.96-.9.2-.18.41-.35.61-.53.47-.44.95-.87,1.42-1.31.3-.3.68-.53.99-.72.22-.17.45-.34.67-.5.3-.25.59-.5.89-.75.53-.36,1.21-.88,1.62-1.42.18-.19.37-.39.55-.58.21-.21.41-.42.62-.63.19-.18.39-.35.58-.53.26-.24.51-.48.77-.72.33-.33.67-.65,1-.98.3-.32.6-.65.9-.97.13-.15.27-.29.4-.44.31-.41.8-.95,1.27-1.28.15-.14.3-.27.44-.41.1-.1.2-.19.31-.29.34-.32.63-.64.88-.98.21-.24.42-.47.63-.71.2-.27.41-.52.53-.8.12-.26.18-.54.32-.8.19-.34.47-.62.74-.97.14-.18.35-.44.56-.59.23-.18.45-.36.68-.54.6-.37,1.19-.71,1.81-1.1.67-.48,1.35-.97,2.02-1.45.84-.5,1.64-.91,2.47-1.41.41-.25.75-.57,1.17-.85.41-.28.82-.56,1.24-.85.31-.24.61-.48.92-.73.49-.34,1.24-1.09,1.57-1.54.19-.2.38-.4.57-.6.22-.22.44-.44.66-.66.53-.61,1.06-1.21,1.59-1.82.25-.26.5-.52.74-.78.25-.31.51-.61.76-.92.31-.44.63-.89.94-1.33l-.26-.28c-.2.28-.39.56-.59.84-.3.44-.66.83-.99,1.28-.25.26-.49.52-.74.77-.6.68-1.19,1.37-1.79,2.05-.25.25-.5.5-.74.75-.18.2-.37.4-.56.6-.24.32-.68.82-1.04,1.06-.32.27-.63.53-.95.8-.81.59-1.61,1.18-2.42,1.76-.99.62-1.91,1.11-2.9,1.71-.49.3-.92.71-1.42,1.03-.45.3-.9.6-1.34.89-.6.34-1.36.7-1.96,1.43-.35.43-.81.91-1.06,1.38-.2.36-.28.72-.51,1.08-.43.68-1.1,1.23-1.6,1.89-.55.52-1.11,1.04-1.66,1.55-.34.37-.68.73-1.02,1.1-.67.87-1.61,1.65-2.41,2.48-.72.75-1.62,1.41-2.2,2.18-.11.1-.23.2-.34.3-.34.23-.6.52-.91.73-.31.26-.62.52-.94.78-.46.33-.93.66-1.39.99-.47.43-.93.87-1.4,1.3-.7.49-1.35,1.19-2.06,1.85-.79.74-1.64,1.52-2.22,2.28-.27.36-.7.63-1.01.95-.39.41-.77.82-1.16,1.23l.21.22c.38-.36.76-.71,1.05-1.1ZM77.02,50.12c-.49.47-.8.95-1.1,1.43-.33.49-.65.99-.98,1.48-.46.59-.93,1.19-1.39,1.78-.21.3-.58.67-.9.89-.34.23-.59.62-.76.89-.1.16-.2.28-.25.43.01.01.02.02.03.04.03.01.04.02.08,0,.06-.01.16-.12.22-.18.1-.11.19-.23.29-.34.46-.63,1.19-1.07,1.64-1.69.4-.5.79-1.01,1.19-1.51.58-.87,1.13-1.73,1.76-2.61.28-.29.56-.57.85-.86.26-.25.51-.5.77-.75.26-.18.57-.46.73-.71-.01-.05-.03-.07-.08-.11-.23.07-.4.29-.65.45-.46.31-1,.93-1.45,1.37ZM62,69.06c-.19.15-.74.54-.79.74,0,0,0,.02.01.03.01,0,.03.02.04.03.29-.01.62-.4.91-.59.36-.25.97-.77,1.25-1.15.5-.47,1-.93,1.5-1.4.03-.07.07-.11.08-.18-.02-.01-.04-.03-.06-.04-.19-.06-.65.48-.88.64-.71.5-1.36,1.36-2.07,1.92ZM58.48,72.29c.37-.45.74-.9,1.11-1.35.32-.31.63-.62.95-.93.32-.34.7-.73,1.06-.98.12-.11.24-.22.36-.33.61-.61,1.22-1.21,1.84-1.82.23-.17.45-.34.68-.51.37-.23.7-.43,1.1-.7.35-.33.69-.65,1.04-.98.16-.14.32-.28.49-.42.41-.29,1.06-.95,1.35-1.33.3-.33.59-.65.89-.98.24-.32.71-.61.99-.79.25-.16.48-.42.73-.62.28-.29.57-.59.85-.88.3-.28.6-.56.9-.84.31-.37.62-.74.92-1.12l.49-.45.41-.37c.3-.21.7-.56.94-.87.18-.21.36-.42.54-.63.26-.34.6-.78,1-1.05.71-.48,1.4-.79,2.12-1.26.34-.29.67-.59,1.01-.88.61-.42,1.14-.83,1.73-1.13.49-.24.99-.47,1.47-.64.37-.13.76-.18,1.14-.34.35-.19.69-.37,1.04-.56.59-.33,1.14-.77,1.76-1.15.51-.31.99-.6,1.52-.93.39-.25.76-.62,1.14-.89.12-.12.24-.24.36-.35.09-.09.19-.19.28-.29.22-.27.44-.55.66-.82.27-.39.69-.76.96-1.11.3-.29.61-.59.91-.88.17-.18.34-.37.5-.55.28-.38.55-.74.77-1.12.15-.26.39-.54.42-.81-.19-.22-.4.14-.53.34-.28.44-.59.87-.91,1.31-.17.19-.34.37-.51.56-.43.44-.87.88-1.3,1.32-.38.47-.75.94-1.13,1.41-.18.2-.37.4-.55.61-.12.1-.24.2-.36.3-.24.19-.49.38-.73.57-.62.41-1.13.75-1.72,1.11-.23.17-.47.34-.7.52-.64.41-1.3.84-1.96,1.11-.4.16-.82.22-1.21.36-.49.18-.98.42-1.47.66-.62.32-1.17.77-1.81,1.2-.34.29-.69.58-1.03.87-.7.46-1.39.74-2.09,1.22-.43.29-.8.79-1.05,1.14-.14.17-.28.33-.42.5-.55.73-1.52,1.2-2.09,1.95-.3.39-.62.7-.92,1.1-.29.27-.57.55-.86.82-.19.25-.66.76-.94.95-.18.14-.35.28-.53.42-.3.2-.65.46-.89.72-.8.89-1.68,1.96-2.67,2.67-.27.26-.54.51-.81.77-.15.13-.3.25-.46.38-.34.21-.68.43-1.03.64-.25.15-.5.41-.7.56-.54.54-1.08,1.08-1.63,1.62-.28.25-.56.49-.84.74-.28.19-.85.72-1.06.99-.23.23-.47.46-.7.7-.39.48-.79.95-1.18,1.43-.2.27-.74.71-.98.88-.29.27-.57.55-.86.82l.21.22c.44-.4.88-.79,1.32-1.19.23-.22.46-.44.68-.67ZM56.1,67.48c1.05-.87,2.09-1.74,3.14-2.62.34-.31.68-.63,1.02-.94.68-.65,1.33-1.21,2.03-1.88.43-.41.87-.93,1.35-1.26.43-.34.87-.69,1.3-1.03.81-.54,1.59-1.22,2.4-2,.41-.39.8-.75,1.11-1.16.57-.76,1.13-1.46,1.64-2.22.31-.41.62-.81.93-1.22.35-.44.7-.88,1.06-1.31.58-.86,1.06-1.68,1.7-2.56.33-.46.79-.85,1.18-1.32.21-.21.42-.42.63-.63.39-.47.78-.93,1.17-1.4.42-.36.83-.72,1.25-1.08.61-.58.99-1.09,1.43-1.67.23-.31.61-.55.88-.73.32-.25.63-.5.95-.75.58-.48,1.13-1.13,1.51-1.66.33-.47.68-.89,1.09-1.32l-2.01,1.92c-.16.17-.32.34-.48.51-.16.16-.65.66-.84.75l-1.81,1.72c-.29.41-.75.94-1.21,1.27-.18.15-.36.3-.54.45-.58.6-1.15,1.18-1.66,1.86-.14.13-.27.27-.41.4-.35.37-.7.73-1.05,1.1-.26.33-.51.67-.77,1-.44.69-.85,1.36-1.32,2.05-.5.64-1.01,1.28-1.51,1.91-.64.91-1.33,1.82-2,2.67-.32.35-.65.7-.97,1.05-.19.18-.38.36-.57.53-.18.16-.36.32-.54.49-.45.31-.83.69-1.26.97-.55.36-1,.87-1.56,1.25-.42.4-.84.81-1.27,1.21-1.02.94-2.03,1.88-3.05,2.82-1.01.83-2.01,1.67-3.02,2.5-.63.42-1.17.71-1.8,1.12-.6.39-1.2,1.06-1.77,1.61l.2.21c.66-.64,1.22-1.25,1.93-1.7.53-.34,1-.56,1.54-.92ZM56.48,69.94c.28-.29.56-.57.84-.86.34-.3.68-.61,1.03-.91.25-.24.5-.48.75-.72.61-.51,1.23-1.02,1.84-1.54.67-.51,1.22-1.34,1.95-1.85.85-.59,1.68-1.28,2.46-1.86.55-.41.96-.91,1.52-1.29.42-.29.81-.76,1.25-1.07.33-.23.93-.65,1.21-1.03.32-.42.68-.79.95-1.21.21-.38.41-.75.62-1.13.17-.26.35-.52.52-.78.57-.84,1.46-1.57,2.05-2.41.31-.42.62-.83.93-1.25.34-.53.65-1.04,1.01-1.58.39-.58.89-1.07,1.33-1.66.36-.48,1.06-.76,1.45-1,.3-.22.59-.44.89-.65.41-.27.82-.54,1.24-.8.44-.26.81-.63,1.26-.94.14-.13.29-.25.43-.38.7-.55,1.41-1.09,2.11-1.64.25-.2.5-.4.75-.6.39-.27.84-.77,1.11-1.13.26-.27.52-.54.78-.81.43-.56.93-1.08,1.31-1.63.42-.52.85-1.04,1.27-1.56.16-.18.32-.35.48-.53.46-.47.92-.94,1.38-1.41.51-.63,1.01-1.26,1.52-1.89l-.27-.28c-.38.49-.76.97-1.14,1.46-.25.29-.5.58-.75.87-.31.31-.61.61-.92.92-.41.48-.82.95-1.24,1.43-.49.67-1.04,1.26-1.56,1.96-.27.36-.68.84-1.01,1.13-.42.38-.75.94-1.26,1.29-.9.62-1.61,1.4-2.52,2.01-.17.16-.35.31-.52.47-.47.32-.84.71-1.29.98-.46.3-.92.6-1.37.89-.28.2-.56.41-.83.61-.45.27-1.05.43-1.48,1-.43.56-.94,1.05-1.32,1.62-.38.57-.72,1.11-1.07,1.66-.3.4-.59.8-.89,1.2-.57.81-1.43,1.52-1.98,2.33-.22.31-.43.63-.65.94-.22.4-.44.79-.66,1.19-.27.35-.54.7-.81,1.05-.46.62-1.04.79-1.54,1.32-.5.53-1.1.99-1.66,1.37-.33.29-.66.59-1,.88-.69.51-1.38,1.03-2.07,1.54-.13.12-.26.23-.39.35-.31.31-.71.62-1,.94-.22.24-.5.56-.77.75-.32.27-.64.55-.97.82-.34.23-.67.51-1,.83l-.57.54c-.23.2-.45.4-.68.6-.26.25-.52.5-.78.74-.23.23-.46.47-.69.7-.5.66-1.16,1.24-1.82,1.87l.2.21c.74-.7,1.47-1.4,2.02-2.08ZM96.63,39.66c-.33.64-.69,1.29-1.05,1.95-.34.62-.61,1.21-1.08,1.85-.45.61-1.15.97-1.63,1.48-.19.2-.53.4-.6.63.02.04.04.06.08.09.19.02.43-.26.61-.39.35-.28.71-.55,1.06-.83l.44-.42c.61-.49.97-1.28,1.24-1.85.27-.48.54-.95.82-1.43.32-.59.57-1.23,1.06-1.82l-.29-.3s0,.01,0,.02c-.16.34-.49.68-.66,1.02ZM54.46,69.27c.32-.22.81-.56,1.06-.9,0-.03,0-.07-.01-.1-.01,0-.03-.02-.04-.03-.2-.02-.47.27-.66.4-.65.43-1.32,1.17-1.91,1.74l.19.2c.46-.44.87-.96,1.38-1.31ZM55.83,69.71c.18-.2.37-.39.55-.59.41-.39.83-.78,1.24-1.17.58-.55,1.14-1.11,1.73-1.51.32-.27.63-.55.95-.82.21-.21.43-.43.64-.64.21-.28.55-.55.81-.74.35-.27.64-.67,1-.92.66-.5,1.31-.99,1.97-1.49.42-.29.75-.73,1.16-1,.46-.31.88-.75,1.36-1.08.14-.12.27-.24.41-.36.39-.27,1.09-.91,1.37-1.28.25-.3.5-.6.75-.9.27-.39.46-.79.7-1.18.35-.49.71-.99,1.06-1.48.47-.69,1.15-1.26,1.63-1.95.64-.91,1.19-1.78,1.8-2.68.4-.6.95-1.09,1.41-1.71.29-.29.59-.58.88-.87.37-.33.72-.78,1.13-1.06.66-.45,1.22-.86,1.86-1.29.3-.2.68-.55.89-.77.33-.34.76-.7,1.18-.98.21-.18.42-.35.62-.53l.42-.39c.46-.46,1.03-.9,1.39-1.4.41-.47.81-.93,1.22-1.4.63-.85,1.3-1.6,1.92-2.44.35-.48.85-.86,1.22-1.36.27-.26.53-.53.8-.79.22-.24.43-.49.65-.73.38-.5.78-.97,1.13-1.46l-.26-.28c-.24.33-.48.65-.72.98-.3.36-.61.73-.91,1.09-.46.47-.93.94-1.39,1.41-.31.37-.62.73-.93,1.1-.47.62-.95,1.24-1.42,1.86-.56.66-1.11,1.31-1.67,1.97-.2.22-.4.43-.61.65-.2.19-.41.38-.61.57-.15.13-.29.27-.44.4-.33.27-.66.55-.99.82-.6.41-1.07,1.06-1.65,1.45-.89.6-1.69,1.09-2.61,1.96-.22.21-.44.43-.66.64-.33.34-.67.67-1,1.01-.41.54-.86,1.01-1.23,1.54-.52.77-1,1.52-1.53,2.31-.46.69-1.17,1.3-1.66,2-.37.53-.81,1.05-1.16,1.61-.25.4-.45.81-.73,1.21-.31.45-.82.87-1.17,1.31-.23.29-.73.71-1,.89-.17.15-.34.3-.51.44-.45.35-.9.7-1.36,1.06-.25.23-.5.45-.76.68-.74.58-1.49,1.15-2.23,1.73-.56.51-1.12,1.03-1.67,1.54-.2.2-.4.4-.61.6-.29.25-.58.51-.87.76-.62.43-1.21,1.01-1.82,1.6-.49.45-.97.91-1.46,1.36-.64.84-1.39,1.52-2.24,2.33l.2.21c.65-.62,1.31-1.18,1.81-1.85ZM92.54,50.16c-.39.22-.77.43-1.16.65-.3.23-.59.47-.89.7-.43.26-.85.53-1.28.79-.41.21-.79.28-1.18.42-.45.17-.9.41-1.34.58-.13.05-.3.15-.16.3.53-.07,1.01-.35,1.55-.55.4-.15.81-.24,1.23-.45.49-.24.95-.57,1.43-.88.24-.19.48-.38.72-.57.45-.26.89-.52,1.34-.78.44-.33.87-.66,1.31-.99,0-.03.02-.05.02-.08-.05-.08-.07-.08-.15-.1-.47.22-.94.65-1.44.96ZM106.15,51.38c-.41.53-1.18,1.12-1.68,1.42-.85.5-1.66.82-2.49,1.12-.51.14-1.03.28-1.54.43-1.39.5-2.77,1.12-4.16,2.05-.31.21-.75.65-.98.94-.13.16-.3.39-.5.53-.9.63-1.84,1.15-2.27,2.12-.08.17-.25.42-.21.6.04.01.07.03.11.04.31-.28.51-.81.79-1.18.2-.27.51-.44.73-.57.31-.21.61-.43.92-.64.55-.37.83-.99,1.39-1.38.6-.42,1.25-.85,1.91-1.18.46-.23.9-.39,1.35-.57.32-.14.65-.28.97-.43.5-.14.99-.27,1.49-.41.79-.24,1.57-.57,2.37-.98,1.31-.68,2.67-2.26,3.67-3.41l-.28-.3c-.26.32-.53.64-.79.96-.27.28-.54.56-.8.83ZM92.09,63.33c.05-.09.11-.19.16-.28.22-.46.47-.95.94-1.4.27-.26,1.08-.6,1.15-.86,0-.02-.02-.04-.03-.06-.03-.01-.06-.03-.09-.04-.35.14-.7.31-1.05.54-.19.12-.35.34-.45.49-.41.58-.71,1.05-.86,1.63.02.02.05.05.07.07.01,0,.02,0,.04,0,.04-.03.08-.07.12-.1ZM94.79,58.58c-.13.04-.3.26-.42.37-.28.27-.53.49-.79.61-.11.05-.15.13-.17.22,0,0,0,.01,0,.02.02.01.04.03.06.04.28.1.74-.34,1.05-.64.09-.19.43-.38.39-.57,0-.03-.02-.05-.05-.07-.02,0-.05,0-.07,0ZM94.23,57.84c.25-.14.61-.28.8-.54,0-.02,0-.05,0-.07-.06-.06-.07-.05-.13-.06-.86.36-2.26,1.09-2.91,2.16-.27.44-.51,1.71-.43,2.16.01,0,.03.02.04.03.02,0,.05,0,.07,0,.01-.01.02-.02.04-.03.24-.73.19-1.51.71-2.21.5-.67,1.21-1.1,1.79-1.43ZM91.08,65.51c-.38.37-.8.69-1.21,1.08-.14.13-.27.27-.41.4-.21.27-.42.51-.57.78-.33.59-.55,1.2-.83,1.8-.18.33-.36.67-.54,1-.24.52-.5,1.04-.72,1.55-.18.41-.35.8-.53,1.2-.1.23-.27.47-.27.71.01.01.02.02.03.04.03,0,.06.01.09.02.02-.01.04-.03.06-.04.14-.26.28-.51.42-.77.33-.72.66-1.44.98-2.16.23-.42.46-.84.68-1.26.35-.75.59-1.5,1.07-2.24.42-.64,1.21-1.24,1.83-1.83.27-.25.67-.58.77-.86-.02-.02-.04-.05-.06-.07-.03,0-.03-.01-.06,0-.17.05-.56.5-.75.67ZM107.79,57.7c-.19.07-.48.1-.63.31,0,.03.01.05.02.08.2.14,1.19-.25,1.45-.34,1.01-.36,2.04-.78,3.06-1.36.33-.19.6-.48.93-.71.19-.13.38-.26.57-.39l-.26-.28c-1.3,1.06-2.53,1.75-3.81,2.22-.44.16-.89.32-1.33.47ZM108.09,52.01c-1.11,1.05-2.1,1.87-3.16,2.39-.85.41-1.76.73-2.63.93-.45.12-.91.24-1.36.37-.9.32-1.84.77-2.73,1.22-.51.26-1.28.85-1.7,1.4-.27.35-.62.6-.83.93-.37.59-.68,1.19-1.11,1.77-.23.31-.54.61-.85.83-.09.08-.17.17-.26.25-.16.11-.4.31-.54.49-.49.64-.92,1.2-1.38,1.83-.26.29-.52.59-.78.88,0,.07.03.1.1.12.17-.1.35-.28.53-.45.66-.63,1.04-1.25,1.51-1.89.54-.73,1.45-1.21,1.97-1.94.64-.89,1.04-1.82,1.97-2.67.35-.32.62-.66,1-.89.6-.38,1.16-.64,1.74-.91.4-.18.81-.37,1.21-.55.53-.19,1.09-.33,1.62-.46.94-.22,1.9-.56,2.83-1.01,1.36-.67,2.83-1.97,4.14-3.33l-.29-.31c-.29.35-.65.68-1.01,1.01ZM105.15,51.19c-.17.15-.33.3-.5.45-.16.13-.31.25-.47.38-.43.28-.84.54-1.26.73-.7.32-1.37.56-2.06.8-.34.1-.68.19-1.02.29-.71.28-1.42.55-2.13.83-.54.22-1.07.51-1.6.84-.32.25-.63.49-.95.74-.3.14-.6.29-.89.43-.22.13-.43.26-.65.38-.76.39-1.5.81-2.08,1.68-.1.14-.19.25-.25.39-.07.17-.22.8.09.81.17-.18.11-.45.19-.65.12-.3.75-1.06,1.11-1.3.36-.25.68-.41,1.02-.59l.79-.47c.28-.14.57-.22.86-.39.37-.28.74-.57,1.11-.85.63-.38,1.29-.68,1.94-.94.52-.2,1.05-.41,1.57-.61.44-.13.88-.26,1.33-.39.75-.27,1.47-.53,2.24-.92.36-.18.72-.43,1.09-.68.14-.12.29-.24.43-.37.21-.2.42-.4.63-.6.2-.23.4-.46.59-.69.36-.45.71-.91,1.07-1.36l-.28-.29c-.36.46-.72.93-1.08,1.39-.27.32-.55.63-.82.95ZM112.57,56.19s.02,0,.03.01c.35,0,.72-.25,1.08-.4l-.25-.26c-.25.15-.71.28-.89.51,0,.04.02.09.03.13ZM108.5,56.02c-.46.18-.92.35-1.39.53-.64.26-1.23.7-1.88,1.03-.56.28-1.12.46-1.69.66-.15.06-.53.1-.6.28l.05.12c.28,0,.57-.12.86-.21.47-.14.96-.27,1.43-.5.46-.26.91-.53,1.37-.79.73-.37,1.45-.6,2.17-.9.47-.19.88-.51,1.35-.8.62-.37,1.25-.81,1.86-1.38l-.27-.28c-.55.54-1.16.97-1.73,1.33-.53.34-1,.7-1.53.92ZM107.94,53.49c-.93.62-1.73,1.21-2.64,1.58-.73.3-1.47.6-2.21.77-.59.16-1.18.31-1.78.47-.98.35-1.92.86-2.92,1.43-.39.22-.86.64-1.21,1.04-.22.26-.56.51-.76.79-.46.65-.93,1.3-1.39,1.95-.2.28-1.05,1.01-1.09,1.25l.07.06c.21.07,1.09-.86,1.25-1.08.69-.97,1.29-1.88,2.3-2.84.24-.23.43-.47.7-.64,1.09-.69,2.09-1.25,3.16-1.64.9-.25,1.8-.5,2.69-.75.83-.3,1.68-.61,2.52-1.08.54-.3.99-.69,1.56-1.05.65-.42,1.37-1.05,1.93-1.68l-.28-.29c-.24.25-.48.49-.72.74-.44.3-.77.69-1.19.97ZM104.46,50.7c-.36.47-1.13.96-1.54,1.19-1.36.76-2.63,1.06-3.98,1.56-.52.19-1.05.33-1.56.52-.38.14-.75.36-1.12.56-.5.27-.91.7-1.44,1.05-.34.23-1.17.71-1.35,1.02.02.05.02.06.06.09.24.02.6-.3.84-.44.27-.15.54-.35.82-.54.19-.15.38-.3.57-.46.44-.28.86-.55,1.29-.76.53-.26,1.06-.37,1.58-.56.38-.15.77-.29,1.15-.44.62-.2,1.24-.4,1.86-.6.73-.27,1.42-.64,2.16-1.13,1.34-.87,1.98-2.24,2.88-3.3l-.28-.3c-.39.54-.78,1.09-1.17,1.63-.22.32-.51.58-.76.91ZM100.63,46.33c-.14.16-.27.32-.41.47-.33.42-1.04.82-1.4,1.01-.7.38-1.32.73-2.02,1.02-.37.15-.73.31-1.1.46-.35.17-.64.42-1.01.68-.38.27-.66.68-1.02.93-.65.45-1.24.88-1.87,1.28-.37.24-.68.52-1.04.72-.2.11-.95.38-1,.56,0,0,0,.01,0,.02.06.06.08.05.14.06.27-.11.58-.18.85-.31.4-.2.75-.5,1.17-.76.58-.35,1.14-.76,1.74-1.16.56-.37,1.07-1.05,1.61-1.39.63-.38,1.24-.62,1.86-.87.61-.25,1.15-.58,1.75-.89.44-.23,1.29-.69,1.69-1.23.2-.26.42-.49.58-.75.43-.71.87-1.42,1.3-2.12l-.28-.3c-.23.39-.46.79-.69,1.18-.27.47-.56.92-.89,1.37ZM98.37,44.99c-.26.45-.66,1.09-1.23,1.48-.25.22-.51.44-.76.66-1.07.7-2.04,1.12-3.1,1.72-.43.24-.8.58-1.24.85-.36.21-.72.42-1.08.63-.23.18-.46.36-.7.54-.43.28-.85.56-1.28.84-.19.11-.49.25-.64.44,0,.03,0,.06,0,.09.02.01.03.02.05.04.18.06.67-.3.87-.41.37-.21.74-.45,1.11-.7.4-.27.74-.59,1.13-.8.8-.43,1.66-1.1,2.46-1.51.79-.4,1.55-.74,2.36-1.23.41-.25.75-.64,1.18-.98.24-.19.53-.46.71-.7.96-1.3,1.42-2.61,2.31-3.94l-.28-.29c-.26.32-.45.72-.64,1.05-.43.78-.79,1.47-1.22,2.23ZM99.45,46.36c-.18.23-.47.44-.68.59-.28.22-.56.44-.83.66-.16.11-.52.29-.57.47.01.03.03.06.04.09.26.09,1.03-.57,1.34-.77,1.73-1.12,2.07-2.7,3.07-4.03l-.28-.3c-.43.56-.74,1.25-1.07,1.84-.28.51-.62.93-1.02,1.45ZM58.76,72.98c.3-.39.65-.88,1.11-1.2.52-.36.99-.88,1.54-1.24.66-.44,1.26-.93,1.95-1.41.26-.17.8-.59,1.01-.87.48-.61.94-1.11,1.37-1.7.21-.23.42-.46.63-.68.13-.13.27-.25.4-.38.19-.24.51-.52.76-.69.11-.11.22-.21.33-.32.31-.3.61-.61.85-.93.2-.23.4-.45.61-.68.33-.43.89-.79.98-1.22-.04-.05-.06-.05-.1-.06-.19.14-.46.41-.63.63-.2.2-.4.39-.6.59-.4.45-.8.9-1.2,1.35-.14.12-.27.24-.41.36-.45.43-.91.87-1.36,1.3-.15.16-.3.32-.45.48-.36.46-.72.92-1.08,1.38-.12.13-.23.25-.35.38-.22.3-.68.64-.94.82-.22.18-.45.35-.67.53-.46.32-.93.63-1.39.95-.22.19-.44.37-.66.56-.75.52-1.52,1.27-2.08,2.01-.53.5-1.07,1-1.6,1.5l.2.21c.43-.4.86-.8,1.29-1.19.17-.16.33-.32.5-.49ZM97.5,44.86c-.22.35-.56.64-.84,1-.11.1-.22.19-.33.29-.47.32-.85.63-1.29.86-.89.45-1.74,1-2.63,1.55-.29.22-.58.43-.87.65-.43.28-.83.53-1.28.83-.21.18-.42.36-.63.53-.54.39-1.08.77-1.62,1.16-.48.29-.94.51-1.41.74-.36.21-.72.42-1.08.64-.37.19-.72.28-1.08.37-.32.11-.64.22-.95.33-.44.14-.9.23-1.35.39-.91.34-1.8.83-2.71,1.39-.44.27-.81.69-1.25.99-.16.15-.32.3-.48.44-.46.44-.88.87-1.2,1.32-.55.78-1.12,1.47-1.53,2.24-.43.8-.76,1.6-1.21,2.41-.29.52-.68.99-1.01,1.52-.16.29-.33.58-.49.87-.16.28-.39.55-.59.83-.44.52-.88,1.05-1.33,1.57-.18.24-.48.43-.63.65,0,.04.01.08.02.12,0,0,.02,0,.03.01.13.04.7-.44.85-.63.5-.64,1.22-1.32,1.66-2,.26-.44.52-.88.79-1.32.45-.71.96-1.34,1.29-2.05.84-1.78,1.76-3.61,3.62-5.38,1.53-1.46,3.06-2.25,4.58-2.79.32-.08.63-.17.95-.25.34-.11.67-.23,1.01-.34.24-.06.48-.13.72-.19.42-.15.82-.48,1.25-.7.42-.21.85-.42,1.27-.63.44-.25.84-.64,1.29-.94.29-.2.57-.4.86-.6.25-.2.5-.4.75-.6.37-.23.74-.45,1.11-.68.46-.28.83-.64,1.27-.89.9-.51,1.76-.97,2.65-1.5.42-.25.82-.54,1.26-.97.13-.13.26-.25.39-.38.74-.99,1.19-1.85,1.67-2.84.17-.35.38-.69.58-1.04.09-.16.17-.34.3-.5l-.28-.3c-.11.18-.22.36-.33.55-.23.42-.46.85-.69,1.27-.37.67-.65,1.34-1.07,2.01ZM101.85,47.51c-.16.21-.35.47-.61.65-.22.16-.43.32-.65.48-.53.31-1.07.54-1.59.79-1.14.56-2.22,1.07-3.35,1.53-.5.19-.99.37-1.49.56-.47.22-.88.57-1.37.88-.74.46-1.55,1-2.31,1.28-.41.15-.84.11-1.25.21-.3.07-.58.24-.88.35-.43.16-.87.29-1.3.37-.95.16-1.9.32-2.84.47-1.29.27-2.53.72-3.83,1.48-.56.33-1.03.73-1.54,1.22-.16.16-.33.32-.49.48-.08.08-.17.16-.25.24-.25.29-.5.58-.75.86-.46.66-.82,1.28-1.17,1.91-.28.45-.55.91-.83,1.36-.14.32-.29.63-.43.95-.17.36-.37.71-.53,1.06-.25.54-.63,1.06-1.01,1.59-.16.22-.54.46-.49.69.13.08.43-.18.55-.34.14-.16.29-.33.43-.5.3-.44.6-.87.81-1.31.34-.72.69-1.45,1.03-2.17.24-.4.49-.79.73-1.19.21-.38.41-.75.62-1.13.6-.97,1.92-2.45,2.99-3.15.83-.54,1.6-.95,2.41-1.24,1.77-.64,3.56-.71,5.33-1.13.48-.11.93-.42,1.42-.54.6-.14,1.17-.16,1.78-.43.67-.3,1.32-.73,1.97-1.13.38-.23.71-.54,1.08-.72.76-.38,1.56-.61,2.34-.93.99-.4,1.95-.89,2.96-1.35.79-.36,1.72-.69,2.49-1.56.8-.91,1.19-1.85,1.87-2.74l-.28-.29c-.19.3-.38.6-.56.9-.31.54-.63,1.01-1.03,1.55ZM100.33,47.86c-.94.61-1.89,1.01-2.84,1.48-.67.33-1.28.53-1.96.88-.24.12-.62.31-.79.57,0,.02,0,.04,0,.06.05.05.07.06.11.07.38-.2.81-.45,1.22-.62.38-.15.76-.3,1.14-.44.65-.32,1.3-.65,1.95-.97.61-.3,1.22-.53,1.84-1.13.11-.1.21-.2.32-.31.39-.52.71-.94.99-1.44.24-.42.45-.91.79-1.3l-.29-.3s0,0,0,0c-.2.32-.39.64-.59.96-.41.74-.94,1.85-1.89,2.47ZM102.84,51c-1.85,1.17-3.6,1.53-5.43,2.22-.48.18-.96.32-1.44.6-.28.16-.52.42-.82.63-.4.27-.74.57-1.17.87-.14.14-.28.28-.42.42-.43.42-.87.87-1.31,1.11-.36.2-.69.17-1.04.23-.11.02-.33.01-.43.17-.22.37.79,1.17,1.11.62-.02-.03-.04-.07-.05-.1-.08-.02-.81-.04-.73-.33.02-.08.26-.08.32-.08.33,0,.65-.05.99-.23.28-.15.82-.57,1.06-.89.19-.19.39-.38.58-.57.48-.33.88-.68,1.33-.98.2-.16.4-.32.6-.48.54-.33,1.05-.49,1.58-.69,1.84-.69,3.62-1.06,5.46-2.2,1.45-.9,2.16-2.41,3.04-3.54l-.26-.28c-.28.27-.49.66-.68.97-.5.8-1.32,1.92-2.26,2.52ZM103.29,49.48c-.11.15-.3.38-.48.5-.16.13-.32.26-.48.39-.39.26-.76.52-1.16.71-1.53.75-3.09,1.03-4.61,1.66-.87.36-1.76,1.11-2.63,1.63-.32.19-.58.4-.89.51-.37.1-.75.21-1.12.32-.32.13-.63.27-.95.4-.61.22-1.31.27-1.93.32-.24.02-.49-.02-.73-.05-.36-.05-.74-.04-1.11,0-.2.02-.45,0-.64.14,0,.04,0,.08,0,.11.02.01.03.02.05.04.17.06.41,0,.58-.01.26,0,.53,0,.79.01.78.1,1.31.06,2.09-.05.31-.05.65-.07.97-.18.35-.15.7-.3,1.05-.44.49-.18,1-.24,1.49-.49.17-.11.35-.23.52-.34.84-.5,1.73-1.25,2.58-1.6,1.9-.78,3.75-1.03,5.7-2.26,1.02-.64,1.83-1.78,2.39-2.67.2-.31.4-.67.66-.97l-.27-.28c-.31.3-.56.8-.78,1.14-.32.52-.7.93-1.1,1.47ZM102.61,49.06c-.32.43-1.03.87-1.39,1.08-.82.47-1.58.79-2.39,1.08-.41.12-.81.25-1.22.37-.4.17-.8.35-1.2.52-.45.18-.92.36-1.37.61-.58.32-1.12.82-1.71,1.17-.38.23-.76.41-1.14.55-.28.08-.56.16-.84.24-.32.13-.65.26-.97.38-.17.06-1.06.26-1.12.36v.09s.01.02.03.04c.43.14,1.39-.28,1.86-.45.64-.24,1.29-.36,1.94-.69.68-.34,1.31-.95,2-1.33.56-.3,1.09-.53,1.63-.74.33-.15.67-.29,1-.44.3-.09.6-.17.9-.26.64-.22,1.26-.44,1.91-.74.69-.32,1.4-.69,2.09-1.35.13-.12.26-.25.39-.37.26-.34.54-.62.76-.96.36-.56.7-1.12,1.12-1.67l-.27-.28c-.39.48-.7,1.03-1.02,1.54-.27.43-.64.79-.98,1.24ZM96.5,43.53c-.18.3-.56.94-.92,1.19-.47.32-.83.69-1.29.98-.78.5-1.53.97-2.33,1.48-.49.31-.93.81-1.41,1.13-.46.29-.89.67-1.37,1-.24.22-.48.43-.71.65-.26.2-.79.6-.97.84,0,.03,0,.05,0,.08.02.01.03.02.05.04.19.03.64-.41.86-.56.71-.48,1.34-1.17,2.02-1.6.23-.16.47-.33.7-.49.24-.2.47-.4.71-.6.42-.28.83-.56,1.25-.85.36-.21.72-.42,1.08-.63.27-.19.54-.38.8-.57.46-.29,1.08-.78,1.43-1.28.65-.94,1.06-1.82,1.46-2.76.21-.5.38-1.07.79-1.55l-.26-.28c-.34.39-.5.86-.69,1.26-.38.85-.7,1.65-1.21,2.5ZM58,70.46c.47-.44.93-.89,1.4-1.33.67-.87,1.59-1.58,2.41-2.15.57-.4.99-1.05,1.54-1.43.67-.46,1.21-.9,1.88-1.34.3-.25.6-.5.89-.75.62-.61,1.24-1.21,1.87-1.82.54-.37,1.01-.92,1.55-1.39.32-.29.73-.62.99-.96.38-.45.76-.9,1.14-1.35.45-.44.89-.89,1.34-1.33.35-.32.69-.64,1.04-.96.24-.17.48-.48.63-.68.19-.23.38-.46.57-.68.68-.94,1.12-1.79,1.81-2.74.47-.65,1.29-1.17,1.8-1.84.27-.35.58-.65.87-1.03.11-.12.22-.23.34-.35.67-.46,1.23-.67,1.88-1.04.44-.31.87-.61,1.31-.92.5-.3,1-.6,1.5-.9.24-.19.48-.38.73-.57.3-.21.6-.42.9-.63.45-.31.76-.79,1.25-1.14.24-.17.62-.53.82-.79.18-.18.36-.37.53-.55.31-.38.63-.75.94-1.13.49-.57.98-1.15,1.47-1.72.31-.32.62-.64.93-.96.19-.21.38-.42.57-.63.48-.64,1.08-1.18,1.43-1.82l-.27-.28c-.27.36-.53.73-.8,1.09-.29.34-.59.69-.88,1.03-.3.31-.61.63-.91.94-.5.65-1.1,1.16-1.57,1.81-.45.62-1.01,1.16-1.51,1.8-.21.21-.43.43-.64.64-.33.32-.67.64-1,.96-.14.13-.28.26-.42.39-.4.29-.81.58-1.21.88-.2.16-.4.31-.59.47-.52.32-1.03.64-1.55.96-.38.27-.75.53-1.13.8-.29.17-.56.33-.85.45-.44.18-1.03.41-1.46.98-.3.36-.6.71-.9,1.07-.13.14-.26.27-.39.41-.11.11-.23.22-.34.33-.36.35-.69.61-.95.96-.63.86-1.1,1.64-1.62,2.47-.36.46-.72.91-1.09,1.37-.38.37-.76.74-1.14,1.1-.38.38-.76.76-1.14,1.14-.2.16-.45.35-.62.58-.97,1.27-2.36,2.66-3.72,3.73-.43.43-.86.85-1.28,1.28-.12.11-.23.22-.35.33-.32.27-.64.54-.96.8-.55.39-1.11.78-1.66,1.17-.3.27-.6.53-.89.8-.17.16-.34.33-.5.49-.17.14-.33.28-.5.42-.36.24-.75.55-1.07.79-.27.2-.52.47-.69.7-.23.24-.46.48-.69.72-.41.39-.83.77-1.24,1.16-.32.35-.63.71-.95,1.06-.43.56-.99,1.1-1.53,1.61l.21.22c.88-.88,1.79-1.73,2.5-2.66ZM73.56,86.96c.4-.28.8-.55,1.2-.83.65-.41,1.24-.9,1.89-1.23.89-.46,1.75-.79,2.63-1.15.34-.16.67-.33,1.01-.49.83-.37,1.69-.78,2.53-1.2.85-.43,1.66-1.06,2.49-1.59.25-.2.5-.4.75-.59l.48-.44c.53-.51.94-.99,1.31-1.5.5-.71,1.07-1.32,1.47-2.01.3-.54.59-1.08.89-1.62.18-.43.37-.87.55-1.3.17-.31.33-.61.5-.92.23-.49.44-.96.72-1.46.28-.4.56-.81.83-1.21.46-.68,1.14-1.26,1.68-1.96.31-.41.99-.84,1.33-1.05.66-.4,1.26-.83,1.91-1.32.4-.35.79-.69,1.19-1.04.51-.35.96-.67,1.44-1,.41-.39.83-.77,1.24-1.16.58-.4,1.07-.77,1.63-1.05,1.15-.57,2.25-.83,3.37-1.09.95-.25,1.9-.49,2.86-.74,1.8-.45,3.55-1.33,5.35-2.02l-.29-.31s.02.02.02.03c-1.95.73-3.83,1.68-5.77,2.14-.66.17-1.31.34-1.97.52-1.33.31-2.61.6-3.97,1.29-.5.25-.92.6-1.45.97-.38.35-.75.7-1.13,1.05-.56.38-1.06.78-1.64,1.18-.39.35-.79.7-1.18,1.05-.28.2-.55.4-.83.61-.65.39-1.39.81-1.99,1.41-.17.16-.33.31-.5.47-.5.66-1.12,1.21-1.55,1.86-.31.46-.62.92-.93,1.37-.26.46-.45.91-.67,1.36-.18.33-.35.66-.53.99-.22.48-.4.96-.63,1.45-.52,1.11-1.27,2.1-2.07,3.21-.25.34-.54.62-.83,1-.12.15-.31.38-.47.49-.14.12-.27.25-.41.37-.24.2-.49.4-.73.6-.83.55-1.69,1.21-2.57,1.65-.79.4-1.63.82-2.43,1.15-.39.19-.78.38-1.17.56-.89.36-1.77.68-2.68,1.16-1.02.55-1.98,1.3-2.99,1.96-.31.24-.61.47-.92.71-.68.44-1.4.95-2.05,1.55l.26.27c.7-.57,1.37-1.12,2.07-1.58.25-.19.49-.39.74-.58ZM74.72,88.4c.3-.24.59-.49.89-.73.61-.41,1.16-.91,1.76-1.27.76-.46,1.48-.84,2.23-1.2.7-.34,1.38-.72,2.09-1.15.15-.09.67-.35.74-.5,0,0,0-.02,0-.03,0-.03-.03-.07-.06-.08-.19-.06-.52.22-.72.32-.61.34-1.21.67-1.82.97-.94.46-1.86.9-2.83,1.48-.61.37-1.16.87-1.78,1.3-.22.19-.44.37-.66.56-.94.64-1.81,1.37-2.75,2.15l.25.26c.3-.25.6-.5.9-.75.58-.45,1.17-.89,1.75-1.34ZM75.27,86.86c.74-.47,1.39-1.04,2.1-1.42,1.63-.87,3.31-1.49,4.95-2.3.61-.35,1.21-.7,1.82-1.05.33-.23.66-.46.99-.7.56-.35,1.08-.78,1.63-1.31.17-.17.33-.33.5-.5.32-.43.6-.84.86-1.27.18-.26.37-.53.55-.79.06-.09.21-.25.07-.32-.01,0-.03-.01-.04-.02-.26.22-.46.5-.63.75-.35.51-.67.94-1.04,1.44-.19.25-.48.54-.74.72-.19.16-.38.33-.57.49-.32.22-.64.44-.96.66-.3.21-.6.42-.9.63-.73.44-1.51.92-2.26,1.26-1.36.61-2.72,1.22-4.08,1.83-1.06.52-2.1,1.39-3.17,2.1-.22.17-.44.34-.67.51-.35.26-.7.52-1.05.78-.5.32-1,.72-1.49,1.18l.25.26c.72-.59,1.43-1.18,2.18-1.68.59-.4,1.12-.9,1.69-1.26ZM74.56,89.62c.47-.38.94-.75,1.41-1.13.18-.15.36-.3.54-.44.58-.43,1.17-.86,1.75-1.3,1.03-.62,2.01-1.16,3.05-1.79.51-.31.97-.72,1.49-1.07.22-.18.45-.36.67-.54.39-.27.78-.54,1.16-.8.31-.24.62-.48.93-.72.42-.27.81-.58,1.24-.9.16-.15.33-.31.49-.46.21-.26.41-.51.62-.77.34-.51.64-1.02.93-1.54.18-.32.42-.6.56-.91.12-.29.24-.57.36-.86.23-.49.59-.93.81-1.41.2-.47.4-.94.6-1.41.16-.32.32-.63.49-.95.16-.35.28-.72.47-1.06.32-.58.74-1.13,1.14-1.7.17-.2.33-.4.5-.6.36-.49.92-1.12,1.48-1.49.68-.46,1.31-.87,1.97-1.28.31-.25.63-.51.94-.76.57-.39,1.25-.81,1.72-1.45.11-.15.25-.25.29-.4-.02-.04-.03-.08-.08-.09-.15-.05-.38.2-.53.35-.4.39-.73.72-1.16.99-.45.28-.89.76-1.36,1.06-.62.4-1.24.81-1.89,1.24-.62.42-1.3,1.15-1.7,1.72-.21.29-.46.52-.64.8-.32.51-.71,1.01-.99,1.53-.16.34-.32.69-.47,1.03-.16.31-.31.61-.47.92-.18.44-.37.88-.55,1.32-.25.57-.67,1.1-.94,1.68-.13.3-.25.6-.38.9-.2.32-.4.65-.61.97-.26.45-.52.89-.82,1.34-.18.21-.36.43-.54.64-.13.12-.26.24-.39.36-.14.12-.28.24-.41.35-.28.19-.57.39-.85.58-.34.26-.68.53-1.02.79-.36.25-.72.5-1.09.74-.25.21-.51.42-.76.63-.47.32-.87.69-1.33.96-1.04.61-2.03,1.14-3.04,1.75-.81.49-1.54,1.17-2.35,1.72-.24.2-.48.4-.73.59-.49.34-.92.79-1.43,1.14-.42.28-.82.63-1.21,1l.24.26c.34-.31.7-.63,1.07-.88.27-.22.53-.43.8-.65ZM75.64,89.8c.39-.32.79-.64,1.18-.96.22-.19.43-.37.65-.56.53-.36.95-.86,1.51-1.22.39-.25.79-.47,1.18-.69.57-.36,1.13-.72,1.7-1.08.41-.31.83-.61,1.24-.92.78-.5,1.51-1.02,2.26-1.5.33-.22.62-.57.95-.8.17-.14.33-.27.5-.41.24-.17.6-.42.81-.71.38-.51.81-1,1.14-1.52.2-.35.4-.69.59-1.04.21-.32.42-.64.63-.95.21-.37.33-.76.5-1.13.2-.36.41-.72.61-1.08.16-.34.32-.68.48-1.01.15-.27.3-.53.45-.8.26-.52.43-1.03.66-1.54.2-.43.52-.84.83-1.28.28-.4.7-.7,1.02-1.11.3-.39.6-.78,1-1.05.58-.39,1.11-.68,1.69-1.03.43-.26.78-.62,1.22-.92.28-.22.55-.43.83-.65.23-.16.57-.43.76-.69.19-.26.39-.48.53-.73.17-.31.27-.62.49-.93.32-.46.9-.92,1.33-1.2.59-.38,1.08-.78,1.65-1.09,1.13-.6,2.16-.75,3.26-.97.53-.12,1.05-.24,1.58-.35,2.18-.51,4.36-1.45,6.54-2.28l-.28-.29c-.61.24-1.22.48-1.83.72-1.64.66-3.27,1.28-4.92,1.63-1.22.27-2.48.4-3.69.85-.72.27-1.43.74-2.14,1.19-.6.38-1.41,1-1.84,1.64-.22.32-.3.65-.48.97-.13.23-.33.43-.51.66-.15.2-.41.38-.58.5-.35.28-.7.55-1.04.83-.4.27-.71.59-1.09.82-.55.32-1.07.62-1.62.99-.37.25-.72.67-.96.99-.35.48-.85.85-1.18,1.3-.28.4-.6.8-.8,1.21-.27.57-.47,1.13-.75,1.71-.12.21-.24.42-.36.63-.32.68-.68,1.33-1.05,2.03-.21.41-.33.82-.54,1.21-.22.33-.43.65-.65.98-.17.3-.33.6-.5.91-.37.51-.74,1.02-1.1,1.53-.32.43-.87.82-1.29,1.1-.32.27-.64.54-.97.81-.72.48-1.43.96-2.15,1.44-.53.39-1.06.78-1.59,1.16-1.09.64-2.09,1.25-3.18,1.97-.2.17-.4.33-.6.5-.73.5-1.33,1.18-2.04,1.67-.23.2-.46.41-.68.61-.26.21-.52.43-.78.64-.41.28-.79.62-1.18.99l.24.25c.6-.5,1.19-1,1.79-1.5.18-.16.36-.32.54-.49ZM76.48,84.02c1.4-.69,2.83-1.07,4.25-1.65,1.07-.44,2.15-1.06,3.19-1.68.39-.28.78-.55,1.17-.83.25-.21.5-.43.75-.64.26-.25.53-.5.79-.76.16-.17.33-.34.49-.51.38-.5.79-.96,1.09-1.45,1.01-1.6,1.64-3.11,2.39-4.7.13-.22.26-.44.39-.67.32-.58.68-1.14,1.04-1.72.53-.84,1.14-1.61,2.02-2.45.26-.25.52-.51.79-.76.22-.17.44-.35.67-.53.57-.37,1.1-.72,1.68-1.12.41-.35.81-.69,1.22-1.04.3-.27.59-.55.89-.82,1.05-.72,2.08-1.78,3.12-2.3,1.26-.62,2.53-.98,3.79-1.28.72-.17,1.42-.41,2.13-.58,1.31-.31,2.58-.96,3.91-1.46.63-.24,1.34-.4,1.97-.72l-.29-.3s.01.01.02.02c-.27.11-.55.22-.82.34-.59.21-1.21.41-1.81.65-.92.38-1.8.82-2.72,1.05-.91.23-1.79.53-2.71.75-1.3.31-2.61.7-3.92,1.37-.37.19-.66.48-1.05.75-.61.47-1.22.95-1.83,1.42-.19.19-.39.37-.58.56-.47.41-.94.82-1.41,1.23-.29.21-.57.42-.86.63-.61.37-1.19.76-1.82,1.36-.17.17-.34.34-.5.51-.29.28-.58.56-.87.84-.38.5-.78.94-1.09,1.45-.57.91-1.14,1.8-1.64,2.72-.15.34-.31.68-.46,1.02-.15.3-.3.61-.45.91-.45.97-.93,1.91-1.56,2.91-.28.44-.66.8-1.01,1.26-.23.3-.67.78-1.01,1.02l-.38.35c-.41.28-.75.65-1.15.9-1.18.75-2.34,1.44-3.53,1.94-.7.29-1.39.54-2.09.8-.74.27-1.5.5-2.24.86-.88.43-1.72,1.08-2.62,1.62-1.33.8-2.63,1.75-3.97,2.87l.25.26c1.32-1.14,2.71-2.12,4.05-2.93.81-.49,1.55-1.09,2.33-1.47ZM77.14,92.49c.16-.14.31-.29.47-.43.51-.47,1.01-.94,1.52-1.41.79-.67,1.58-1.34,2.38-2.01.77-.56,1.54-1.12,2.32-1.68.38-.35.76-.71,1.14-1.06.49-.36.99-.73,1.48-1.09.43-.29.78-.67,1.19-.95.39-.36.78-.71,1.16-1.07.43-.45.85-.9,1.28-1.36.16-.16.32-.32.47-.48.63-.83,1.47-1.49,1.94-2.32.29-.51.4-1.05.63-1.57.17-.32.33-.64.5-.96.27-.57.59-1.14.95-1.71.56-.89,1.58-1.73,2.44-2.31.44-.35.88-.71,1.31-1.06.46-.34.92-.67,1.38-1.01.61-.37,1.2-.65,1.85-1.09.39-.38.77-.76,1.16-1.15,1.27-1.2,2.5-2.66,3.84-3.45.77-.46,1.45-.65,2.2-.84.15-.04.71-.17.76-.33-.1-.22-.33-.08-.5-.05-.47.1-.93.21-1.4.35-.82.25-2.38,1.1-3.09,2.05-.33.31-.66.62-1,.94-.21.27-.44.54-.71.8-.2.19-.4.38-.6.58-.41.53-1.01,1.02-1.52,1.31-.47.26-.93.5-1.42.81-.57.44-1.15.87-1.72,1.31-.2.16-.39.33-.59.49-.89.61-1.91,1.43-2.54,2.37-.65.97-1.19,1.99-1.62,2.99-.23.53-.35,1.05-.68,1.58-.47.74-1.2,1.37-1.77,2.12-.16.16-.32.33-.47.49-.29.37-.78.74-1.08,1.14-.23.22-.47.44-.7.67-.36.25-.65.6-.99.83-.28.23-.55.45-.83.68-.46.34-.93.67-1.39,1.01-.14.13-.27.26-.41.39-.36.35-.72.71-1.09.96-.73.49-1.39,1.01-2.14,1.52-.09.08-.18.16-.27.24-.5.35-.85.77-1.34,1.11-.33.29-.65.58-.98.87-.13.12-.25.24-.38.36-.25.23-.5.46-.76.69-.2.19-.41.38-.61.57-.16.15-.32.3-.48.44-.4.28-.79.78-1.12,1.13l.23.24c.29-.31.58-.61.88-.92.25-.24.5-.47.74-.71ZM103.5,57.07c-.51.12-.98.3-1.5.51-.64.26-1.27.55-1.92.94-.43.33-.87.65-1.3.98-.28.19-.66.61-.85.85-.26.34-.75.7-1.05,1.1-.21.24-.42.48-.63.73-.21.28-.5.63-.82.87-.28.21-.6.52-.91.67-.35.17-.66.24-1.03.5-.15.1-.28.25-.36.38-.11.12-.21.24-.32.36-.22.3-.43.6-.65.9-.53.75-1.35,1.41-1.79,2.15-.85,1.44-1.57,2.83-2.37,4.28-.23.48-.46.96-.7,1.44-.47.86-1.1,1.71-1.71,2.56-.23.32-.6.72-.93.95-.22.19-.45.38-.67.57-.58.39-1.12.81-1.7,1.12-.53.29-1.07.53-1.6.79-.84.41-1.61.85-2.44,1.16-1.34.51-2.66.9-3.99,1.56-.68.34-1.32.81-2.02,1.25-.2.13-.6.36-.64.58.05.05.07.04.12.05,1.17-.6,2.32-1.51,3.47-1.97.99-.36,1.97-.72,2.96-1.08.9-.34,1.75-.8,2.66-1.25.57-.28,1.17-.55,1.76-.88.59-.33,1.12-.74,1.71-1.15.44-.3.86-.76,1.28-1.17.19-.24.39-.49.58-.73.51-.8,1.1-1.57,1.51-2.37.15-.33.3-.66.45-.99.35-.63.69-1.26,1.04-1.88.19-.38.38-.77.57-1.15.37-.61.74-1.23,1.11-1.84.34-.53.89-.96,1.3-1.5.32-.41.64-.81.95-1.22.12-.17.31-.44.51-.57.43-.3.78-.38,1.18-.61.27-.15.5-.4.78-.59.18-.18.36-.36.55-.53.11-.11.22-.22.33-.33.3-.34.6-.67.9-1.01.2-.21.4-.41.61-.62.42-.56,1.11-1.14,1.64-1.5.34-.23.61-.49.94-.68.84-.48,1.71-.88,2.56-1.19.19-.07.93-.23,1.03-.39,0,0,0-.02,0-.03-.02-.03-.05-.07-.07-.1-.17-.06-.36.05-.54.09ZM70.69,84.6c.47-.32.82-.89,1.27-1.2.81-.55,1.52-1.02,2.3-1.43.25-.14.51-.29.76-.43.85-.36,1.73-.57,2.58-.89,2.27-.84,4.48-1.88,6.73-3.68.5-.4,1.05-1.04,1.37-1.48.44-.62.93-1.15,1.28-1.76.38-.68.64-1.31.96-1.98.36-.76.91-1.47,1.25-2.22.2-.44.26-.91.49-1.33.23-.41.75-.71,1.08-1.14.47-.56.94-1.12,1.41-1.67.2-.29.39-.58.59-.87.17-.27.38-.67.73-.89.29-.18.59-.15.88-.26.29-.11.54-.35.84-.55.62-.43,1-1.18,1.33-1.66.35-.49.91-.93,1.39-1.39.36-.34.7-.77,1.1-1.05.28-.19.54-.41.82-.56.35-.16.7-.31,1.04-.47.38-.16.73-.36,1.1-.49.73-.26,1.51-.38,2.25-.56.61-.15,1.19-.44,1.79-.68,1.5-.61,3.28-1.58,4.76-3.18l-.28-.29c-2.01,1.96-3.87,2.93-5.87,3.65-.81.29-1.63.45-2.43.64-.49.12-.94.38-1.44.58-.69.28-1.19.54-1.92,1.04-.33.22-.88.75-1.12,1.07-.17.15-.34.31-.51.46-.32.23-.72.71-.94,1.02-.29.42-.53.79-.88,1.24-.09.1-.18.19-.27.29-.32.23-.59.51-.9.62-.34.12-.59.04-.98.3-.41.28-.63.73-.81,1.05-.2.35-.43.67-.69,1.02-.33.38-.66.77-.99,1.15-.16.16-.31.32-.47.49-.08.08-.17.15-.25.23-.25.23-.49.47-.63.71-.27.49-.34,1-.57,1.5-.3.66-.8,1.29-1.12,1.96-.27.59-.55,1.19-.82,1.78-.27.49-.61.9-.97,1.4-.36.5-.81.97-1.23,1.47-.16.16-.32.32-.47.48-.46.32-.86.75-1.32,1.05-1.23.79-2.42,1.44-3.65,1.95-.82.34-1.63.66-2.44.95-.7.25-1.42.41-2.12.76-1,.5-1.88,1.1-2.87,1.78-.46.32-.82.86-1.27,1.16-.25.18-.49.36-.74.54-.61.39-1.21.84-1.81,1.41l.24.25c.45-.44.94-.8,1.41-1.11.35-.26.7-.51,1.04-.77ZM70.83,85.6c.7-.45,1.33-.74,2-1.13,1.01-.58,1.93-1.24,2.92-1.65,1.12-.45,2.24-.81,3.36-1.24,1.31-.51,2.57-1.13,3.89-1.89.8-.45,1.58-1.02,2.37-1.77.19-.19.39-.37.58-.56.17-.19.34-.38.51-.57.34-.46.69-.89.96-1.36.78-1.36,1.38-2.69,2.01-4.04.2-.35.4-.7.59-1.05.26-.47.53-.95.81-1.43.35-.58.81-1.11,1.25-1.69.22-.23.43-.47.65-.7.24-.26.48-.52.72-.78.12-.12.24-.24.36-.35.51-.36.94-.7,1.43-1.02.25-.2.5-.41.75-.61.34-.31.68-.63,1.02-.94.26-.18.67-.56.86-.81.16-.15.31-.31.47-.46.21-.27.55-.6.84-.81.63-.44,1.2-.98,1.83-1.36.61-.37,1.22-.73,1.83-1.1.41-.21.83-.34,1.25-.55.5-.26.96-.6,1.44-.83.75-.37,1.48-.61,2.21-.92.51-.21.99-.52,1.51-.81.53-.3.98-.73,1.52-1.1.22-.2.45-.41.67-.61l-.27-.28c-1.2,1.18-2.47,2.05-3.71,2.56-.46.18-.93.36-1.39.54-.47.2-.93.43-1.38.69-.28.18-.57.37-.85.55-.36.18-.72.31-1.08.46-.34.18-.67.36-1.01.55-.55.31-1.05.66-1.6,1.02-.36.27-.72.54-1.07.81-.24.22-.48.44-.72.66-.17.18-.35.37-.52.55-.61.59-1.22,1.19-1.84,1.78-.45.31-.81.72-1.24.99-.44.28-1.17.68-1.57,1.21-.59.77-1.35,1.42-1.88,2.18-.6.85-1.1,1.66-1.55,2.48-.15.27-.31.53-.46.8-.78,1.61-1.45,3.14-2.47,4.76-.22.35-.52.68-.79,1.05-.15.16-.3.32-.45.47-.17.23-.39.45-.66.63-.36.25-.62.56-.96.79-1.62,1.07-3.14,1.86-4.74,2.49-1.28.5-2.55.91-3.83,1.44-.6.25-1.17.59-1.76.94-.37.23-.74.47-1.11.7-.37.18-.73.36-1.1.54-.37.19-.68.47-1.06.71-.59.38-1.18.81-1.75,1.35l.24.25c.17-.14.34-.28.51-.42.49-.37.98-.73,1.47-1.1ZM74.29,84.41c.54-.33,1.08-.65,1.62-.92.85-.42,1.73-.69,2.58-1,1.02-.37,2.04-.79,3.06-1.25.97-.44,1.91-1.06,2.89-1.7.35-.28.7-.57,1.05-.85.12-.12.25-.24.37-.35.25-.24.54-.48.73-.74.29-.38.6-.67.85-1.03.55-.82.96-1.61,1.34-2.42.16-.3.31-.6.47-.89.28-.6.56-1.2.85-1.79.43-.74.85-1.49,1.28-2.23.53-.92,1.29-1.8,2.24-2.71.31-.3.63-.61.94-.91.52-.36.98-.72,1.48-1.05.31-.25.61-.49.92-.74.15-.13.3-.26.44-.4.4-.27.9-.71,1.22-1.12l.39-.35c.36-.25.64-.54.96-.77.36-.29.71-.59,1.07-.88.44-.28.88-.56,1.32-.74,1.04-.42,2.1-.59,3.13-.96.32-.12.63-.24.95-.42.51-.29.95-.71,1.44-.91.6-.25,1.21-.43,1.82-.68.28-.12.53-.29.81-.44.7-.37,1.4-.87,2.12-1.47l-.27-.28c-.93.81-2,1.55-2.94,1.95-.58.22-1.17.44-1.75.66-.49.22-.94.62-1.44.91-.31.18-.64.31-.96.43-1.13.41-2.29.52-3.41,1.09-.45.22-.86.51-1.31.82-.16.14-.32.28-.49.42-.34.27-.69.53-1.03.8-.38.38-.76.76-1.14,1.13-.54.46-1.07.93-1.61,1.39-.66.45-1.21.91-1.86,1.36-.3.3-.6.59-.9.89-.23.22-.45.43-.68.65-.37.49-.81.89-1.13,1.35-1.11,1.62-1.94,3.23-2.68,4.84-.14.26-.28.53-.42.79-.37.79-.75,1.55-1.26,2.34-.23.35-.52.64-.79,1.01-.3.39-.77.9-1.2,1.2-.34.24-.59.54-.91.76-1.52,1.01-2.92,1.81-4.41,2.39-1.35.53-2.71.93-4.04,1.53-1.01.45-1.96,1.17-2.99,1.75-1.2.68-2.55,1.52-3.75,2.64l.24.26c1.37-1.12,2.69-2.06,4.02-2.82.27-.18.54-.36.81-.54ZM108.87,62.48c-1.37.14-2.63.46-4.03,1.4-.31.21-.81.69-1.04.99-.28.27-.55.55-.83.82-.46.63-.95,1.25-1.58,1.88-1.04,1.04-2.19,1.52-3.24,2.16-.7.43-1.3,1.18-2.03,1.68-.4.28-.76.6-1.16.98l-.44.43c-.56.74-1.06,1.4-1.46,2.13-.57,1.04-.92,2.1-1.5,3.14-.59,1.07-1.44,1.99-2.25,3.06-.35.46-.92.89-1.34,1.21-.32.29-.64.59-.95.88-.6.61-1.39,1.1-2.04,1.52-.6.4-1.14,1.04-1.71,1.41-.39.28-.78.55-1.17.83-.33.2-.66.41-1,.64-.44.35-.88.7-1.33,1.04-.71.63-1.41,1.26-2.12,1.89-.32.28-.64.57-.97.85l-.38.36c-.19.17-.37.35-.56.52-.36.34-.75.71-.99.99l.21.22c.33-.32.66-.65.99-.97.15-.14.3-.28.45-.42.19-.17.37-.35.56-.52.19-.17.38-.34.57-.51.35-.31.7-.62,1.05-.93.19-.17.37-.35.56-.52.38-.32.75-.64,1.13-.96.38-.3.77-.59,1.15-.89.33-.21.67-.43,1-.64.38-.27.76-.54,1.14-.81.43-.28.8-.77,1.26-1.09.67-.46,1.24-.94,1.93-1.41.41-.38.83-.75,1.24-1.13l.32-.28c.35-.24.84-.64,1.13-1.02.23-.27.47-.54.7-.81.58-.79,1.19-1.49,1.64-2.29.35-.62.6-1.24.87-1.84.21-.44.43-.87.64-1.31.29-.61.74-1.2,1.17-1.79.5-.69,1.31-1.34,1.97-1.8.58-.4,1.07-1.03,1.68-1.43.55-.36,1.07-.62,1.62-.94.52-.29.97-.69,1.5-1.05.13-.12.25-.23.38-.35.63-.44,1.2-1.29,1.57-1.81.26-.36.7-.59.99-.97.18-.23.46-.54.72-.72.4-.27.75-.56,1.14-.76.69-.34,1.47-.58,2.18-.69.5-.05,1.01-.1,1.51-.15.48-.09.97-.18,1.45-.27,0,0,0,0,0,0l.41-.39c-.27.04-.55.08-.82.12-.64.11-1.28.23-1.91.3ZM72.11,82.53c.59-.4,1.13-.76,1.71-1.11.34-.21.62-.45.95-.61.53-.26,1.09-.42,1.63-.55.62-.15,1.25-.42,1.87-.65,1.32-.5,2.63-1.21,3.95-1.96.46-.26.86-.61,1.32-.93.14-.12.28-.24.41-.37,1.16-.83,1.6-2.09,2-3.05.34-.81.71-1.59,1.06-2.37.25-.49.49-.99.74-1.48.14-.35.29-.7.43-1.05.21-.41.49-.8.76-1.2.61-.9,1.66-1.78,2.18-2.7.46-.81.56-1.65.94-2.47.13-.29.37-.55.59-.84.52-.69,1.39-.69,1.98-1.09.43-.29.62-.93.87-1.3.52-.76,1.73-1.82,2.47-2.2.39-.2.77-.34,1.15-.5.53-.22,1.01-.51,1.51-.69.66-.19,1.32-.37,1.98-.56.88-.23,1.77-.64,2.65-1.13,1.18-.67,2.45-2.01,3.46-3.11l-.28-.29c-.22.24-.43.49-.65.73-.26.26-.52.51-.78.77-.73.73-1.56,1.41-2.33,1.8-.78.4-1.59.76-2.38.96-.6.17-1.19.33-1.79.5-.51.18-1.01.47-1.55.7-.39.16-.8.3-1.19.52-.76.42-1.91,1.38-2.48,2.2l-.34.53c-.11.24-.2.59-.51.79-.65.44-1.44.38-2.03,1.16-.31.41-.58.78-.75,1.19-.3.71-.4,1.47-.8,2.18-.25.44-.68.79-1.03,1.26-.38.51-.81.94-1.15,1.45-.29.43-.59.86-.82,1.31-.16.38-.32.76-.48,1.14-.24.51-.51.97-.73,1.47-.34.79-.72,1.59-1.07,2.39-.21.49-.39.97-.7,1.46-.2.32-.51.61-.78.92-.17.21-.42.44-.64.6-.48.33-.88.7-1.35.98-1.25.76-2.56,1.44-3.83,1.92-.52.19-1.05.38-1.57.57-.61.21-1.23.33-1.86.59-.42.17-.76.47-1.21.76-.53.34-1.05.68-1.58,1.02-.37.29-.73.59-1.1.88-.51.33-.97.57-1.47.85-.68.39-1.48,1.06-2.14,1.68l.24.25c1.05-1.02,2.17-1.66,3.2-2.29.45-.27.83-.71,1.28-1.02ZM108.59,61.84c-1.23.17-2.63.23-3.85,1.06-.2.18-.41.37-.61.55-.17.15-.34.3-.52.45-.41.29-.94.82-1.22,1.22-.25.36-.51.72-.76,1.09-.17.19-.35.39-.52.58-.19.24-.5.54-.76.72-.71.49-1.33.85-2.01,1.26-.51.31-.93.73-1.45,1.08-.69.46-1.54,1.08-2.11,1.83l-.35.33c-.36.35-.81.71-1.05,1.07-.34.51-.58,1.01-.86,1.52-.3.55-.66,1.05-.89,1.59-.28.64-.48,1.33-.83,1.97-.27.48-.69.9-1.04,1.39-.31.44-.6.83-.93,1.28-.25.33-.55.55-.85.84-.85.81-1.62,1.45-2.45,2.01-.28.23-.55.45-.83.68-.43.31-.86.62-1.3.93-.24.19-.47.39-.71.58-.35.21-.7.41-1.05.62-.84.53-1.56,1.22-2.4,1.8-.33.29-.66.59-1,.88-.38.32-.77.64-1.15.96-.17.15-.35.3-.52.46-.15.14-.31.27-.46.41-.18.17-.37.34-.55.51-.43.43-.87.86-1.3,1.29l.22.23c.37-.37.74-.73,1.11-1.1.17-.16.33-.32.5-.48.25-.23.5-.45.76-.68.31-.21.49-.48.78-.67.32-.27.63-.53.95-.8.31-.27.61-.54.92-.8.8-.55,1.49-1.23,2.3-1.73.35-.21.7-.41,1.05-.62.22-.18.45-.37.67-.55.46-.34.92-.68,1.38-1.01.28-.23.56-.46.84-.69.46-.31.88-.65,1.35-.97.33-.31.66-.62.98-.92.28-.27.57-.53.85-.8.43-.57.81-1.02,1.2-1.57.34-.48.73-.88.99-1.35.36-.65.55-1.35.84-1.99.21-.46.5-.88.77-1.36.32-.57.59-1.14.99-1.71.14-.2.53-.65.75-.8.2-.19.4-.37.6-.56.47-.61,1.16-1.14,1.74-1.52.55-.41,1.11-.82,1.66-1.23.65-.4,1.27-.73,1.95-1.18.16-.14.32-.28.48-.42.76-.53,1.34-1.51,1.8-2.16.29-.41.82-.93,1.25-1.22.34-.3.68-.61,1.03-.91,1.4-.92,2.8-.83,4.18-1.1.77-.15,1.52-.3,2.28-.41.22-.03.44-.06.66-.09h0s.4-.38.4-.38c-.67.09-1.34.18-2,.26-.64.1-1.27.28-1.9.37ZM110.94,60.7c-1.13.15-2.26.35-3.39.55-.8.14-1.6.22-2.41.55-.32.13-.61.35-.94.58-.18.16-.36.31-.54.47-.55.38-1.3.94-1.72,1.55-.28.4-.55.8-.83,1.2-.26.28-.52.55-.78.83-.28.36-.7.78-1.08,1.01-.93.58-1.85,1.23-2.83,1.88-.43.28-1.1.8-1.45,1.24-.09.09-.19.19-.28.29-.22.27-.43.53-.65.8-.17.23-.35.28-.4.49.02.03.03.05.05.08.2,0,.56-.35.73-.57.43-.57,1.07-1.28,1.71-1.72.84-.57,1.6-1.21,2.44-1.7.5-.3,1.31-.66,1.77-1.27.33-.43.84-.81,1.13-1.25.24-.36.49-.71.73-1.07.11-.13.22-.25.34-.38.13-.16.3-.35.48-.47.68-.47,1.31-1.18,2-1.55.63-.33,1.28-.43,1.91-.54.75-.13,1.5-.24,2.24-.37.82-.14,1.64-.25,2.46-.37.44-.06.88-.13,1.32-.19,0,0,0,0,0,0l.45-.43c-.23.1-.54.1-.78.14-.56.07-1.13.15-1.69.22ZM115.78,58c-.35.22-.89.32-1.26.46-.74.27-1.5.57-2.25.75-.32.07-.64.14-.97.21-.1.02-.31,0-.38.11-.03.05-.02.07-.02.11.2.15.84-.03,1.08-.07.75-.15,1.51-.37,2.26-.64.2-.07.79-.33.97-.33l.59-.56-.04-.04ZM109.97,60.12c-.8.12-1.58.26-2.39.43-.96.19-1.9.29-2.86.7-.78.33-1.58,1.05-2.34,1.57-.81.54-1.17,1.31-1.56,1.92-.21.33-.5.59-.76.94-.34.31-.67.62-1.01.94-.24.2-.48.39-.72.59-.68.44-1.34.87-2,1.25-.71.42-1.61,1.31-2.13,1.98-.23.26-.45.52-.68.77-.49.68-.61,1.29-.97,1.94-.41.75-.8,1.47-1.14,2.2-.19.35-.38.69-.57,1.04-.42.88-.86,1.78-1.42,2.68-.27.43-.66.82-.98,1.26-.26.28-.53.57-.79.85-.66.86-1.72,1.7-2.57,2.24-.32.24-.64.49-.96.73-.71.46-1.42.91-2.13,1.37-.53.39-1.05.77-1.58,1.16-.52.32-1.01.63-1.55.99-.53.47-1.06.93-1.58,1.4-.48.33-.92.74-1.4,1.11-.27.25-.54.51-.82.76-.46.41-.93.82-1.39,1.23l.22.23c1.31-1.06,2.47-2.34,3.75-3.24.13-.12.26-.24.39-.35.49-.34.89-.85,1.36-1.14.46-.3.92-.59,1.38-.89.72-.47,1.32-1.02,2.01-1.44.51-.32,1.01-.64,1.52-.96.29-.22.57-.44.86-.66.84-.54,2.07-1.51,2.75-2.4.23-.24.46-.48.69-.72.41-.54.87-1,1.2-1.53.62-.98,1.06-1.93,1.52-2.91.13-.24.26-.47.39-.71.35-.75.76-1.48,1.18-2.25.29-.54.38-1.07.74-1.61.2-.3.49-.54.73-.85.44-.57,1.16-1.34,1.78-1.75.43-.28.85-.53,1.27-.78.58-.35,1.07-.75,1.66-1.15.23-.21.47-.43.7-.64.48-.45.96-.89,1.26-1.35.26-.4.46-.79.75-1.18.36-.49,1.03-.92,1.44-1.2.32-.24.64-.48.96-.72,1.38-.84,2.62-.9,3.96-1.18,1.32-.27,2.61-.39,3.92-.58.44-.07.87-.15,1.31-.22.2-.05.4-.11.59-.16,0,0,0,0,0,0l.59-.56c-.3.16-.69.25-1,.32-1.21.28-2.39.38-3.58.55ZM106.24,67.03c-.26.24-.53.49-.79.73-.17.15-.34.3-.52.45-.5.34-.94.81-1.44,1.1-.63.37-1.23.44-1.84.74-.77.38-1.52.95-2.27,1.4-.76.46-1.43,1.15-2.16,1.69-.27.25-.54.5-.81.75-.1.1-.2.2-.31.31-.43.47-.78.82-1.04,1.26-.36.61-.7,1.16-.95,1.76-.37.89-.45,1.71-1.19,2.61-.55.52-1.1,1.05-1.65,1.57-.07.1-.15.19-.24.29l2.85-2.71s-.06.05-.09.08c0,0,0-.01,0-.02.11-.18.17-.4.22-.59.13-.37.27-.75.4-1.12.26-.64.64-1.26,1.04-1.9.32-.51,1.11-1.32,1.67-1.75.63-.48,1.28-1.15,1.97-1.61.61-.41,1.16-.78,1.76-1.13.36-.21.68-.48,1.04-.63.38-.13.75-.26,1.13-.39.13-.05.62-.36.74-.37l4.09-3.9c-.27.24-.54.47-.83.68-.26.24-.52.47-.79.71ZM99.58,73.12c-.6.37-1.18.84-1.81,1.43-.19.19-.38.37-.57.56-.52.69-1.22,1.29-1.63,1.97-.15.25-.23.45-.45.7l1.12-1.07s0-.01,0-.02c.74-.79,1.47-1.85,2.4-2.48.23-.16.71-.66.92-.67l1.54-1.47c-.22.14-.46.28-.7.44-.28.2-.56.41-.83.61ZM101.2,71.22c-.44.24-.86.45-1.31.74-.57.37-1.04.84-1.63,1.25-.46.32-1.01.77-1.36,1.23-.13.13-.25.26-.38.39-.29.33-.58.65-.86.98-.43.63-.75,1.23-1.02,1.86-.17.4-.16.69-.5,1.07l.77-.74-.07.06s0-.01,0-.02c.08-.2.17-.41.25-.61.19-.43.43-.85.71-1.26.27-.39.68-.7.99-1.11.4-.52,1.01-1.11,1.55-1.48.19-.16.38-.32.57-.48.66-.44,1.28-.98,1.92-1.3.35-.18.69-.39,1.05-.59.12-.07.31-.27.44-.26l.73-.69c-.32.15-.68.27-1.02.47-.27.17-.54.34-.81.51ZM106.92,65.45c-.41.27-.83.76-1.12,1.14-.22.29-.83.7-1.15.91-.4.27-.71.72-1.1.98-.36.24-.72.51-1.09.66-.32.13-.65.15-.97.27-.28.1-.56.26-.84.41-.91.63-1.82,1.25-2.73,1.88-.21.19-.43.39-.64.58-.44.35-.88.7-1.31,1.04-.11.11-.23.22-.34.33-.51.48-.86.95-1.12,1.43-.4.73-.85,1.48-1.16,2.21-.18.44-.21.91-.41,1.35-.17.36-.56.64-.85,1.02-.31.41-.71.8-1.12,1.16-.24.28-.49.57-.73.85-.16.16-.32.33-.47.49-.2.27-.55.6-.83.79-.2.19-.41.38-.61.57-.44.39-.88.77-1.32,1.16-.56.38-1.02.81-1.57,1.19-.21.17-.42.34-.62.51-.21.2-.42.39-.63.59-.54.47-1.08.95-1.62,1.42-.59.42-1.18.84-1.77,1.25-.18.14-.35.28-.53.42-.24.22-.47.45-.71.67-.54.52-1.09,1.06-1.62,1.56-.51.48-1.05.96-1.44,1.47-.22.22-.44.44-.66.67l.23.24c.54-.51,1.04-1,1.43-1.5.26-.25.52-.5.79-.75.2-.26.7-.77.98-.97.34-.32.68-.65,1.02-.97.23-.19.45-.37.68-.56.65-.43,1.22-.93,1.88-1.38.73-.65,1.45-1.3,2.18-1.96.35-.28.7-.56,1.05-.84.77-.52,1.79-1.35,2.45-2.04.54-.56,1.26-1,1.7-1.58.27-.31.53-.63.8-.94.13-.13.26-.26.39-.4.17-.23.54-.5.73-.75.29-.39.74-.68.96-1.05.3-.53.32-1.07.53-1.59.21-.52.5-1,.79-1.53.24-.43.46-.86.78-1.31.32-.45.85-.93,1.25-1.21.25-.2.5-.4.75-.6.33-.29.66-.58.99-.87.49-.34.94-.65,1.43-.96.59-.38,1.09-.82,1.66-1.08.55-.25,1.08-.3,1.66-.59.37-.19.68-.46,1.06-.72.15-.13.29-.27.44-.4.18-.15.37-.3.55-.46.34-.23.67-.48,1.01-.81.27-.28.54-.57.8-.85.12-.1.25-.21.37-.31.3-.2.59-.38.88-.52.18-.09.36-.17.53-.26,0,0,0,0,0,0l.66-.62c-.07.02-.15.03-.22.05-.72.28-1.41.64-2.11,1.1ZM108.92,63.78c-.45.15-.91.3-1.36.45-.49.2-.93.53-1.43.88-.4.39-.8.78-1.2,1.17-.43.3-1,.81-1.33,1.24-.24.32-.82.73-1.1.91-.12.08-.37.19-.44.34-.02.05-.02.09.03.15.21.04.45-.17.66-.3.38-.24.75-.55,1.15-.93.21-.2.42-.4.63-.6.75-.52,1.37-1.44,2.13-1.93.42-.27.83-.54,1.25-.7.32-.1.65-.21.97-.31.35-.16.7-.32,1.06-.49l.72-.69c-.24.09-.47.19-.71.28-.35.17-.67.39-1.02.52ZM85.99,86.31c-.42.29-.76.62-1.15.89-.35.33-.7.66-1.06.99-.31.23-.62.46-.93.69-.19.16-.38.32-.57.48-.35.32-.71.65-1.06.97-.31.26-.63.53-.94.79-.11.11-.22.21-.33.32-.34.32-.69.65-1.03.97-.78.86-1.62,1.71-2.54,2.59l.22.23c.72-.68,1.62-1.42,2.16-2.15.2-.21.4-.42.61-.63.21-.2.42-.39.63-.59.22-.2.44-.41.66-.61.3-.26.6-.51.89-.77.54-.48,1.06-1.08,1.61-1.44.16-.1.37-.35.53-.36l3.84-3.66c-.34.31-.69.59-1.03.82-.17.16-.34.31-.51.47ZM63.66,76.89l.29-.28c.31-.3.62-.6.93-.9.78-.74,1.53-1.38,2.31-1.87.58-.37,1.13-.74,1.73-1.13.52-.34.95-.81,1.46-1.11.67-.41,1.32-.84,2.02-1.29.4-.26,1.07-.75,1.42-1.22.21-.24.42-.48.63-.73.31-.42.59-.8.81-1.22.44-.81.68-1.68,1.02-2.49.26-.63.52-1.24.81-1.85.28-.6.6-1.19.99-1.78.26-.32.52-.63.78-.95.61-.82,1.49-1.69,2.35-2.13.76-.39,1.49-.68,2.24-.83.9-.18,1.89-.39,2.78-.28.4.05.8.09,1.2.14.22.03.45.09.67.07.43-.04.91-.19,1.33.01.26.12.48.49.64.71.21.22.42.44.63.66.12.15.2.38.37.42.02-.02.05-.04.07-.06.13-.17-.04-.3-.17-.48-.26-.38-1.14-1.04-.93-1.37.14-.22.65-.17.82-.19.76-.09,1.22-.46,1.98-.85.18-.09.61-.27.66-.5,0-.01-.01-.02-.02-.04-.03-.01-.07-.02-.1-.03-.31.15-.67.3-1,.47-.39.2-.75.47-1.14.56-.27.06-.55.06-.82.1-.29.06-.58.12-.87.18-.45.06-.92.04-1.38.07-.3.03-.62-.05-.92-.09-.36-.04-.71-.08-1.07-.12-.34-.04-.71,0-1.05.03-1.35.14-2.65.38-4.03,1.11-.96.51-1.96,1.49-2.64,2.42-.23.32-.5.56-.7.87-.42.66-.77,1.3-1.07,1.97-.26.57-.51,1.16-.76,1.75-.35.84-.61,1.72-1.08,2.57-.22.39-.54.75-.83,1.15-.41.56-1.05,1.13-1.62,1.5-.33.23-.65.46-.98.7-.57.35-1.1.68-1.69,1.07-.41.32-.83.65-1.24.97-.69.45-1.36.9-2.07,1.35-.34.26-.67.53-1.01.79-.48.46-.96.92-1.44,1.37-.58.55-1.14,1.05-1.57,1.62-.43.42-.86.84-1.29,1.26l.2.21c.47-.45.94-.89,1.41-1.34.31-.33.61-.67.92-1ZM63.92,75.63c.33-.32.67-.63,1-.95.23-.19.46-.37.69-.56.79-.52,1.54-1.12,2.35-1.66.38-.3.76-.6,1.15-.9.27-.19.54-.38.8-.57.7-.4,1.38-.83,2.11-1.32.38-.26.74-.65,1.11-1,.33-.32.66-.65.99-.97.6-.8.75-1.41,1.07-2.17.28-.68.53-1.35.81-2.01.17-.41.43-.78.64-1.18.33-.63.63-1.25,1.06-1.89.48-.71,1.21-1.39,1.92-2.07.41-.39.84-.75,1.26-.99,1.35-.77,2.68-1.12,4.02-1.33.32-.04.63-.08.95-.13.42-.08.83-.29,1.24-.35.47-.07.92-.1,1.4-.21.59-.23,1.19-.46,1.78-.68.71-.27,1.42-.42,2.14-.79.43-.22.8-.56,1.24-.83.55-.35,1.07-.69,1.62-.96.78-.38,1.56-.51,2.33-.79.83-.31,1.63-.75,2.48-1.1.44-.18.88-.43,1.33-.71.17-.13.33-.26.5-.39.16-.14.32-.29.48-.43.26-.35.56-.62.77-.96.38-.58.77-1.17,1.15-1.75l-.27-.28c-.24.38-.49.76-.73,1.14-.35.57-.78,1.08-1.23,1.64-.16.14-.33.29-.49.43-.23.16-.4.32-.62.45-.38.22-.77.41-1.15.58-.81.36-1.59.79-2.4,1.09-.83.3-1.65.45-2.49.87-.53.27-1.02.62-1.56.96-.42.26-.76.57-1.17.78-.7.36-1.39.51-2.09.77-.6.22-1.21.53-1.82.68-.47.11-.93.13-1.39.21-.38.1-.76.21-1.15.31-1.69.3-3.3.5-5.02,1.51-.41.24-.81.58-1.19.94-.67.63-1.42,1.26-1.88,1.93-.24.35-.5.68-.69,1.04-.18.36-.37.71-.55,1.07-.26.47-.55.91-.75,1.38-.27.64-.52,1.3-.79,1.95-.31.75-.42,1.29-1.01,2.08-.31.29-.61.58-.92.87-.49.49-1.01,1-1.53,1.33-.73.46-1.4.84-2.13,1.32-.46.35-.93.71-1.39,1.06-.8.54-1.55,1.14-2.32,1.64-.21.17-.43.33-.64.5-.48.46-.97.91-1.45,1.37-.42.4-.86.79-1.18,1.21-.15.16-.3.32-.45.47-.41.41-.81.81-1.22,1.22l.2.21c.54-.53,1.08-1.07,1.62-1.6.36-.46,1-1.14,1.46-1.49ZM62.48,76.02c.32-.41.81-.96,1.28-1.29.3-.27.59-.55.89-.82.25-.2.5-.41.75-.61.64-.43,1.22-.92,1.89-1.34.53-.34,1.05-.62,1.57-.94.28-.21.56-.43.83-.64.39-.26.77-.52,1.16-.76.89-.54,1.64-1.6,2.51-2.2.3-.21.79-.76.81-.98-.02-.01-.04-.03-.06-.04-.02,0-.05,0-.07,0-.27.09-.48.51-.76.7-.37.25-.85.53-1.18.96-.35.46-.87.94-1.32,1.23-.38.25-.75.49-1.13.74-.3.23-.6.46-.9.69-.51.31-1.03.61-1.54.92-.8.48-1.48,1.11-2.27,1.64-.34.3-.67.6-1.01.89-.16.14-.31.28-.47.42-.14.13-.28.26-.42.39-.32.3-.64.61-.89.95-.29.29-.58.58-.87.87-.38.41-.75.82-1.13,1.22l.21.22c.38-.41.76-.81,1.13-1.22.33-.33.65-.66.98-.99ZM86.58,67.2c-.33.53-.65,1.06-.98,1.59-.2.44-.41.87-.61,1.31-.39.82-.85,1.59-1.32,2.41-.63,1.09-1.77,2.4-2.98,3.05-.79.42-1.57.8-2.35,1.09-.53.17-1.06.33-1.58.5-.35.12-.69.23-1.04.35-.82.2-1.65.37-2.46.7-.87.35-1.66.97-2.56,1.5-.65.38-1.28.96-1.94,1.35-.29.17-.78.38-.97.66,0,0,0,.02.01.03.02.05.05.06.09.07,1.81-.78,3.66-2.55,5.47-3.28.79-.32,1.59-.48,2.38-.67.62-.2,1.24-.41,1.86-.61,1.71-.62,3.29-1.14,5.05-2.81.18-.21.36-.42.54-.63.35-.5.68-.96.96-1.46,1-1.81,1.69-3.54,2.96-5.35.55-.78,1.47-1.34,2.01-2.1,1.22-1.71,1.72-3.06,1.05-4.81-.17-.45-.53-1.26-1.1-1.69-.43-.32-.79-.59-1.21-.77-.76-.32-1.67-.44-2.44-.37-.33.03-.67.01-1,.06-1.41.2-3.04.65-4.41,2.02-.27.27-.53.54-.8.81-.24.3-.48.61-.72.91-.5.75-.92,1.48-1.24,2.24-.44,1.02-.72,2.06-1.2,3.1-.3.66-.63,1.25-1.11,1.92-.27.37-.9.85-.97,1.22.01.01.02.02.03.04.24.01.97-.78,1.16-1.03.84-1.14,1.36-2.25,1.76-3.4.52-1.48,1.01-2.73,2.06-4.23,2.18-3.11,5.94-3.79,8.35-3.11.49.14.95.41,1.43.77.61.45.92,1.17,1.1,1.66.61,1.67.11,2.95-1.09,4.59-.62.84-1.69,1.59-2.2,2.39ZM61.06,71.76c.4-.27.68-.66,1.06-.91.55-.4,1.1-.79,1.64-1.19.37-.23,1.01-.66,1.35-1.11.55-.72.99-1.32,1.54-2.03.13-.17.32-.33.48-.44.12-.1.24-.21.36-.31.4-.39.99-.71,1.37-1.21.36-.43.71-.87,1.07-1.3.39-.58.77-1.16,1.16-1.74l.5-.6c.48-.62,1.29-1.09,1.88-1.65.13-.12.26-.25.39-.37.42-.52.83-1.03,1.25-1.55.26-.27.52-.54.77-.81l.55-.56c.19-.22.49-.54.73-.69.35-.24.71-.48,1.06-.72.41-.27.76-.61,1.15-.83.53-.3,1.06-.43,1.6-.65.57-.3,1.15-.59,1.72-.89.81-.33,1.61-.42,2.44-.82.84-.41,1.6-1.09,2.42-1.57.41-.22.82-.44,1.23-.65.48-.32.95-.63,1.43-.95.5-.42,1.01-.85,1.51-1.27.73-.48,1.42-.92,2.13-1.37l.44-.35c.29-.2.56-.45.85-.73.1-.1.2-.19.31-.29.13-.17.27-.33.4-.5.3-.45.53-.91.76-1.36.16-.29.31-.58.47-.86.29-.63.57-1.34,1.08-1.95l-.27-.28c-.09.13-.17.26-.26.38-.21.35-.42.68-.58,1.03-.37.79-.79,1.57-1.22,2.35-.2.36-.64,1.07-1.11,1.39-.43.3-.77.69-1.18.95-.7.45-1.35.86-2.07,1.35-.59.4-1.07,1.03-1.65,1.39-.4.26-.8.53-1.21.79-.48.27-.95.52-1.44.81-.71.43-1.36.99-2.08,1.36-.83.42-1.63.51-2.45.84-.54.22-1.06.58-1.6.84-.53.26-1.06.35-1.59.62-.48.24-.9.64-1.4.97-.32.21-.63.42-.95.63-.39.27-1.02.91-1.29,1.26-.27.28-.54.56-.82.83-.46.56-.91,1.04-1.32,1.61-.13.13-.27.26-.4.4-.49.47-1.08.79-1.51,1.32-.12.12-.24.23-.36.35-.21.25-.41.5-.62.75-.38.56-.73,1.14-1.14,1.71-.36.42-.71.85-1.07,1.27-.15.2-.4.41-.58.54-.13.11-.26.23-.39.34-.29.2-.59.47-.84.72l-.35.33c-.4.52-.75.98-1.1,1.48-.18.22-.37.43-.55.65-.31.41-1,.84-1.36,1.07-.69.45-1.26.98-1.96,1.46-.23.21-.47.42-.7.62-.36.25-.68.55-1.04.89-.14.14-.29.28-.43.42-.15.16-.31.31-.46.47-.53.51-1.06,1.01-1.59,1.52l.19.2c.62-.59,1.25-1.19,1.87-1.78.52-.59,1.16-1.17,1.77-1.59ZM61.69,75.81c.31-.32.62-.64.93-.96.17-.16.34-.32.52-.48.22-.18.43-.36.65-.55.22-.2.44-.4.66-.6.67-.46,1.33-1.1,2.03-1.56.97-.63,1.94-1.26,2.91-1.89.31-.25.63-.5.94-.75.54-.37,1.24-.93,1.67-1.5.48-.66.89-1.26,1.3-1.9.54-.85,1.12-1.63,1.51-2.48.16-.36.31-.72.47-1.08.26-.58.63-1.17.98-1.73.4-.63.89-1.17,1.38-1.82.45-.59,1.26-1.38,1.88-1.79.92-.6,1.82-1.16,2.74-1.5.78-.29,1.6-.48,2.39-.65,1.22-.26,2.41-.29,3.64-.79.31-.15.63-.3.94-.45.43-.18.85-.37,1.29-.62.41-.23.76-.6,1.19-.88.57-.39,1.15-.78,1.72-1.17.56-.37.99-1.02,1.54-1.39.54-.36,1.02-.53,1.54-.82.33-.19.61-.53.97-.78.15-.14.29-.28.44-.42.33-.23.84-.71,1.08-1.03.9-1.2,1.38-2.37,2.17-3.54l-.28-.29c-.3.32-.59.96-.77,1.32-.38.75-.82,1.49-1.36,2.22-.24.32-.57.6-.88.9-.47.45-.94.93-1.42,1.23-.53.32-1.04.51-1.57.86-.48.32-.8.87-1.27,1.2-.27.2-.55.41-.82.61-.41.27-.82.54-1.23.81-.18.15-.37.3-.55.46-.34.23-.65.48-.98.65-.36.16-.73.31-1.09.47-.62.26-1.16.56-1.77.7-.56.13-1.12.19-1.67.27-.67.1-1.3.29-1.97.45-.35.09-.7.19-1.05.28-1.04.38-2.07.97-3.13,1.66-.35.23-1.02.8-1.29,1.16-.19.25-.46.45-.64.68-.51.68-1.04,1.25-1.45,1.92-.61.98-1.03,1.94-1.48,2.9-.26.55-.62,1.05-.96,1.6-.56.89-1.1,1.7-1.76,2.6-.44.59-1.13,1.14-1.7,1.53-.3.24-.6.47-.91.71-.91.57-1.84,1.19-2.73,1.78-.6.45-1.2.9-1.8,1.35-.29.26-.58.52-.87.78-.35.24-.67.54-1.01.87-.12.12-.24.23-.36.35-.26.34-.64.58-.9.93-.22.23-.45.46-.67.7-.39.38-.77.76-1.16,1.15l.2.21c.44-.43.88-.87,1.32-1.3.18-.18.36-.37.53-.55ZM61.78,74.76c.24-.26.49-.51.73-.77.16-.2.41-.44.61-.6.34-.26.7-.64,1.07-.89.68-.47,1.37-.94,2.05-1.4.29-.22.58-.45.86-.67.53-.35,1.09-.66,1.6-1.19.34-.36.51-.77.78-1.13.18-.25.46-.39.66-.65.25-.32.51-.59.73-.89.28-.39.58-.72.82-1.1.21-.34.36-.68.55-1.01.18-.25.36-.5.54-.75.17-.24.86-.86.73-1.06-.04,0-.08,0-.11,0-.1.03-.31.24-.39.34-.26.34-.57.59-.8.93-.29.43-.48.86-.73,1.28-.24.41-.56.76-.85,1.18-.22.31-.45.63-.78.94-.26.25-.52.46-.69.72-.3.45-.56,1.03-1.16,1.42-.4.28-.8.56-1.2.84-.38.29-.76.58-1.14.88-1.01.65-1.96,1.26-2.96,2.21-.27.25-.56.5-.77.77-.21.22-.43.45-.64.67-.15.15-.31.29-.46.44-.41.41-.81.82-1.22,1.23l-.46.48.2.21c.6-.61,1.2-1.21,1.79-1.82.21-.2.41-.39.62-.59ZM66.57,68.24s.04.03.06.04c.02,0,.05,0,.07,0,.08-.07.16-.15.25-.22.08-.09.15-.17.23-.26.25-.33.75-.71.82-1.06-.02-.02-.04-.03-.06-.05-.01,0-.03-.01-.04-.02-.35.18-1.24,1.29-1.32,1.56ZM63.88,78.78c.34-.32.68-.63,1.03-.95,1.2-1.43,2.88-2.74,4.3-3.66.42-.32.85-.64,1.27-.96,1.15-.7,2.32-1.24,3.44-1.88.38-.21.7-.56,1.09-.83.45-.31,1.12-.8,1.49-1.3.75-1.01,1.02-1.85,1.44-2.83.37-.74.73-1.49,1.1-2.23.4-.95.62-1.78,1.31-2.75.44-.62,1.21-1.23,1.79-1.52,1.62-.83,3.54-1.28,5.11-.41,1.09.61,1.44,1.85,1.3,2.69-.13.72-.56,1.31-1.08,2.05-.21.24-.42.48-.64.72-.35.46-.93.85-1.25,1.32-.42.6-.68,1.21-1,1.81-.25.45-.58.86-.77,1.31-.2.47-.33.95-.55,1.43-.36.77-1.03,1.62-1.59,2.36-.63.84-1.44.97-2.08,1.22-.27.11-.51.32-.79.49-.2.12-.46.24-.62.45.01.04.01.05.05.1.02,0,.04,0,.06,0,.2-.09.41-.17.62-.28.21-.13.43-.27.64-.4.31-.11.61-.21.92-.32.27-.11.52-.28.79-.47.74-.5,1.26-1.43,1.65-2.05.26-.41.53-.79.72-1.2.16-.42.32-.84.49-1.26.19-.42.49-.8.73-1.22.36-.64.62-1.29,1.1-1.94.46-.64,1.2-1.14,1.66-1.76.27-.36.58-.7.79-1.06.51-.89.68-1.79.34-2.7-.17-.45-.54-1.08-1.09-1.44-.36-.24-.72-.4-1.09-.49-.76-.19-1.56-.17-2.33-.03-.6.1-1.22.27-1.82.57-.29.17-.58.34-.87.51-1.77,1.14-2.24,2.82-2.82,4.2-.3.72-.72,1.4-1.04,2.13-.3.67-.5,1.35-.87,2.03-.21.38-.53.69-.84,1.09-.13.11-.27.23-.4.34-.27.21-.54.43-.81.64-.31.21-.56.49-.86.67-.44.26-.87.44-1.3.66-.73.42-1.46.83-2.19,1.25-.5.38-1,.75-1.51,1.13-.39.25-.77.53-1.18.8-.26.21-.52.42-.78.63-.33.23-.81.61-1.08.96-.2.2-.4.41-.6.61-.25.26-.5.51-.74.77-.26.24-.53.49-.79.73-.54.51-1.07,1.02-1.61,1.53l.2.21c.34-.32.68-.65,1.02-.97.18-.17.36-.34.55-.51ZM60.75,72.91c.17-.15.34-.3.52-.45.12-.12.24-.23.36-.35.32-.28.63-.56.95-.84l.78-.59c.52-.33,1-.64,1.53-1,.23-.22.46-.43.69-.65.53-.48.83-1.09,1.12-1.6.11-.19.27-.36.42-.55.21-.28.55-.48.78-.62.45-.28,1.16-.8,1.53-1.3.61-.83,1.09-1.6,1.64-2.43.26-.39.63-.71.93-1.11.14-.19.4-.4.57-.51.28-.22.55-.44.83-.66.3-.2.79-.58,1.05-.91.4-.53.72-.99,1.1-1.51.47-.65,1.14-1.22,1.74-1.84.28-.29.82-.59,1.15-.81.37-.24.67-.57,1.03-.77.49-.27.95-.45,1.42-.66.43-.22.87-.44,1.3-.66.87-.34,1.72-.53,2.62-.9.48-.19.95-.46,1.43-.77.31-.23.62-.46.93-.7.23-.16.76-.51.92-.74,0-.03-.02-.06-.03-.09-.01,0-.02-.01-.04-.02-.13-.04-.29.12-.43.2-.32.2-.61.46-.96.67-.34.23-.68.46-1.01.69-.77.44-1.59.78-2.37.97-.83.2-1.59.61-2.44,1.03-.49.24-.99.39-1.5.69-.37.22-.68.55-1.06.8-.37.25-.74.5-1.11.76-.28.2-.75.7-.93.95-.31.34-.63.68-.94,1.02-.39.53-.72,1-1.14,1.55-.17.16-.35.31-.52.47-.21.17-.41.34-.62.5-.41.28-1.04.76-1.4,1.22-.31.41-.63.75-.9,1.15-.4.61-.8,1.21-1.2,1.82-.17.21-.35.41-.52.62l-.44.4c-.19.15-.38.29-.57.44-.34.22-.8.47-1.1.87-.37.49-.62.93-.94,1.41-.21.31-.51.57-.75.89-.34.45-.94.78-1.32.99-.45.26-.85.6-1.3.91-.57.39-1,1.02-1.59,1.43-1.12.78-2.22,2.01-3.31,3.05l.2.21c.94-.9,1.93-2.03,2.89-2.69ZM59.45,75.06c.18-.19.37-.38.55-.57.29-.28.58-.57.87-.85.28-.37.73-.78,1.11-1.06.25-.21.51-.43.76-.64.94-.63,1.89-1.31,2.83-1.92.22-.19.43-.37.65-.56.36-.25.69-.55,1.05-.89.12-.11.23-.22.35-.33.2-.23.4-.46.59-.69.2-.3.41-.59.61-.89.3-.4.75-.73,1.02-1.11.53-.75.93-1.48,1.44-2.24.3-.44.72-.74,1.06-1.19.19-.25.5-.58.78-.77.39-.26.97-.69,1.09-1.11-.01-.02-.03-.04-.04-.06-.03,0-.05-.02-.08-.02-.18.16-.36.33-.55.49-.63.43-1.31,1.05-1.8,1.68-.21.27-.5.51-.69.79-.43.67-.86,1.34-1.29,2.01-.2.3-.49.55-.73.87-.13.13-.26.25-.39.38-.28.37-.49.71-.74,1.07-.21.25-.43.49-.64.74-.19.24-.47.45-.69.6-.16.13-.31.26-.47.39-.23.19-.46.39-.68.58-.9.58-1.82,1.25-2.71,1.83-.4.26-.71.66-1.13.96-.3.21-.69.59-.9.88-.32.31-.64.62-.95.92-.51.52-1.02,1.05-1.53,1.57l.21.22c.36-.34.78-.71,1.06-1.09ZM61.85,73.65c.41-.39.75-.78,1.19-1.07.96-.66,1.8-1.29,2.74-1.91.58-.46,1.17-.91,1.75-1.37.1-.1.21-.2.31-.3.35-.34.64-.66.88-1,.23-.28.46-.56.7-.84.29-.3.58-.61.87-.91.77-1.03,1.12-1.95,1.89-2.99.27-.36.71-.72,1.05-.96.5-.34.97-.96,1.24-1.37.34-.52.49-1.01.79-1.53.19-.33.49-.62.72-.95.43-.63,1.05-1.35,1.77-1.92.25-.22.5-.44.76-.67.56-.39,1.1-.83,1.66-1.11,1.95-.96,3.9-1.32,5.86-2.31.35-.21.7-.42,1.05-.63.63-.34,1.23-.66,1.88-1.07.4-.26.73-.67,1.15-.95.5-.34,1.01-.67,1.51-1.01.47-.34.93-.68,1.4-1.03.52-.33,1.01-.65,1.54-.92.59-.3,1.27-.67,1.85-1.27.61-.65.91-1.22,1.25-1.85.31-.55.61-1.04.86-1.58.22-.47.4-.97.74-1.43l-.28-.29c-.14.15-.23.37-.31.53-.25.49-.47.96-.69,1.45-.19.42-.46.81-.69,1.23-.19.35-.36.71-.6,1.06-.18.21-.36.41-.53.62-.14.12-.27.23-.41.35-.4.27-.71.52-1.08.72-.74.4-1.43.87-2.2,1.37-.42.31-.83.63-1.25.94-.4.27-.8.53-1.2.8-.48.33-.88.81-1.35,1.11-.55.35-1.08.6-1.61.87-.4.24-.81.48-1.21.73-.75.37-1.51.68-2.26.95-.46.15-.92.29-1.38.44-.35.15-.7.3-1.04.45-.34.13-.69.27-1.03.4-.75.37-1.39.96-2.16,1.49-.24.22-.48.44-.72.66-.12.12-.24.23-.36.35-.45.45-.8.84-1.1,1.28-.29.41-.64.77-.88,1.18-.26.46-.36.91-.67,1.37-.19.29-.63.87-.94,1.09-.45.31-1.05.82-1.38,1.26-.3.41-.59.79-.82,1.2-.31.56-.56,1.09-.99,1.68-.33.35-.65.7-.98,1.04-.37.45-.75.91-1.12,1.36-.18.19-.36.38-.54.57-.16.13-.31.27-.47.4-.5.39-1.01.77-1.51,1.16-.66.44-1.31.89-1.97,1.33-.26.2-.52.39-.78.59-.38.35-.75.7-1.13,1.05-.6.58-1.2,1.16-1.8,1.74-.34.44-.7.85-1.14,1.27l.21.22c.48-.48.91-.93,1.3-1.43.55-.53,1.1-1.07,1.65-1.6ZM86.15,64.64c-.14.15-.28.3-.42.45-.23.3-.63.6-.86.93-.26.38-.52.75-.73,1.13-.28.52-.51,1.05-.84,1.57-.2.31-.49.56-.73.87-.28.39-.56.78-.85,1.17-.4.56-1.14,1.09-1.66,1.46-.57.4-.89,1.1-1.23,1.56l-.6.6c-.63.61-1.2,1.09-1.8,1.34-.21.09-.78.29-.82.54.02.01.03.02.05.04.19.07.53-.14.73-.21.29-.11.58-.22.87-.4.26-.15.51-.43.76-.67.31-.29.63-.58.94-.87l.37-.49c.24-.4.52-.94,1.05-1.31.48-.33,1.1-.74,1.5-1.28.3-.41.56-.79.85-1.18.26-.35.62-.65.83-.99.6-.95.96-1.86,1.68-2.84.3-.32.6-.64.91-.96.32-.36.64-.73.96-1.09.64-.86,1.08-1.55.98-2.41-.11-.95-.89-1.75-1.82-1.99-1.47-.39-2.89.02-4.4.96-.69.43-1.24,1.17-1.64,1.76-.17.24-.38.45-.42.69.05.05.06.04.11.05.39-.28.69-.75.94-1.1.3-.42.81-.9,1.24-1.17,1.37-.85,2.76-1.26,4.09-.88,1.25.35,1.78,1.55,1.5,2.55-.21.76-.96,1.42-1.54,2.19ZM66.95,81c.71-.48,1.3-.89,2.01-1.38.22-.18.45-.37.67-.55.85-.59,1.62-1.38,2.48-1.82.86-.44,1.65-.64,2.49-.98.4-.16.75-.43,1.15-.66.43-.25.86-.49,1.28-.74.94-.58,1.68-1.59,2.29-2.39.14-.18.34-.35.51-.47.43-.29,1.1-.9,1.4-1.3.53-.71,1.19-1.36,1.64-2.08.4-.65.68-1.31,1.06-1.97.97-1.7,3.75-3.37,3.35-5.11-.05-.22-.19-.41-.35-.64-.4-.58-1.36-.71-1.8-.68-.82.07-1.56.24-2.4.72-.3.17-.53.41-.84.62-.22.15-.56.43-.74.67-.3.4-.75.71-1.04,1.11-.38.52-.72.99-1,1.5-.26.47-.45.96-.67,1.43-.15.29-.3.57-.45.86-.29.63-.51,1.25-.88,1.88-.14.24-.34.44-.52.68l-.44.43c-.6.57-1.18.95-1.77,1.3-.52.35-1.04.7-1.56,1.04-.34.16-.69.33-1.03.5-.44.22-.87.48-1.31.74-.89.54-1.67,1.21-2.56,1.81-.27.22-.54.44-.81.66-.23.22-.46.45-.69.67-.29.3-.58.6-.87.9-.99.93-1.99,1.87-2.98,2.8l.21.22c.97-.91,1.94-1.82,2.91-2.73.21-.21.42-.43.63-.64.18-.23.64-.72.9-.9.29-.24.58-.48.87-.72.87-.58,1.62-1.24,2.49-1.76.36-.21.71-.42,1.07-.63.45-.22.9-.44,1.35-.67.54-.36,1.08-.71,1.62-1.07.35-.21.69-.45,1.06-.69.17-.15.35-.3.52-.46.2-.19.39-.37.59-.56.21-.27.43-.5.59-.77.36-.62.58-1.25.87-1.87.16-.31.32-.61.48-.92.44-.94.83-1.74,1.52-2.7.88-1.22,2.39-2.45,3.53-2.86.41-.15.83-.2,1.24-.23.45-.04,1.29.03,1.71.65.54.82.12,1.49-.47,2.29-.21.24-.43.47-.64.71-.17.17-.34.35-.5.52-.18.18-.36.37-.55.55-.37.49-.73.88-1,1.36-.37.65-.65,1.29-1.05,1.93-.47.74-1.15,1.39-1.7,2.12-.52.69-1.32,1.02-1.86,1.72-.56.73-1.2,1.61-2.05,2.14-.43.27-.85.51-1.28.75-.43.24-.81.5-1.23.68-.81.33-1.61.51-2.44.98-.82.46-1.57,1.21-2.41,1.79-.3.24-.59.49-.89.73-.64.41-1.19.78-1.81,1.2-.21.18-.41.37-.62.55-.53.5-1.05,1-1.58,1.49l.22.23c.5-.48,1.01-.95,1.51-1.43.19-.17.38-.34.57-.51ZM67.91,81.14c.54-.37,1.02-.69,1.57-1.05.35-.27.7-.53,1.04-.8,1.08-.7,1.96-1.35,3.01-1.73.92-.33,1.9-.49,2.83-.71.41-.1.8-.27,1.21-.43.81-.3,1.57-.59,2.4-1.01.42-.22.84-.45,1.26-.67.2-.12.35-.28.57-.43.14-.13.29-.26.43-.4.15-.18.3-.36.45-.54.59-.86,1.12-1.69,1.6-2.57.29-.52.47-1.05.72-1.58.25-.53.59-1.04.89-1.57.3-.52.66-.95,1.06-1.48.19-.2.39-.4.58-.6.18-.19.36-.38.53-.56.31-.4.66-.74.91-1.13.93-1.48.99-2.95-.06-4.49-.57-.82-1.61-1.18-2.21-1.3-1.66-.33-3.39-.07-5.07.89-.45.25-.87.58-1.33,1.02-.13.13-.27.26-.4.4-.65.86-1.22,1.6-1.61,2.45-.45.97-.78,1.95-1.19,2.93-.28.68-.52,1.38-.92,2.06-.2.33-.46.63-.72.96-.14.18-.35.39-.53.52-.27.18-.46.41-.71.55-.31.17-.62.35-.92.52-.3.13-.6.26-.91.39-.38.19-.72.51-1.11.75-.48.29-.95.58-1.43.88-.41.31-.82.61-1.22.92-.55.36-1.08.83-1.65,1.21-.27.22-.55.44-.82.66-.33.27-.66.55-.99.82-.11.11-.23.22-.34.33-.33.31-.62.58-.87.91-.23.23-.46.46-.69.69-.22.28-.68.74-.98.94-.22.21-.43.42-.65.63l.2.21c.76-.73,1.52-1.45,2.27-2.18.36-.37.72-.75,1.07-1.12.35-.3.7-.6,1.05-.89.3-.24.59-.48.89-.72.62-.42,1.18-.92,1.78-1.31.41-.3.82-.6,1.22-.9.44-.27.89-.54,1.33-.81.33-.22.65-.44.98-.67.33-.14.66-.28.99-.42.63-.31,1.24-.69,1.87-1.29.18-.18.36-.36.54-.54.24-.32.49-.61.67-.93.95-1.71,1.4-3.48,2.22-5.21.33-.7.8-1.32,1.32-2.01.46-.61,1.2-1.16,1.76-1.47,1.56-.84,3.12-1.16,4.65-.89.65.12,1.15.32,1.82.83l.31.3c.16.23.33.42.44.65.53,1.06.46,2.22-.11,3.26-.2.37-.5.71-.77,1.08-.2.22-.39.43-.59.65-.28.29-.55.58-.83.86-.41.54-.78.99-1.08,1.52-.29.51-.58,1.03-.88,1.54-.21.48-.43.96-.64,1.44-.19.31-.37.62-.56.93-.47.83-1,1.62-1.71,2.45-.15.12-.31.25-.46.37-.54.35-1.03.6-1.56.87-.75.38-1.43.64-2.16.91-.5.19-.98.4-1.48.52-.9.21-1.83.35-2.73.67-1.04.38-1.97,1.06-3.04,1.76-.32.25-.63.49-.95.74-.62.42-1.15.77-1.75,1.18-.34.33-.69.66-1.03.99-.5.45-.99.9-1.49,1.35l.22.23c.48-.43.97-.87,1.45-1.3.39-.37.67-.76,1.07-1.03ZM66.39,80.52c.56-.37,1.05-.62,1.63-1.01.38-.32.76-.63,1.14-.95.12-.11.24-.22.36-.33.15-.14.3-.28.45-.42.64-.44,1.24-.94,1.9-1.31.82-.46,1.6-.71,2.4-1.04.79-.32,1.54-.82,2.33-1.32.73-.46,1.63-1.4,2.13-2.08.17-.23.5-.49.7-.62.33-.22.8-.66,1.05-.97.09-.09.19-.19.28-.29.51-.67,1.05-1.3,1.45-1.99.25-.43.46-.87.73-1.31.36-.58.72-1.06,1.17-1.66.23-.22.45-.43.68-.65,1.11-1.05,2.32-2.1,1.46-3.22-.31-.41-1.06-.39-1.45-.34-1.21.16-2.73,1.17-3.77,2.57-.24.28-.49.56-.73.84-.7,1.02-1.28,2.04-1.75,3.08-.31.68-.59,1.37-.97,2.03-.15.27-.37.5-.57.77-.42.55-1.26,1.13-1.76,1.44-.23.15-.45.29-.68.44-.24.12-.49.24-.73.37-.26.17-.53.34-.79.52-.62.31-1.24.58-1.88.97-.91.64-1.82,1.29-2.74,1.93-.18.15-.37.29-.55.44-.55.51-1.09,1.02-1.64,1.53-.31.24-.67.6-.89.89-.16.17-.33.35-.49.52-.6.56-1.2,1.12-1.8,1.69l.22.23c.47-.44.94-.88,1.41-1.32.2-.2.41-.4.61-.6.22-.24.44-.48.66-.72.13-.17.35-.4.54-.53.15-.14.3-.28.45-.42.39-.36.77-.72,1.16-1.08,1.15-.79,2.18-1.69,3.33-2.38.59-.35,1.16-.58,1.74-.88.26-.17.52-.33.77-.5.31-.16.62-.32.94-.48.25-.17.5-.33.74-.5.43-.27.82-.6,1.23-1,.13-.12.26-.25.39-.37.18-.24.39-.46.53-.7.4-.68.69-1.41,1.01-2.1.46-1.02,1.04-2.01,1.71-3.01.2-.29.47-.52.7-.82.9-1.19,2.28-2.3,3.45-2.51.37-.07,1.09-.17,1.43.33.37.56-.04,1.09-.44,1.63-.12.12-.23.24-.35.36-.24.22-.47.45-.71.67-.25.23-.49.46-.74.69-.48.63-.88,1.14-1.24,1.76l-.62,1.12c-.4.7-.92,1.37-1.45,2.04-.3.38-1,1.04-1.43,1.33-.2.14-.5.39-.67.61-.58.76-1.44,1.58-2.22,2.08-.62.39-1.22.78-1.85,1.04-.86.36-1.7.64-2.57,1.13-.74.42-1.46.97-2.16,1.52-.66.51-1.16,1.13-1.82,1.58-.53.36-.98.55-1.49.88-.3.19-.52.49-.82.7-.46.42-.93.85-1.39,1.27l.22.23c.45-.4.9-.81,1.35-1.21.24-.21.49-.42.73-.63ZM70.17,82.17c.78-.44,1.47-1.11,2.22-1.42.46-.19.95-.31,1.41-.48.45-.17.9-.34,1.35-.51.37-.1.73-.21,1.1-.31.54-.16,1.06-.35,1.61-.55.92-.34,1.84-.72,2.76-1.19.58-.29,1.1-.67,1.68-1.03.64-.4,1.5-1.08,1.98-1.76,1.03-1.47,1.58-2.9,2.26-4.38.29-.63.46-1.21.81-1.83.22-.34.44-.69.66-1.03.1-.17.23-.3.27-.46-.02-.01-.04-.03-.06-.04-.03,0-.05,0-.08,0-.27.24-.43.5-.59.75-.24.38-.52.72-.7,1.1-.14.29-.22.59-.33.87-.27.58-.54,1.16-.82,1.74-.58,1.37-1.43,3.37-3.17,4.51-.97.63-1.87,1.27-2.83,1.67-.85.35-1.68.72-2.53.99-1.61.52-3.29.98-4.91,1.65-.79.32-1.49,1.01-2.3,1.47-.58.33-1.16.55-1.75.89-.65.37-1.33,1-1.95,1.59l.23.24c.66-.59,1.35-1.24,2.05-1.63.55-.31,1.09-.52,1.64-.84ZM70.55,82.84c.47-.27.89-.7,1.37-1,.45-.28.86-.5,1.3-.7.13-.06.42-.14.49-.32-.02-.03-.04-.06-.05-.09-.19-.05-.47.13-.67.2-.39.15-.79.35-1.2.6-.24.18-.48.35-.72.53-.28.19-.56.38-.84.56-.39.21-.79.36-1.19.59-.76.43-1.5,1.06-2.24,1.76l.23.24c.7-.68,1.47-1.31,2.19-1.71.44-.22.88-.45,1.32-.67ZM69.69,81.6c.79-.46,1.48-1.06,2.25-1.49.82-.45,1.63-.71,2.43-1,.22-.07.44-.15.65-.22,2.07-.51,4.09-1.17,6.17-2.39.69-.4,1.8-1.14,2.37-1.94.27-.38.57-.74.8-1.12.59-.99,1.06-1.97,1.53-2.97.19-.44.38-.87.57-1.31.31-.56.68-1.1,1.05-1.64.53-.78,1.54-1.37,2.15-2.18.22-.29.46-.54.64-.83.47-.74.76-1.49.88-2.24.13-.85-.02-1.59-.34-2.46-.16-.44-.31-.89-.6-1.35-.26-.41-.69-.78-1.04-1.01-.16-.1-.34-.27-.5-.12,0,.02-.02.04-.03.06.03.2.26.29.43.39.3.19.66.52.86.85.84,1.33,1.13,2.79.79,4.1-.16.64-.48,1.26-.91,1.9-.18.21-.35.43-.53.64-.23.3-.81.88-1.13,1.1-.42.29-.91.94-1.12,1.28-.31.49-.62.99-.92,1.48-.62,1.3-1.17,2.62-1.92,3.93-.26.45-.59.86-.92,1.31-.13.14-.25.28-.38.42l-.32.29-.42.37c-.34.23-.67.48-1,.67-.88.52-1.72.98-2.59,1.3-.73.23-1.46.46-2.19.7-1.29.47-2.62.68-3.93,1.33-.68.34-1.36.81-2.05,1.25-.35.24-.69.48-1.04.72-.61.34-1.21.49-1.79.82-.62.35-1.29.99-1.88,1.56l.22.23c.58-.48,1.14-1.1,1.75-1.45.67-.38,1.33-.58,2.03-.99ZM79.72,73.89s.03.02.05.04c.29.1,1.06-.49,1.38-.74.08-.16.34-.39.44-.54.45-.69,1-1.34,1.34-2,.13-.26.34-.52.35-.79-.05-.05-.06-.04-.11-.05-.38.35-.56.84-.79,1.23-.23.39-.58.74-.85,1.13-.15.22-.3.44-.45.67-.23.31-.62.55-.89.68-.17.08-.37.16-.48.32,0,.02,0,.04,0,.06ZM80.91,72.54c.03-.07.06-.11.08-.17,0,0,0-.02-.01-.03-.02-.01-.04-.02-.06-.04-.27.11-1.02.64-.97.97.01,0,.02.01.04.02.02,0,.03,0,.05,0,.3-.25.59-.51.89-.76ZM65.07,80.65c.19-.18.38-.36.57-.53.21-.23.43-.46.64-.7.21-.28.59-.61.77-.84.93-1.11,2.34-2.15,3.37-2.78.35-.24.71-.48,1.06-.72.56-.32,1.12-.63,1.68-.95.69-.34,1.36-.6,2.07-1.03.48-.29.9-.73,1.38-1.06.35-.33.69-.65,1.04-.98.57-.39,1.22-.8,1.67-1.41.63-.86,1.1-1.67,1.59-2.53.25-.36.49-.72.74-1.08.37-.59.71-1.17,1.15-1.79.36-.51.92-1.03,1.43-1.37.2-.13.38-.33.58-.33,0,0,0,0,0,0,.05.55-1.3,1.05-1.36,1.43,0,0,0,0,0,0,.04.04.05.04.08.04.45-.22,1.18-.66,1.46-1.21.07-.14.23-.42,0-.53-.36-.17-1.43.63-1.86,1.09-.8.86-1.27,1.64-1.77,2.47-.26.38-.51.76-.77,1.13-.48.84-.93,1.68-1.53,2.5-.46.64-1.12.91-1.66,1.35-.29.28-.59.56-.88.84-.45.35-.9.7-1.35,1.05-.82.51-1.58.81-2.37,1.2-.82.41-1.58.95-2.4,1.47-.63.4-1.19.88-1.82,1.31-.24.21-.48.43-.72.64-.29.2-.87.76-1.08,1.04-.14.13-.27.27-.41.4-.3.34-.61.68-.91,1.02-.2.18-.39.37-.59.55-.11.1-.23.21-.34.31-.33.23-.67.59-.99.9l.22.23c.32-.31.64-.64.97-.87l.31-.28ZM83.55,64.38c-.46.3-.82.81-1.06,1.19-.76,1.21-1.5,2.38-2.31,3.59-.26.33-.52.67-.79,1-.37.49-.9.7-1.32,1.09-.61.58-1.12,1.23-1.8,1.67-.48.32-.94.7-1.43.95-.63.3-1.27.6-1.9.89-.58.29-1.12.64-1.7,1.01-1.15.73-2.19,1.41-3.35,2.52-.28.28-.56.56-.84.84-.08.11-.23.18-.22.29,0,.01,0,.02,0,.04.02.01.05.03.07.04.38-.16.85-.68,1.22-1.02.11-.11.23-.22.34-.33.2-.17.4-.35.6-.52.45-.3.86-.65,1.3-.92.77-.46,1.55-1.05,2.31-1.44.92-.47,1.8-.81,2.73-1.35.56-.33,1.02-.77,1.59-1.16.39-.4.79-.8,1.18-1.2.14-.12.28-.24.41-.35.31-.21.62-.46.93-.76.18-.21.37-.42.55-.63.31-.43.62-.86.93-1.29.74-1.17,1.43-2.34,2.32-3.53.09-.08.18-.16.28-.24.37-.25.65-.52.99-.75.67-.45,1.65-1.7.95-2.18-.25-.17-.56-.14-.82-.1-.68.12-1.41.52-2.09,1.17l-.35.33c-.28.36-.63.66-.88,1.02-.45.65-.78,1.28-1.19,1.93-.4.63-.88,1.22-1.17,1.85-.2.44-.31.86-.56,1.27-.09.15-.39.42-.36.58,0,.03,0,.03.03.04l.05.02c.71-.35.96-1.5,1.26-2.03.29-.52.68-1,1.01-1.52.37-.61.75-1.23,1.12-1.85.23-.35.57-.66.84-1.01.16-.15.32-.31.48-.46.14-.12.29-.24.43-.37.44-.28.84-.53,1.26-.65.2-.06.62-.18.79.12.24.41-.21.79-.53,1.2-.31.41-.94.74-1.33.99Z"/>
    </mask>
  </defs>
  <g class="st1">
    <path class="st2" d="M102.26,54.47c-.03-.41-.07-.81-.12-1.22-.13-.99-.33-1.91-.62-2.76-.26-.81-.6-1.56-1.01-2.25-.84-1.41-1.87-2.55-3.1-3.41-1.23-.86-2.6-1.46-4.1-1.78-1.44-.31-2.91-.38-4.42-.21-.07,0-.14.01-.21.02-1.35.17-2.66.48-3.95.91-.88.3-1.75.66-2.6,1.08-.17.08-.32.16-.49.25-1.78.92-3.47,2.06-5.02,3.4-.12.1-.23.19-.35.29-1.81,1.6-3.44,3.41-4.9,5.44-.97,1.34-1.82,2.74-2.56,4.19-.39.75-.75,1.52-1.07,2.3-.4.95-.75,1.91-1.04,2.89-.41,1.34-.74,2.71-.96,4.1,0,.03-.01.07-.02.1-.23,1.38-.33,2.75-.33,4.12,0,1.06.06,2.11.2,3.16.1.76.24,1.48.43,2.15.29,1.05.69,2,1.2,2.86.14.23.29.47.45.69.75,1.09,1.63,2.01,2.66,2.74,1.23.89,2.61,1.5,4.13,1.84,1.52.34,3.07.42,4.65.21,2.27-.29,4.45-.95,6.56-2,2.1-1.03,4.06-2.36,5.85-3.98,1.8-1.62,3.43-3.45,4.87-5.49.7-.99,1.35-2.02,1.94-3.08.4-.72.77-1.45,1.12-2.2.19-.41.37-.83.55-1.24.52-1.26.97-2.55,1.32-3.86.29-1.07.52-2.15.7-3.26.05-.31.1-.61.13-.93.21-1.72.26-3.42.12-5.1ZM95.01,61.43c-.01.14-.03.28-.05.43-.23,1.98-.59,3.98-1.11,5.99-.52,2.02-1.18,3.96-1.97,5.84-.81,1.88-1.75,3.56-2.84,5.04-1.09,1.48-2.31,2.69-3.68,3.62-1.37.93-2.88,1.44-4.53,1.52-1.13.06-2.16-.08-3.11-.41-.95-.33-1.79-.93-2.51-1.82-.72-.89-1.31-2.1-1.76-3.66-.24-.8-.42-1.72-.57-2.75h0c-.13-.97-.22-2.03-.27-3.18-.03-.79-.04-1.62,0-2.48.04-.97.11-1.97.23-3.01.22-1.98.59-3.97,1.09-5.97.5-1.99,1.16-3.95,1.96-5.84.8-1.9,1.74-3.58,2.81-5.03.41-.56.84-1.07,1.29-1.55.74-.78,1.53-1.46,2.37-2.04.29-.2.59-.38.9-.54.82-.44,1.69-.73,2.62-.88.33-.06.67-.09,1.01-.11.87-.04,1.7.02,2.47.2.22.05.44.11.66.18.96.31,1.82.91,2.55,1.82.74.9,1.33,2.12,1.79,3.65.44,1.48.71,3.39.82,5.71h0c0,.09.01.16.01.24.07,1.53,0,3.2-.18,5.02Z"/>
  </g>
  <g>
    <path class="st3" d="M11.57,43.32H0v.25l.15.05c.84.49,1.34,1.04,1.34,2.03v37.34c0,.99-.5,1.53-1.34,2.03l-.15.1v.25h7.81v-.25l-.05-.05c-.89-.35-1.33-1.09-1.33-2.08v-17.16l4.3-3.21c4.4-3.31,7.37-7.76,7.37-11.08v-.84c0-4.4-2.57-7.37-6.53-7.37ZM13.15,51.63c0,4.1-1.73,8.51-4.35,10.98l-2.37,2.23v-20.52h3.56c1.93,0,3.16,1.34,3.16,3.26v4.06Z"/>
    <path class="st3" d="M34.04,84.96c-.94-.35-1.48-1.04-1.63-2.03l-7.17-39.61h-4.4v.25l.2.05c.84.25,1.34.84,1.24,1.48l-6.13,34.02c-.4,2.23-1.19,4.15-2.42,5.78l-.2.2v.25h6.38v-.25l-.45-.25c-1.88-1.63-2.62-3.66-2.18-6.23l1.43-8.01,2.92,2.77c2.92,2.57,5.24,6.18,5.74,9l.1.59c.15.99-.2,1.63-1.04,1.98l-.4.15v.25h8.26v-.25l-.25-.15ZM18.9,69.67l3.07-16.96,4.3,23.84-7.37-6.88Z"/>
    <path class="st3" d="M44,61.51c-2.52-4.06-4.01-8.21-4.01-11.47v-.99c0-3.41,1.04-5.24,2.62-5.24,1.34,0,2.52,1.14,3.07,3.36l4.25,14.49h.25l-.99-18.35h-.25v.2c0,.74-.35,1.24-.94,1.24-.4,0-.84-.2-1.43-.59-.99-.69-2.47-1.34-4.5-1.34-4.2,0-7.02,3.17-7.02,7.86v1.09c0,3.56,1.53,8.01,4.3,12.36l1.88,2.97c2.52,4.06,4.01,8.26,4.01,11.47v.99c0,3.46-.99,5.29-2.57,5.29-1.34,0-2.52-1.14-3.11-3.36l-4.25-14.49h-.25l.99,18.35h.25v-.2c0-.74.35-1.24.94-1.24.4,0,.84.2,1.43.59.99.69,2.52,1.34,4.5,1.34,4.25,0,7.02-3.16,7.02-7.86v-1.14c0-3.56-1.53-8.01-4.3-12.31l-1.88-3.02Z"/>
    <path class="st3" d="M60.08,43.81c1.33,0,2.52,1.14,3.07,3.36l4.24,14.44c.07-.19.15-.39.23-.58l-.95-17.72h-.25v.2c0,.74-.35,1.24-.94,1.24-.4,0-.84-.2-1.43-.59-.99-.69-2.47-1.34-4.5-1.34-4.2,0-7.02,3.17-7.02,7.86v1.09c0,3.56,1.53,8.01,4.3,12.36l1.88,2.97c2.52,4.06,4.01,8.26,4.01,11.47v.99c0,3.46-.99,5.29-2.57,5.29-1.34,0-2.52-1.14-3.12-3.36l-4.25-14.49h-.25l.99,18.35h.25v-.2c0-.74.35-1.24.94-1.24.4,0,.84.2,1.43.59.99.69,2.52,1.34,4.5,1.34,3.47,0,5.96-2.11,6.75-5.44-.06-.09-.12-.18-.17-.28-.51-.87-.91-1.82-1.2-2.86-.19-.68-.33-1.4-.43-2.15-.14-1.05-.2-2.11-.2-3.16,0-1.1.07-2.21.21-3.32-.62-1.36-1.37-2.73-2.25-4.1l-1.88-3.02c-2.52-4.06-4.01-8.21-4.01-11.47v-.99c0-3.41,1.04-5.24,2.62-5.24Z"/>
    <path class="st3" d="M108.94,61.51c-2.52-4.06-4.01-8.21-4.01-11.47v-.99c0-3.41,1.04-5.24,2.62-5.24,1.34,0,2.52,1.14,3.07,3.36l4.25,14.49h.25l-.99-18.35h-.25v.2c0,.74-.35,1.24-.94,1.24-.4,0-.84-.2-1.43-.59-.99-.69-2.47-1.34-4.5-1.34-3.33,0-5.79,1.99-6.67,5.14.06.09.11.18.17.27.41.69.75,1.44,1.01,2.25.29.85.49,1.78.61,2.76.05.41.1.81.12,1.22.14,1.68.09,3.39-.12,5.1-.02.16-.04.33-.06.49.61,1.35,1.36,2.72,2.22,4.07l1.88,2.97c2.52,4.06,4.01,8.26,4.01,11.47v.99c0,3.46-.99,5.29-2.57,5.29-1.33,0-2.52-1.14-3.11-3.36l-4.25-14.49h0c-.07.18-.14.36-.21.53l.96,17.82h.25v-.2c0-.74.35-1.24.94-1.24.4,0,.84.2,1.43.59.99.69,2.52,1.34,4.5,1.34,4.25,0,7.02-3.16,7.02-7.86v-1.14c0-3.56-1.53-8.01-4.3-12.31l-1.88-3.02Z"/>
    <g>
      <path class="st3" d="M7.53,7.62c.4,0,.77.33.84.7l2.34,11.77h.18l-.55-13.2H0v.18l.11.04c.62.37.99.77.99,1.5v27.61c0,.73-.36,1.13-.99,1.5l-.11.07v.18h5.78v-.18l-.04-.04c-.66-.26-.99-.81-.99-1.54v-13.42h4.57v-.73h-4.57V7.62h2.78Z"/>
      <path class="st3" d="M25.85,37.68c-.7-.26-1.17-.73-1.28-1.46l-1.72-11.59c-.18-1.17-1.06-1.83-2.3-1.83h-3.55l2.2-1.65c3.25-2.45,5.45-5.74,5.45-8.19v-.62c0-3.26-1.9-5.45-4.83-5.45h-8.56v.18l.11.04c.62.37.99.77.99,1.5v27.61c0,.73-.37,1.13-.99,1.5l-.11.07v.18h5.78v-.18l-.04-.04c-.66-.26-.99-.81-.99-1.54v-12.69h2.05c.7,0,1.24.44,1.35,1.13l1.54,11.56c.07.7-.15,1.2-.81,1.46l-.29.11v.18h6.22v-.18l-.22-.11ZM16.01,7.62h2.63c1.43,0,2.34.99,2.34,2.41v3c0,3.04-1.28,6.29-3.22,8.12l-1.75,1.65V7.62Z"/>
      <path class="st3" d="M34.81,36.54c-.07.37-.44.7-.84.7h-2.78v-18.47h4.57v-.73h-4.57V7.62h2.78c.4,0,.77.33.84.7l2.34,8.67h.18l-.55-10.09h-10.35v.18l.11.04c.62.37.99.77.99,1.5v27.61c0,.73-.36,1.13-.99,1.5l-.11.07v.18h10.35l.55-13.2h-.18l-2.34,11.77Z"/>
      <path class="st3" d="M46.26,6.89h-8.56v.18l.11.04c.62.37.99.77.99,1.5v27.61c0,.73-.37,1.13-.99,1.5l-.11.07v.18h8.56c2.93,0,4.83-2.19,4.83-5.45V12.34c0-3.26-1.9-5.45-4.83-5.45ZM47.42,34.79c0,1.46-.91,2.45-2.34,2.45h-2.63V7.62h2.63c1.43,0,2.34.99,2.34,2.41v24.76Z"/>
      <path class="st3" d="M60.03,36.54c-.07.37-.44.7-.84.7h-2.78v-18.47h4.57v-.73h-4.57V7.62h2.78c.4,0,.77.33.84.7l2.34,8.67h.18l-.55-10.09h-10.35v.18l.11.04c.62.37.99.77.99,1.5v27.61c0,.73-.37,1.13-.99,1.5l-.11.07v.18h10.35l.55-13.2h-.18l-2.34,11.77Z"/>
      <path class="st3" d="M77.61,37.68c-.7-.26-1.17-.73-1.28-1.46l-1.72-11.59c-.19-1.17-1.06-1.83-2.31-1.83h-3.55l2.2-1.65c3.25-2.45,5.45-5.74,5.45-8.19v-.62c0-3.26-1.9-5.45-4.83-5.45h-8.56v.18l.11.04c.62.37.99.77.99,1.5v27.61c0,.73-.36,1.13-.99,1.5l-.11.07v.18h5.78v-.18l-.04-.04c-.66-.26-.99-.81-.99-1.54v-12.69h2.05c.7,0,1.24.44,1.35,1.13l1.54,11.56c.07.7-.15,1.2-.81,1.46l-.29.11v.18h6.58v-.18l-.58-.11ZM67.77,7.62h2.63c1.43,0,2.34.99,2.34,2.41v3c0,3.04-1.28,6.29-3.22,8.12l-1.75,1.65V7.62Z"/>
      <path class="st3" d="M84.3,7.07h.04v-.18h-5.78v.18l.11.04c.62.37.99.77.99,1.5v27.61c0,.73-.36,1.13-.99,1.5l-.11.07v.18h5.78v-.18l-.04-.04c-.66-.26-.99-.81-.99-1.54V8.61c0-.73.29-1.28.99-1.54Z"/>
      <path class="st3" d="M96.75,32.89c0,2.05-1.57,3.44-3.98,3.44s-3.91-1.32-3.91-3.26V9.67c0-1.43.88-2.42,2.23-2.42,1.24,0,2.27.88,2.56,2.12l3.66,11.08h.18l-.73-13.57h-.18v.15c0,.55-.22.88-.7.88-.26,0-.62-.11-1.06-.4-.77-.51-2.01-.99-3.73-.99-3.55,0-5.89,2.2-5.89,5.45v20.92c0,3.25,2.49,5.45,6.18,5.45s6.11-2.2,6.11-5.45v-7.5h-.73v7.5Z"/>
      <path class="st3" d="M113.33,37.68c-.69-.25-1.1-.77-1.21-1.5l-5.3-29.29h-3.26v.18l.15.04c.62.18.99.62.91,1.1l-4.53,25.16c-.29,1.65-.88,3.07-1.79,4.28l-.15.15v.18h4.72v-.18l-.33-.18c-1.39-1.21-1.94-2.71-1.61-4.61l1.06-5.93,2.16,2.05c2.16,1.9,3.88,4.57,4.24,6.66l.07.44c.11.73-.14,1.21-.77,1.46l-.29.11v.18h6.11v-.18l-.18-.11ZM102.14,26.38l2.27-12.54,3.18,17.62-5.45-5.08Z"/>
    </g>
  </g>
  <g>
    <g>
      <path class="st4" d="M45.31,92.18l-1.07-1.44v3.15h-.69v-4.26h.64l1.38,1.82,1.35-1.82h.64v4.26h-.69v-3.16l-1.09,1.45h-.48Z"/>
      <path class="st4" d="M51.84,91.44v.64h-2.41v1.19h3.24v.63h-3.92v-4.26h3.92v.63h-3.24v1.18h2.41Z"/>
      <path class="st4" d="M54.43,90.72v3.17h-.69v-4.26h.65l2.67,3.17v-3.17h.69v4.26h-.65l-2.67-3.17Z"/>
      <path class="st4" d="M62.66,89.63v.63h-1.66v3.63h-.69v-3.63h-1.66v-.63h4.01Z"/>
      <path class="st4" d="M66.67,91.44v.64h-2.41v1.19h3.24v.63h-3.92v-4.26h3.92v.63h-3.24v1.18h2.41Z"/>
      <path class="st4" d="M71.68,93.65c-.35.22-.78.33-1.29.33s-.92-.09-1.32-.28c-.4-.18-.63-.48-.69-.9v-.08s.67,0,.67,0v.05c.06.2.21.35.46.44.25.09.52.14.8.14.32,0,.6-.05.84-.16s.36-.29.36-.53-.13-.41-.38-.5-.54-.13-.85-.13c-.54,0-.98-.08-1.33-.23-.34-.16-.52-.47-.52-.95,0-.45.17-.77.5-.99.34-.21.75-.32,1.24-.32s.9.09,1.28.28c.38.18.59.48.65.9v.07s-.67,0-.67,0v-.04c-.06-.2-.2-.34-.44-.43s-.49-.14-.76-.14c-.29,0-.54.05-.76.15-.22.1-.33.27-.33.49s.12.38.35.46c.23.08.49.12.77.12.57,0,1.03.08,1.4.24.37.16.55.49.55.98,0,.47-.18.81-.53,1.03Z"/>
      <path class="st4" d="M77.01,92.18l-1.07-1.44v3.15h-.69v-4.26h.64l1.38,1.82,1.35-1.82h.64v4.26h-.69v-3.16l-1.09,1.45h-.48Z"/>
      <path class="st4" d="M80.5,90.67c.17-.34.41-.61.72-.82.31-.21.68-.31,1.11-.31s.8.1,1.12.31c.32.21.56.48.73.82.17.34.25.7.25,1.1s-.08.75-.25,1.09c-.17.34-.41.61-.73.81-.32.21-.69.31-1.12.31s-.79-.1-1.11-.31c-.32-.21-.56-.48-.72-.82-.17-.34-.25-.7-.25-1.09s.08-.75.25-1.09ZM81.14,92.5c.11.24.26.43.46.57.2.15.44.22.72.22s.52-.07.73-.21c.21-.14.37-.33.47-.57s.16-.48.16-.75-.05-.52-.16-.76-.27-.43-.47-.58c-.21-.15-.45-.22-.73-.22s-.52.07-.72.22c-.2.15-.36.34-.46.58-.11.24-.16.49-.16.75s.05.51.16.75Z"/>
      <path class="st4" d="M88.52,89.92c.31.19.56.45.73.78.17.33.26.68.26,1.07s-.09.73-.26,1.06c-.17.33-.41.58-.73.78-.31.19-.68.29-1.09.29h-2.01v-4.26h2.01c.41,0,.78.1,1.09.29ZM87.42,93.26c.27,0,.51-.07.72-.21.21-.14.36-.32.47-.55.11-.23.16-.47.16-.74s-.05-.51-.16-.74-.26-.42-.47-.56c-.21-.14-.45-.21-.72-.21h-1.32v3.01h1.32Z"/>
      <path class="st4" d="M93.59,91.44v.64h-2.41v1.19h3.24v.63h-3.92v-4.26h3.92v.63h-3.24v1.18h2.41Z"/>
      <path class="st4" d="M96.18,92.07v1.82h-.69v-4.26h2.92c.25,0,.46.06.64.17s.31.26.4.45.13.39.13.61c0,.33-.09.6-.26.83-.17.23-.43.36-.77.38h-.09l1.05,1.82h-.76l-1.05-1.82h-1.53ZM98.42,91.44c.16,0,.28-.05.36-.16s.12-.24.12-.42-.04-.31-.12-.43c-.08-.12-.2-.18-.36-.18h-2.23v1.18h2.23Z"/>
      <path class="st4" d="M101.3,90.72v3.17h-.69v-4.26h.65l2.67,3.17v-3.17h.69v4.26h-.65l-2.67-3.17Z"/>
      <path class="st4" d="M109.16,93.89l-.49-1.1h-2.02l-.47,1.1h-.73l1.86-4.3h.67l1.93,4.3h-.74ZM108.45,92.16l-.8-1.78-.76,1.78h1.55Z"/>
      <path class="st4" d="M113.79,93.65c-.35.22-.78.33-1.29.33s-.92-.09-1.32-.28c-.4-.18-.63-.48-.69-.9v-.08s.67,0,.67,0v.05c.06.2.21.35.46.44.25.09.52.14.8.14.32,0,.6-.05.84-.16s.36-.29.36-.53-.13-.41-.38-.5-.54-.13-.85-.13c-.54,0-.98-.08-1.33-.23-.34-.16-.52-.47-.52-.95,0-.45.17-.77.5-.99.34-.21.75-.32,1.24-.32s.9.09,1.28.28c.38.18.59.48.64.9v.07s-.67,0-.67,0v-.04c-.06-.2-.2-.34-.44-.43-.24-.09-.49-.14-.76-.14-.29,0-.54.05-.76.15-.22.1-.33.27-.33.49s.12.38.35.46c.23.08.49.12.77.12.57,0,1.03.08,1.4.24.37.16.55.49.55.98,0,.47-.18.81-.53,1.03Z"/>
    </g>
    <g>
      <path class="st4" d="M3.1.35c.31.19.56.45.73.78.17.33.26.68.26,1.07s-.09.73-.26,1.06c-.17.33-.41.58-.73.78-.31.19-.68.29-1.1.29H0V.06h2.01c.42,0,.78.1,1.1.29ZM2.01,3.69c.27,0,.51-.07.72-.21.21-.14.36-.32.47-.55.11-.23.16-.47.16-.74s-.05-.51-.16-.74c-.11-.23-.26-.42-.47-.56s-.45-.21-.72-.21H.69v3.01h1.32Z"/>
      <path class="st4" d="M5.77,2.5v1.82h-.69V.06h2.92c.25,0,.46.06.64.17s.31.26.4.45c.09.19.13.39.13.61,0,.33-.09.6-.26.83-.17.23-.43.36-.77.38h-.09l1.05,1.82h-.76l-1.05-1.82h-1.53ZM8.01,1.87c.16,0,.28-.05.36-.16s.12-.24.12-.42-.04-.31-.12-.43c-.08-.12-.2-.18-.36-.18h-2.23v1.18h2.23Z"/>
      <path class="st4" d="M13.55,4.32l-.49-1.1h-2.02l-.48,1.1h-.73L11.7.03h.67l1.93,4.3h-.74ZM12.84,2.59l-.8-1.78-.76,1.78h1.55Z"/>
      <path class="st4" d="M15.18,3.56c.08-.09.19-.14.34-.14s.27.05.35.14c.08.09.12.21.12.35s-.04.26-.12.35c-.08.09-.2.14-.35.14s-.27-.05-.35-.14c-.08-.1-.12-.21-.12-.35s.04-.25.12-.35Z"/>
    </g>
  </g>
</svg>