<?xml version="1.0" encoding="UTF-8"?>
<svg id="Layer_1" xmlns="http://www.w3.org/2000/svg" version="1.1" viewBox="0 0 1163.32 2650.86">
  <!-- Generator: Adobe Illustrator 30.0.0, SVG Export Plug-In . SVG Version: 2.1.1 Build 123)  -->
  <defs>
    <style>
      .st0 {
        fill: #f2a7cd;
      }
    </style>
  </defs>
  <path class="st0" d="M196.5,1228.16c0,129.69,58.95,294.76,159.17,455.89l74.68,119.88c110.03,170.96,170.96,347.81,170.96,489.29v45.19c0,186.69-110.05,312.45-279.05,312.45-78.6,0-139.51-25.55-178.81-53.07-23.57-15.72-41.26-23.57-56.98-23.57-23.59,0-37.33,19.65-37.33,49.12v2.82c0,2.78-2.26,5.04-5.04,5.04h-.02c-2.68,0-4.89-2.09-5.03-4.77L.29,1907.48c-.16-2.89,2.14-5.31,5.03-5.31h.74c2.24,0,4.21,1.47,4.84,3.62l167.94,572.14c23.57,88.43,70.74,133.62,123.79,133.62,62.88,0,102.19-72.71,102.19-210.26v-39.31c0-127.72-58.95-294.75-159.17-455.89l-74.67-117.9C60.92,1615.28,0,1438.42,0,1296.94v-43.24c0-186.69,112.02-312.45,279.05-312.45,80.55,0,139.51,25.55,178.81,53.07,23.57,15.72,41.26,23.57,56.98,23.57,23.59,0,37.35-19.65,37.35-49.12v-2.82c0-2.78,2.26-5.04,5.04-5.04h0c2.68,0,4.89,2.09,5.03,4.77l38.76,718.95c.16,2.89-2.14,5.31-5.03,5.31h-.74c-2.24,0-4.21-1.47-4.84-3.62l-167.92-572.14c-21.62-88.43-68.78-133.62-121.83-133.62-62.88,0-104.16,72.71-104.16,208.29v39.31Z"/>
  <path class="st0" d="M758.51,286.9c0,129.69,58.95,294.76,159.17,455.89l74.68,119.88c110.03,170.96,170.96,347.81,170.96,489.29v45.19c0,186.69-110.05,312.45-279.05,312.45-78.6,0-139.51-25.55-178.81-53.07-23.57-15.72-41.26-23.57-56.98-23.57-23.59,0-37.33,19.65-37.33,49.12v2.82c0,2.78-2.26,5.04-5.04,5.04h-.02c-2.68,0-4.89-2.09-5.03-4.77l-38.76-718.95c-.16-2.89,2.14-5.31,5.03-5.31h.74c2.24,0,4.21,1.47,4.84,3.62l167.94,572.14c23.57,88.43,70.74,133.62,123.79,133.62,62.88,0,102.19-72.71,102.19-210.26v-39.31c0-127.72-58.95-294.75-159.17-455.89l-74.67-117.9c-110.05-172.91-170.97-349.77-170.97-491.25v-43.24C562.01,125.76,674.02,0,841.05,0c80.55,0,139.51,25.55,178.81,53.07,23.57,15.72,41.26,23.57,56.98,23.57,23.59,0,37.35-19.65,37.35-49.12v-2.82c0-2.78,2.26-5.04,5.04-5.04h0c2.68,0,4.89,2.09,5.03,4.77l39.05,499.59h-9.83l-168.98-351.09c-21.62-88.43-68.78-133.62-121.83-133.62-62.88,0-104.16,72.71-104.16,208.29v39.31Z"/>
</svg>