<?xml version="1.0" encoding="UTF-8"?>
<svg id="Layer_2" data-name="Layer 2" xmlns="http://www.w3.org/2000/svg" viewBox="0 0 1709.6 601.31">
  <defs>
    <style>
      .cls-1 {
        fill: #70309e;
      }
    </style>
  </defs>
  <g id="Layer_1-2" data-name="Layer 1">
    <path class="cls-1" d="M1422.7,196.5c-129.69,0-294.76,58.95-455.89,159.17l-119.88,74.68c-170.96,110.03-347.81,170.96-489.29,170.96h-45.19C125.76,601.31,0,491.26,0,322.27c0-78.6,25.55-139.51,53.07-178.81,15.72-23.57,23.57-41.26,23.57-56.98,0-23.59-19.65-37.33-49.12-37.33h-2.82c-2.78,0-5.04-2.26-5.04-5.04v-.02c0-2.68,2.09-4.89,4.77-5.03L743.38.29c2.89-.16,5.31,2.14,5.31,5.03v.74c0,2.24-1.47,4.21-3.62,4.84L172.93,178.83c-88.43,23.57-133.62,70.74-133.62,123.79,0,62.88,72.71,102.19,210.26,102.19h39.31c127.72,0,294.75-58.95,455.89-159.17l117.9-74.67C1035.58,60.92,1212.44,0,1353.92,0h43.24c186.69,0,312.45,112.02,312.45,279.05,0,80.55-25.55,139.51-53.07,178.81-15.72,23.57-23.57,41.26-23.57,56.98,0,23.59,19.65,37.35,49.12,37.35h2.82c2.78,0,5.04,2.26,5.04,5.04h0c0,2.68-2.09,4.89-4.77,5.03l-718.95,38.76c-2.89.16-5.31-2.14-5.31-5.03v-.74c0-2.24,1.47-4.21,3.62-4.84l572.14-167.92c88.43-21.62,133.62-68.78,133.62-121.83,0-62.88-72.71-104.16-208.29-104.16h-39.31Z"/>
  </g>
</svg>